<svg width="24" height="24" viewBox="0 0 24 24" fill="none" xmlns="http://www.w3.org/2000/svg">
<g clip-path="url(#clip0_574_4340)">
<path d="M16.7933 13.6C16.9845 13.0883 17.0816 12.5462 17.08 12C17.08 10.7871 16.5981 9.62383 15.7405 8.76616C14.8828 7.9085 13.7196 7.42667 12.5066 7.42667C11.9671 7.42744 11.432 7.52452 10.9266 7.71333L12 8.82C12.1632 8.79446 12.3281 8.78109 12.4933 8.78C13.3509 8.77821 14.1744 9.11583 14.784 9.71913C15.3935 10.3224 15.7396 11.1424 15.7466 12C15.7455 12.1652 15.7322 12.3301 15.7066 12.4933L16.7933 13.6Z" fill="#555555"/>
<path d="M22.8599 11.6867C20.6133 7.53332 16.6733 5.01999 12.3133 5.01999C11.1262 5.02255 9.947 5.21383 8.81995 5.58666L9.89328 6.66666C10.6839 6.46248 11.4968 6.35723 12.3133 6.35332C16.0666 6.35332 19.4799 8.44665 21.5133 11.9733C20.7667 13.2813 19.778 14.4351 18.5999 15.3733L19.5466 16.32C20.911 15.2199 22.044 13.8604 22.8799 12.32L23.0533 12L22.8599 11.6867Z" fill="#555555"/>
<path d="M3.24667 3.85332L6.22 6.82665C4.34023 8.03626 2.80411 9.71015 1.76 11.6867L1.58667 12L1.76 12.32C4.00667 16.4733 7.94667 18.9867 12.3067 18.9867C14.0085 18.987 15.6883 18.6018 17.22 17.86L20.5533 21.1933L21.72 20.1933L4.38667 2.85999L3.24667 3.85332ZM9.74667 10.3533L14.18 14.7867C13.6792 15.097 13.1025 15.2631 12.5133 15.2667C12.0853 15.2667 11.6615 15.182 11.2663 15.0176C10.871 14.8532 10.5122 14.6123 10.2105 14.3087C9.90875 14.0051 9.67002 13.6448 9.50804 13.2486C9.34606 12.8524 9.26403 12.428 9.26667 12C9.27385 11.4176 9.43981 10.8483 9.74667 10.3533ZM8.78 9.38665C8.15629 10.2663 7.86395 11.3382 7.95475 12.4126C8.04554 13.4871 8.51361 14.4948 9.27607 15.2572C10.0385 16.0197 11.0462 16.4878 12.1207 16.5786C13.1951 16.6694 14.2671 16.377 15.1467 15.7533L16.2133 16.82C14.9786 17.348 13.6496 17.6201 12.3067 17.62C8.55333 17.62 5.14 15.5267 3.10667 12C4.08272 10.2723 5.48801 8.82569 7.18667 7.79999L8.78 9.38665Z" fill="#555555"/>
</g>
<defs>
<clipPath id="clip0_574_4340">
<rect width="24" height="24" fill="white"/>
</clipPath>
</defs>
</svg>
