<svg width="24" height="24" viewBox="0 0 24 24" fill="none" xmlns="http://www.w3.org/2000/svg">
<g clip-path="url(#clip0_573_4356)">
<path d="M22.4133 11.3708C20.1666 7.32974 16.2266 4.88434 11.8666 4.88434C7.50661 4.88434 3.55994 7.32974 1.33327 11.3708L1.14661 11.6757L1.31994 11.987C3.56661 16.0281 7.50661 18.4735 11.8666 18.4735C16.2266 18.4735 20.1733 16.0606 22.4133 11.987L22.5866 11.6757L22.4133 11.3708ZM11.8666 17.1438C8.11327 17.1438 4.66661 15.107 2.66661 11.6757C4.66661 8.24434 8.11327 6.20758 11.8666 6.20758C15.6199 6.20758 19.0266 8.25082 21.0599 11.6757C19.0266 15.107 15.6133 17.1438 11.8666 17.1438Z" fill="#555555"/>
<path d="M12.06 7.24542C11.1561 7.25184 10.2744 7.51875 9.52626 8.01243C8.77815 8.50612 8.19719 9.20444 7.85676 10.0192C7.51632 10.834 7.43167 11.7286 7.61351 12.5901C7.79534 13.4517 8.23551 14.2415 8.8784 14.8597C9.5213 15.478 10.3381 15.8971 11.2256 16.0639C12.1131 16.2308 13.0316 16.138 13.865 15.7973C14.6983 15.4566 15.4092 14.8833 15.9079 14.1497C16.4065 13.4161 16.6706 12.5552 16.6666 11.6757C16.664 11.0902 16.5427 10.5111 16.3096 9.97131C16.0765 9.43157 15.7363 8.94189 15.3083 8.53033C14.8804 8.11877 14.3731 7.79342 13.8157 7.57293C13.2583 7.35244 12.6617 7.24115 12.06 7.24542ZM12.06 14.8476C11.4215 14.8412 10.7992 14.6514 10.2712 14.3019C9.74321 13.9525 9.33311 13.4591 9.09241 12.8837C8.8517 12.3083 8.79111 11.6764 8.91825 11.0676C9.0454 10.4588 9.3546 9.90007 9.80703 9.46166C10.2595 9.02326 10.8349 8.72469 11.4612 8.60347C12.0875 8.48225 12.7366 8.54378 13.327 8.78033C13.9174 9.01688 14.4229 9.4179 14.7798 9.93303C15.1368 10.4482 15.3293 11.0544 15.3333 11.6757C15.3351 12.0938 15.2515 12.5081 15.0875 12.8946C14.9235 13.281 14.6822 13.632 14.3777 13.927C14.0732 14.2221 13.7116 14.4554 13.3137 14.6134C12.9158 14.7714 12.4897 14.851 12.06 14.8476Z" fill="#555555"/>
</g>
<defs>
<clipPath id="clip0_573_4356">
<rect width="24" height="23.3514" fill="white"/>
</clipPath>
</defs>
</svg>
