<svg width="23" height="28" viewBox="0 0 23 28" fill="current" xmlns="http://www.w3.org/2000/svg">
<path d="M5.94385 0.866739C5.836 0.920665 5.68621 1.04649 5.61431 1.14835C5.48848 1.32211 5.48249 1.406 5.46451 2.50848L5.44654 3.68886L4.9612 3.76076C2.25293 4.15621 0.605198 5.74403 0.149825 8.39838C0.0180061 9.1833 0.0299896 9.35706 0.233709 9.58474L0.40747 9.78247H11.5042H22.6009L22.7747 9.58474C22.9784 9.35706 22.9904 9.1833 22.8586 8.39838C22.4032 5.74403 20.7555 4.15621 18.0472 3.76076L17.5559 3.68886V2.58038C17.5559 1.68162 17.5379 1.43596 17.46 1.26819C17.3162 0.968599 17.0526 0.806822 16.6631 0.776863C16.2437 0.746904 15.9741 0.908682 15.7763 1.30414C15.6505 1.5498 15.6385 1.65166 15.6385 2.60435V3.64092H11.5102H7.38187L7.35791 2.54443C7.33993 1.57377 7.32795 1.42996 7.2141 1.24422C6.95646 0.80083 6.41121 0.63306 5.94385 0.866739Z" fill="current"/>
<path d="M0.730994 11.8556C0.425415 12.0054 0.13781 12.3349 0.0599176 12.6285C0.023967 12.7544 0 14.5399 0 17.1643C0 20.6695 0.0179753 21.6222 0.0898763 22.1734C0.269629 23.5635 0.742978 24.666 1.51591 25.4868C2.14505 26.1639 2.81013 26.5714 3.77481 26.8889C4.88328 27.2484 4.97316 27.2544 11.8038 27.2304C17.8375 27.2125 18.0172 27.2125 18.5445 27.0866C21.1868 26.4755 22.6309 24.7858 22.9484 21.9457C22.9904 21.5443 23.0083 19.9025 22.9964 16.9666L22.9784 12.5926L22.8106 12.3409C22.7207 12.2031 22.535 12.0174 22.3972 11.9275L22.1455 11.7597L11.5701 11.7418L0.98864 11.7298L0.730994 11.8556ZM7.62151 15.93C8.11284 16.1816 8.40044 16.7928 8.26862 17.3081C8.16077 17.7215 7.95106 17.9912 7.60354 18.1649C7.07626 18.4226 6.54899 18.3447 6.14155 17.9312C5.72812 17.5238 5.65023 16.9965 5.90787 16.4693C6.23143 15.8221 6.95643 15.5945 7.62151 15.93ZM12.1033 15.924C13.0441 16.4033 12.9602 17.8114 11.9715 18.2248C11.1686 18.5664 10.2519 17.9372 10.2459 17.0445C10.2399 16.0738 11.2285 15.4806 12.1033 15.924ZM16.5972 15.942C17.3222 16.3135 17.466 17.3381 16.8728 17.9312C16.4594 18.3447 15.9321 18.4286 15.4048 18.1649C14.7038 17.8114 14.4881 16.9126 14.9554 16.2955C15.3629 15.7682 15.98 15.6304 16.5972 15.942ZM7.60354 20.3939C8.38846 20.7893 8.54424 21.766 7.90912 22.3951C7.27998 23.0302 6.30333 22.8744 5.90787 22.0895C5.65023 21.5622 5.72812 21.035 6.14155 20.6275C6.54899 20.2141 7.07626 20.1302 7.60354 20.3939ZM11.8996 20.3279C12.5827 20.5317 12.9542 21.3405 12.6726 22.0236C12.2471 23.0302 10.7612 23.0302 10.3358 22.0236C10.0602 21.3525 10.4197 20.5377 11.0907 20.3279C11.4383 20.2201 11.5461 20.2201 11.8996 20.3279ZM16.3455 20.31C16.8548 20.4358 17.2563 20.987 17.2563 21.5682C17.2563 21.8738 16.9806 22.3771 16.723 22.5449C16.1478 22.9164 15.5666 22.8684 15.0992 22.3951C14.6259 21.9277 14.5779 21.3465 14.9554 20.7653C15.0932 20.5496 15.3269 20.3879 15.6385 20.292C15.8602 20.2261 16.0339 20.2321 16.3455 20.31Z" fill="current"/>
</svg>
