<svg width="26" height="26" viewBox="0 0 26 26" fill="current" xmlns="http://www.w3.org/2000/svg">
<path d="M12.3399 0.842968C11.4665 1.03086 10.659 1.67578 10.268 2.48828C10.1563 2.72695 10.0395 3.0418 10.009 3.18906C9.93286 3.56992 9.93286 22.4301 10.009 22.8109C10.0395 22.9582 10.1563 23.273 10.268 23.5117C10.7606 24.5375 11.8625 25.2383 13 25.2383C14.1375 25.2383 15.2395 24.5375 15.7321 23.5117C15.8438 23.273 15.9606 22.9582 15.9911 22.8109C16.0672 22.4301 16.0672 3.56992 15.9911 3.18906C15.9606 3.0418 15.8438 2.72695 15.7321 2.48828C15.5696 2.14805 15.4426 1.97539 15.1379 1.6707C14.3813 0.914061 13.3758 0.61953 12.3399 0.842968Z" fill="current"/>
<path d="M20.5919 6.99764C19.8809 7.21092 19.2512 7.67303 18.8602 8.26717C18.7536 8.42459 18.5962 8.74959 18.5149 8.98826L18.3575 9.4199L18.3422 15.7676C18.3321 19.8707 18.3473 22.2523 18.3778 22.5062C18.5555 23.8215 19.4239 24.8117 20.6985 25.1367C22.2016 25.5226 23.7047 24.7101 24.2938 23.1867L24.4512 22.7754V16.0976V9.4199L24.3395 9.06443C24.0501 8.15037 23.3087 7.36834 22.4301 7.05857C21.9833 6.90115 21.0235 6.87068 20.5919 6.99764Z" fill="current"/>
<path d="M3.92031 13.0762C3.38711 13.1981 2.86406 13.4875 2.45781 13.8887C2.05664 14.2848 1.84336 14.6301 1.66562 15.1582L1.54883 15.5137V19.1192V22.7247L1.68594 23.1309C2.20898 24.6543 3.77812 25.5278 5.30156 25.1368C6.32227 24.8778 7.12969 24.1516 7.46484 23.1868C7.65781 22.6485 7.67305 22.2372 7.65273 18.8399C7.63242 15.2395 7.64766 15.3715 7.30742 14.686C6.96719 13.9954 6.31719 13.4215 5.5707 13.1676C5.10859 13.0102 4.38242 12.9696 3.92031 13.0762Z" fill="current"/>
</svg>
