<svg width="25" height="21" viewBox="0 0 25 21" fill="current" xmlns="http://www.w3.org/2000/svg">
<path d="M3.74763 0.886717C3.00203 1.04999 1.95166 1.55068 1.95166 1.75205C1.95166 1.80647 3.74763 3.6351 5.96811 5.84469C10.1315 9.9972 10.175 10.0353 10.9315 10.3455C11.8948 10.7319 13.1248 10.7319 14.0881 10.3455C14.8446 10.0353 14.8881 9.9972 19.057 5.84469C21.2774 3.62966 23.068 1.80647 23.068 1.75205C23.068 1.52891 21.8217 0.96291 21.0543 0.843178C20.8203 0.805081 17.9304 0.783313 12.4554 0.788754C4.72726 0.788754 4.18302 0.79964 3.74763 0.886717Z" fill="current"/>
<path d="M0.487679 3.40109C0.340736 3.646 0.112157 4.35351 0.0468491 4.78889C0.00875265 5.03924 -0.00757438 6.9876 0.00331031 10.7156L0.0196373 16.2668L0.144811 16.675C0.640065 18.3077 1.88636 19.5431 3.50274 20.0057L3.93813 20.1309H12.5098H21.0815L21.5169 20.0057C23.1496 19.5376 24.4068 18.2805 24.8748 16.6478L25 16.2124V10.4707V4.72903L24.8803 4.30997C24.717 3.75485 24.5102 3.29225 24.4013 3.25415C24.336 3.22694 23.2639 4.26099 20.3577 7.16175C16.265 11.2381 16.0746 11.4122 15.2038 11.8422C14.333 12.2776 13.5547 12.4517 12.5098 12.4517C11.4649 12.4517 10.6866 12.2776 9.81586 11.8422C8.94508 11.4122 8.7546 11.2326 4.67284 7.1672C2.50135 5.00114 0.694488 3.23238 0.656392 3.23238C0.618295 3.23238 0.542102 3.30857 0.487679 3.40109Z" fill="current"/>
</svg>
