<svg width="23" height="24" viewBox="0 0 23 24" fill="current" xmlns="http://www.w3.org/2000/svg">
<path d="M17.8102 1.02791C17.625 1.06905 17.2804 1.19762 17.0439 1.31591C16.653 1.5062 16.5141 1.61935 15.7427 2.38565L14.8735 3.23938L17.7793 6.14001L20.6851 9.04578L21.4051 8.36176C22.4234 7.39489 22.732 6.96288 22.9274 6.22229C23.0251 5.83143 23.0251 5.14227 22.9223 4.73598C22.7525 4.07254 22.5468 3.77939 21.4874 2.70965C20.9217 2.13364 20.3714 1.61935 20.1759 1.49077C19.5022 1.04333 18.561 0.858188 17.8102 1.02791Z" fill="current"/>
<path d="M7.6219 10.5321C3.73383 14.4048 1.53778 16.6317 1.46578 16.7654C1.30635 17.0842 0.00518276 22.2632 3.9799e-05 22.6026C-0.00510316 23.3124 0.488621 23.8472 1.23435 23.9398C1.56864 23.9809 1.65607 23.9655 4.24812 23.3175C5.71387 22.9524 7.00989 22.6026 7.12818 22.5461C7.34418 22.4381 14.5803 15.2636 17.9747 11.7921L19.5176 10.2081L16.6529 7.3692C15.074 5.80574 13.7575 4.52 13.7266 4.51486C13.6957 4.50971 10.9494 7.21491 7.6219 10.5321Z" fill="current"/>
</svg>
