<svg width="23" height="25" viewBox="0 0 23 25" fill="current" xmlns="http://www.w3.org/2000/svg">
<path d="M10.4902 0.249928C8.94004 0.527636 7.77872 1.12849 6.69818 2.19893C5.48637 3.40065 4.82492 4.83463 4.68859 6.55642C4.48662 9.01539 5.68833 11.4592 7.75852 12.8225C7.99078 12.974 8.01603 13.0043 7.93524 13.0346C6.01653 13.7162 4.52701 14.6604 3.21926 16.0136C1.25511 18.0535 0.119032 20.6842 0.00794841 23.4814C-0.022347 24.2287 0.0230961 24.3954 0.336148 24.6024L0.507822 24.7185H11.5H22.4922L22.6639 24.6024C22.9769 24.3954 23.0223 24.2338 22.9921 23.4562C22.8759 20.6791 21.7398 18.0434 19.7807 16.0136C18.5841 14.7766 17.1248 13.8071 15.5545 13.2164L15.0345 13.0194L15.4788 12.7266C15.7212 12.56 16.1352 12.2116 16.4028 11.9439C17.4076 10.9392 18.0438 9.75258 18.3266 8.33375C18.4578 7.67735 18.4679 6.56652 18.3468 5.88992C17.8418 3.09769 15.7515 0.931574 12.939 0.30547C12.4442 0.194386 10.985 0.164091 10.4902 0.249928Z" fill="current"/>
</svg>
