<svg width="20" height="20" viewBox="0 0 20 20" fill="none" xmlns="http://www.w3.org/2000/svg">
<g clip-path="url(#clip0_77_7229)">
<path opacity="0.959" d="M8.10428 0.708661L8.06749 0.708837L8.03231 0.719601C7.4682 0.892228 7.03303 1.16994 6.76352 1.57228C6.53969 1.90644 6.44575 2.30319 6.46433 2.74819C5.68146 2.74509 4.89868 2.75157 4.11596 2.76763L4.09801 2.768L4.08029 2.77093C3.64027 2.84373 3.26821 3.00182 2.98072 3.25833C2.69188 3.51604 2.50514 3.85823 2.41238 4.26955L2.40717 4.29263L2.40639 4.31628C2.38016 5.10955 2.38016 5.90282 2.40639 6.69609L2.40729 6.72328L2.41401 6.74964C2.48672 7.0346 2.62637 7.2723 2.8427 7.44338C3.00502 7.57176 3.19884 7.65342 3.41607 7.69582C3.61621 10.7898 3.81361 13.8846 4.00831 16.9802L4.00924 16.9951L4.01195 17.0098C4.0488 17.2099 4.10559 17.4051 4.1822 17.5951L4.18542 17.6031L4.18917 17.6108C4.58964 18.4356 5.27206 18.964 6.20984 19.1946L6.23516 19.2008L6.26122 19.2017C7.4995 19.2429 8.73923 19.2608 9.98047 19.2555C11.2217 19.2608 12.4614 19.2429 13.6997 19.2017L13.7222 19.2009L13.7441 19.1962C13.8857 19.1657 14.025 19.1274 14.1618 19.0813L14.1685 19.0791L14.1751 19.0764C15.1489 18.686 15.7516 17.9946 15.9482 17.0137L15.9516 16.9971L15.9526 16.9802C16.1473 13.8846 16.3447 10.7898 16.5449 7.69583C16.7621 7.65342 16.9559 7.57176 17.1183 7.44338C17.3346 7.2723 17.4742 7.03459 17.5469 6.74963L17.5537 6.72321L17.5546 6.69597C17.5808 5.89086 17.5808 5.08571 17.5546 4.2806L17.5537 4.25497L17.5477 4.23005C17.373 3.50663 16.8907 3.03123 16.1443 2.8134L16.1166 2.80532L16.0878 2.80375C15.2178 2.75649 14.3465 2.73734 13.4741 2.74628C13.4715 2.61972 13.4641 2.49328 13.452 2.367L13.4522 2.36698L13.4508 2.35699C13.3934 1.93841 13.2365 1.58158 12.97 1.30187C12.7047 1.02342 12.3467 0.838063 11.9142 0.733556L11.887 0.726988L11.859 0.726588C10.6075 0.708662 9.35595 0.702686 8.10428 0.708661ZM5.52255 16.6202C5.33802 13.6567 5.15488 10.6933 4.97311 7.73006C5.21196 7.7273 5.44915 7.70685 5.68457 7.66865L5.75039 7.65797L5.80215 7.61593C6.00865 7.44819 6.17533 7.23259 6.16336 6.96918C6.15142 6.70643 5.96656 6.50593 5.74618 6.35586L5.68945 6.31723L5.62095 6.31298C5.06411 6.27844 4.50812 6.25113 3.95301 6.23112C3.93572 5.63738 3.93776 5.04363 3.95913 4.4499C4.00791 4.34259 4.08606 4.2663 4.20609 4.2164C8.05782 4.21057 11.9095 4.2165 15.7612 4.2342C15.8737 4.27358 15.95 4.33663 16.002 4.42524C16.0216 5.03649 16.0183 5.64751 15.9921 6.25832C13.2065 6.25315 10.4208 6.25929 7.63516 6.2767L7.61602 6.27682L7.59712 6.27985C7.36108 6.31772 7.14014 6.40876 7.00951 6.60139C6.87587 6.79846 6.8812 7.03503 6.94777 7.26005L6.95633 7.28898L6.97153 7.31505C7.07788 7.49745 7.23745 7.62466 7.43783 7.69396L7.47669 7.70739L7.5178 7.70768C10.0078 7.72497 12.4979 7.73114 14.988 7.72616L14.4386 16.6523C14.3945 16.9487 14.2863 17.1805 14.1217 17.3601C13.9593 17.5374 13.7291 17.6777 13.4167 17.7721C12.2727 17.8119 11.1277 17.8294 9.98153 17.8245L9.9794 17.8245C8.8332 17.8294 7.68816 17.8119 6.54419 17.7721C6.2231 17.6754 5.98965 17.5315 5.82777 17.3501C5.66332 17.1659 5.55846 16.9271 5.52255 16.6202ZM8.08642 2.34597C8.15861 2.245 8.25281 2.17727 8.37645 2.13915C9.48682 2.12359 10.5953 2.14061 11.7019 2.19019C11.7704 2.23557 11.8279 2.28897 11.8754 2.3506C11.9015 2.48264 11.9169 2.61562 11.9214 2.74967H11.9202H11.9116H11.9031H11.8945H11.886H11.8774H11.8689H11.8604H11.8518H11.8433H11.8347H11.8262H11.8176H11.8091H11.8005H11.792H11.7835H11.7749H11.7664H11.7578H11.7493H11.7407H11.7322H11.7236H11.7151H11.7065H11.698H11.6895H11.6809H11.6724H11.6638H11.6553H11.6467H11.6382H11.6296H11.6211H11.6126H11.604H11.5955H11.5869H11.5784H11.5698H11.5613H11.5527H11.5442H11.5356H11.5271H11.5186H11.51H11.5015H11.4929H11.4844H11.4758H11.4673H11.4587H11.4502H11.4417H11.4331H11.4246H11.416H11.4075H11.3989H11.3904H11.3818H11.3733H11.3648H11.3562H11.3477H11.3391H11.3306H11.322H11.3135H11.3049H11.2964H11.2878H11.2793H11.2708H11.2622H11.2537H11.2451H11.2366H11.228H11.2195H11.2109H11.2024H11.1939H11.1853H11.1768H11.1682H11.1597H11.1511H11.1426H11.134H11.1255H11.1169H11.1084H11.0999H11.0913H11.0828H11.0742H11.0657H11.0571H11.0486H11.04H11.0315H11.023H11.0144H11.0059H10.9973H10.9888H10.9802H10.9717H10.9631H10.9546H10.946H10.9375H10.929H10.9204H10.9119H10.9033H10.8948H10.8862H10.8777H10.8691H10.8606H10.8521H10.8435H10.835H10.8264H10.8179H10.8093H10.8008H10.7922H10.7837H10.7752H10.7666H10.7581H10.7495H10.741H10.7324H10.7239H10.7153H10.7068H10.6982H10.6897H10.6812H10.6726H10.6641H10.6555H10.647H10.6384H10.6299H10.6213H10.6128H10.6043H10.5957H10.5872H10.5786H10.5701H10.5615H10.553H10.5444H10.5359H10.5273H10.5188H10.5103H10.5017H10.4932H10.4846H10.4761H10.4675H10.459H10.4504H10.4419H10.4334H10.4248H10.4163H10.4077H10.3992H10.3906H10.3821H10.3735H10.365H10.3564H10.3479H10.3394H10.3308H10.3223H10.3137H10.3052H10.2966H10.2881H10.2795H10.271H10.2625H10.2539H10.2454H10.2368H10.2283H10.2197H10.2112H10.2026H10.1941H10.1855H10.177H10.1685H10.1599H10.1514H10.1428H10.1343H10.1257H10.1172H10.1086H10.1001H10.0916H10.083H10.0745H10.0659H10.0574H10.0488H10.0403H10.0317H10.0232H10.0146H10.0061H9.99756H9.98902H9.98047H9.97193H9.96338H9.95484H9.94629H9.93775H9.9292H9.92066H9.91211H9.90357H9.89502H9.88648H9.87793H9.86939H9.86084H9.8523H9.84375H9.83521H9.82666H9.81812H9.80957H9.80103H9.79248H9.78394H9.77539H9.76685H9.7583H9.74976H9.74121H9.73267H9.72412H9.71558H9.70703H9.69849H9.68994H9.6814H9.67285H9.66431H9.65576H9.64722H9.63867H9.63013H9.62158H9.61304H9.60449H9.59595H9.5874H9.57886H9.57031H9.56177H9.55322H9.54468H9.53613H9.52759H9.51904H9.5105H9.50195H9.49341H9.48486H9.47632H9.46777H9.45923H9.45068H9.44214H9.43359H9.42505H9.4165H9.40796H9.39941H9.39087H9.38232H9.37378H9.36523H9.35669H9.34814H9.3396H9.33105H9.32251H9.31396H9.30542H9.29687H9.28833H9.27978H9.27124H9.26269H9.25415H9.2456H9.23706H9.22851H9.21997H9.21142H9.20288H9.19433H9.18579H9.17724H9.1687H9.16015H9.15161H9.14306H9.13452H9.12597H9.11743H9.10888H9.10034H9.09179H9.08325H9.07471H9.06616H9.05761H9.04907H9.04052H9.03198H9.02344H9.01489H9.00635H8.9978H8.98926H8.98071H8.97217H8.96362H8.95508H8.94653H8.93799H8.92944H8.9209H8.91235H8.90381H8.89526H8.88672H8.87817H8.86963H8.86108H8.85254H8.84399H8.83545H8.8269H8.81836H8.80981H8.80127H8.79272H8.78418H8.77563H8.76709H8.75854H8.75H8.74145H8.73291H8.72436H8.71582H8.70727H8.69873H8.69018H8.68164H8.67309H8.66455H8.656H8.64746H8.63891H8.63037H8.62182H8.61328H8.60473H8.59619H8.58764H8.5791H8.57055H8.56201H8.55346H8.54492H8.53637H8.52783H8.51928H8.51074H8.50219H8.49365H8.48511H8.47656H8.46802H8.45947H8.45093H8.44238H8.43384H8.42529H8.41675H8.4082H8.39966H8.39111H8.38257H8.37402H8.36548H8.35693H8.34839H8.33984H8.3313H8.32275H8.31421H8.30566H8.29712H8.28857H8.28003H8.27148H8.26294H8.25439H8.24585H8.2373H8.22876H8.22021H8.21167H8.20312H8.19458H8.18603H8.17749H8.16894H8.1604H8.15185H8.14331H8.13476H8.12622H8.11767H8.10913H8.10058H8.09204H8.0835H8.07495H8.06641H8.05786H8.04932H8.04077H8.03952C8.04413 2.61405 8.05976 2.47953 8.08642 2.34597Z" fill="#717171" stroke="#717171" stroke-width="0.5"/>
<path opacity="0.956" d="M7.87883 9.01611L7.85406 9.01534L7.82962 9.01946C7.54799 9.06684 7.33695 9.22913 7.22931 9.49419L7.20893 9.54437L7.21115 9.59849C7.29633 11.6788 7.41366 13.7582 7.56314 15.8367L7.56301 15.8367L7.56388 15.8449C7.57874 15.986 7.62702 16.1177 7.71673 16.229C7.80582 16.3395 7.92435 16.4157 8.05789 16.465L8.06979 16.4694L8.08207 16.4726C8.2816 16.5241 8.48244 16.5273 8.66389 16.4465C8.84829 16.3644 8.97534 16.2123 9.05694 16.0269L9.08063 15.973L9.07784 15.9143C8.98221 13.8998 8.86524 11.8857 8.72696 9.87193C8.73642 9.63827 8.68154 9.41615 8.518 9.25173C8.35442 9.08727 8.12447 9.02372 7.87883 9.01611Z" fill="#717171" stroke="#717171" stroke-width="0.5"/>
<path opacity="0.956" d="M11.9448 9.01624L11.9061 9.01451L11.8686 9.02458C11.6708 9.07781 11.4968 9.17493 11.3789 9.33464C11.2636 9.49094 11.2232 9.67838 11.2339 9.87455C11.1129 11.8011 10.9897 13.7274 10.8642 15.6537C10.8317 15.9572 10.9529 16.2131 11.1987 16.3954L11.2304 16.419L11.2678 16.4316C11.5099 16.5133 11.7562 16.5356 11.972 16.4342C12.1939 16.3301 12.3225 16.1247 12.3892 15.886L12.3963 15.8608L12.3979 15.8346C12.5229 13.875 12.6464 11.9152 12.7684 9.95536C12.8053 9.70932 12.7742 9.46617 12.6107 9.28133C12.4486 9.09803 12.2046 9.02787 11.9448 9.01624Z" fill="#717171" stroke="#717171" stroke-width="0.5"/>
</g>
<defs>
<clipPath id="clip0_77_7229">
<rect width="20" height="18.3333" fill="white" transform="translate(0 0.833374)"/>
</clipPath>
</defs>
</svg>
