<svg width="20" height="20" viewBox="0 0 20 20" fill="none" xmlns="http://www.w3.org/2000/svg">
<path opacity="0.97" fill-rule="evenodd" clip-rule="evenodd" d="M5.48828 1.62109C7.5977 1.61458 9.70707 1.62109 11.8164 1.64063C12.3576 1.81762 12.5725 2.18871 12.4609 2.75391C12.3429 3.05436 12.128 3.24316 11.8164 3.32031C9.69403 3.33333 7.5716 3.34636 5.44922 3.35938C4.49844 3.54185 3.84088 4.08223 3.47656 4.98047C3.42526 5.13359 3.3862 5.28984 3.35938 5.44922C3.33333 8.47004 3.33333 11.4909 3.35938 14.5117C3.54185 15.4625 4.08223 16.1201 4.98047 16.4844C5.13359 16.5357 5.28984 16.5747 5.44922 16.6016C8.47004 16.6276 11.4909 16.6276 14.5117 16.6016C15.4625 16.4191 16.1201 15.8787 16.4844 14.9805C16.5419 14.8155 16.5809 14.6462 16.6016 14.4727C16.6146 12.3633 16.6276 10.2539 16.6406 8.14453C16.8176 7.60332 17.1887 7.38848 17.7539 7.5C18.0544 7.61809 18.2432 7.83293 18.3203 8.14453C18.3579 10.372 18.3449 12.5985 18.2813 14.8242C17.9908 16.3644 17.125 17.4386 15.6836 18.0469C15.2923 18.1935 14.8887 18.2846 14.4727 18.3203C11.4779 18.3464 8.48309 18.3464 5.48828 18.3203C3.78623 18.1281 2.59483 17.2492 1.91406 15.6836C1.76742 15.2923 1.67628 14.8887 1.64063 14.4727C1.61458 11.4779 1.61458 8.48309 1.64063 5.48828C1.83398 3.78535 2.71289 2.59394 4.27734 1.91406C4.67598 1.77204 5.07961 1.67439 5.48828 1.62109Z" fill="#717171"/>
<path opacity="0.987" fill-rule="evenodd" clip-rule="evenodd" d="M16.1133 1.62105C17.1474 1.58229 17.857 2.03802 18.2422 2.98824C18.4248 3.65041 18.3207 4.26238 17.9297 4.82418C15.9571 6.79683 13.9844 8.76949 12.0117 10.7421C11.131 11.0535 10.2456 11.353 9.35549 11.6406C8.61983 11.6862 8.27475 11.3411 8.32033 10.6054C8.59655 9.71176 8.896 8.82633 9.21877 7.94918C11.1914 5.97652 13.1641 4.00387 15.1367 2.03121C15.4349 1.82139 15.7604 1.68467 16.1133 1.62105Z" fill="#717171"/>
</svg>
