<svg width="20" height="20" viewBox="0 0 20 20" fill="none" xmlns="http://www.w3.org/2000/svg">
<path opacity="0.97" fill-rule="evenodd" clip-rule="evenodd" d="M5.48828 1.62109C7.03781 1.61458 8.58731 1.62109 10.1367 1.64063C10.7109 1.81847 10.9257 2.20259 10.7813 2.79297C10.6486 3.06877 10.4338 3.24456 10.1367 3.32031C8.57422 3.33333 7.01172 3.34636 5.44922 3.35938C4.65067 3.50698 4.0452 3.93016 3.63281 4.62891C3.49486 4.88652 3.40371 5.15996 3.35938 5.44922C3.33333 8.47004 3.33333 11.4909 3.35938 14.5117C3.54185 15.4625 4.08223 16.1201 4.98047 16.4844C5.13359 16.5357 5.28984 16.5747 5.44922 16.6016C8.47004 16.6276 11.4909 16.6276 14.5117 16.6016C15.3745 16.4338 16.006 15.9586 16.4063 15.1758C16.5079 14.9518 16.5729 14.7174 16.6016 14.4727C16.6029 13.4291 16.629 12.3874 16.6797 11.3477C16.947 10.8201 17.3572 10.6703 17.9102 10.8984C18.1388 11.0362 18.2755 11.238 18.3203 11.5039C18.3563 12.6117 18.3432 13.7184 18.2813 14.8242C17.9908 16.3644 17.125 17.4386 15.6836 18.0469C15.2923 18.1935 14.8887 18.2846 14.4727 18.3203C11.4779 18.3464 8.48309 18.3464 5.48828 18.3203C3.78623 18.1281 2.59483 17.2492 1.91406 15.6836C1.76742 15.2923 1.67628 14.8887 1.64063 14.4727C1.61458 11.4779 1.61458 8.48309 1.64063 5.48828C1.83398 3.78535 2.71289 2.59394 4.27734 1.91406C4.67598 1.77204 5.07961 1.67439 5.48828 1.62109Z" fill="#717171"/>
<path opacity="0.987" fill-rule="evenodd" clip-rule="evenodd" d="M13.0273 2.48052C13.3379 2.43811 13.6243 2.4967 13.8867 2.6563C15.3232 3.79459 16.749 4.94692 18.164 6.11333C18.3956 6.46704 18.3956 6.8186 18.164 7.16802C16.7122 8.61985 15.2604 10.0716 13.8086 11.5235C13.2826 11.7863 12.8594 11.6756 12.539 11.1915C12.482 10.491 12.4625 9.7879 12.4804 9.08208C11.1608 8.97493 9.9108 9.21583 8.73045 9.80473C8.07771 10.197 7.58943 10.7374 7.2656 11.4258C6.78748 11.7694 6.34474 11.7304 5.93748 11.3086C5.80256 10.9852 5.74396 10.6466 5.7617 10.293C5.98076 7.02052 7.72556 5.23016 10.9961 4.92192C11.4914 4.87888 11.9862 4.87239 12.4804 4.90239C12.4739 4.29028 12.4804 3.67829 12.5 3.06645C12.5884 2.7894 12.7642 2.59409 13.0273 2.48052Z" fill="#717171"/>
</svg>
