<svg width="24" height="18" viewBox="0 0 24 18" fill="none" xmlns="http://www.w3.org/2000/svg">
<path d="M7.2 8.57143C9.52125 8.57143 11.4 6.65434 11.4 4.28571C11.4 1.91709 9.52125 0 7.2 0C4.87875 0 3 1.91709 3 4.28571C3 6.65434 4.87875 8.57143 7.2 8.57143ZM10.08 9.79592H9.76875C8.98875 10.1786 8.1225 10.4082 7.2 10.4082C6.2775 10.4082 5.415 10.1786 4.63125 9.79592H4.32C1.935 9.79592 0 11.7704 0 14.2041V15.3061C0 16.3202 0.80625 17.1429 1.8 17.1429H12.6C13.5938 17.1429 14.4 16.3202 14.4 15.3061V14.2041C14.4 11.7704 12.465 9.79592 10.08 9.79592ZM18 8.57143C19.9875 8.57143 21.6 6.92602 21.6 4.89796C21.6 2.8699 19.9875 1.22449 18 1.22449C16.0125 1.22449 14.4 2.8699 14.4 4.89796C14.4 6.92602 16.0125 8.57143 18 8.57143ZM19.8 9.79592H19.6575C19.1363 9.97959 18.585 10.102 18 10.102C17.415 10.102 16.8638 9.97959 16.3425 9.79592H16.2C15.435 9.79592 14.73 10.0217 14.1112 10.3852C15.0262 11.3916 15.6 12.727 15.6 14.2041V15.6735C15.6 15.7577 15.5813 15.838 15.5775 15.9184H22.2C23.1938 15.9184 24 15.0957 24 14.0816C24 11.713 22.1213 9.79592 19.8 9.79592Z" fill="#4D82BE"/>
</svg>
