<svg width="17" height="21" viewBox="0 0 17 21" fill="none" xmlns="http://www.w3.org/2000/svg">
<path fill-rule="evenodd" clip-rule="evenodd" d="M3 0.142822C2.46957 0.142822 1.96086 0.353536 1.58579 0.728609C1.21071 1.10368 1 1.61239 1 2.14282V3.14282C0.734784 3.14282 0.48043 3.24818 0.292893 3.43572C0.105357 3.62325 0 3.87761 0 4.14282C0 4.40804 0.105357 4.66239 0.292893 4.84993C0.48043 5.03747 0.734784 5.14282 1 5.14282V7.14282C0.734784 7.14282 0.48043 7.24818 0.292893 7.43572C0.105357 7.62325 0 7.87761 0 8.14282C0 8.40804 0.105357 8.66239 0.292893 8.84993C0.48043 9.03747 0.734784 9.14282 1 9.14282V11.1428C0.734784 11.1428 0.48043 11.2482 0.292893 11.4357C0.105357 11.6233 0 11.8776 0 12.1428C0 12.408 0.105357 12.6624 0.292893 12.8499C0.48043 13.0375 0.734784 13.1428 1 13.1428V15.1428C0.734784 15.1428 0.48043 15.2482 0.292893 15.4357C0.105357 15.6233 0 15.8776 0 16.1428C0 16.408 0.105357 16.6624 0.292893 16.8499C0.48043 17.0375 0.734784 17.1428 1 17.1428V18.1428C1 18.6733 1.21071 19.182 1.58579 19.557C1.96086 19.9321 2.46957 20.1428 3 20.1428H15C15.5304 20.1428 16.0391 19.9321 16.4142 19.557C16.7893 19.182 17 18.6733 17 18.1428V2.14282C17 1.61239 16.7893 1.10368 16.4142 0.728609C16.0391 0.353536 15.5304 0.142822 15 0.142822H3ZM5.5 4.14282C5.10218 4.14282 4.72064 4.30086 4.43934 4.58216C4.15804 4.86347 4 5.245 4 5.64282V6.64282C4 7.04065 4.15804 7.42218 4.43934 7.70348C4.72064 7.98479 5.10218 8.14282 5.5 8.14282H12.5C12.8978 8.14282 13.2794 7.98479 13.5607 7.70348C13.842 7.42218 14 7.04065 14 6.64282V5.64282C14 5.245 13.842 4.86347 13.5607 4.58216C13.2794 4.30086 12.8978 4.14282 12.5 4.14282H5.5Z" fill="#4D82BE"/>
</svg>
