<svg width="44" height="44" viewBox="0 0 44 44" fill="none" xmlns="http://www.w3.org/2000/svg">
<g clip-path="url(#clip0_107_2056)">
<path opacity="0.998" fill-rule="evenodd" clip-rule="evenodd" d="M19.3341 0.491757C19.3996 0.522293 19.4686 0.548175 19.5412 0.569404C19.4974 0.650058 19.5319 0.701823 19.6447 0.724698C19.1738 1.79588 19.1652 2.87432 19.6188 3.95999C19.8308 4.33272 20.0551 4.69507 20.2918 5.04705C20.4919 5.26457 20.7076 5.46298 20.9388 5.64235C20.9152 5.66378 20.8979 5.68966 20.8871 5.71999C21.2179 6.0752 21.6148 6.34267 22.0776 6.52235C23.7072 7.22852 25.3809 7.41829 27.0988 7.09176C27.806 6.89779 28.4358 6.56132 28.9882 6.08235C29.1076 5.87705 29.2456 5.68728 29.4023 5.51293C29.4282 5.53017 29.4541 5.54746 29.48 5.5647C29.3247 6.16802 29.3765 6.18525 29.6353 5.61646C29.7537 5.57945 29.8659 5.56216 29.9718 5.5647C30.0098 5.44196 30.0529 5.32115 30.1012 5.20235C30.0775 5.16106 30.043 5.1438 29.9976 5.15058C30.0468 5.11681 30.1071 5.09956 30.1788 5.09882C30.3811 5.13458 30.5795 5.18635 30.7741 5.25411C30.8982 5.20809 31.0018 5.13044 31.0847 5.02117C31.2248 4.94106 31.3715 4.88067 31.5247 4.83999C31.6903 4.88452 31.8456 4.95353 31.9906 5.04705C32.1205 4.98574 32.2499 4.92535 32.3788 4.86587C32.6595 4.8729 32.9355 4.86427 33.2071 4.83999C33.4131 4.92436 33.6201 5.01063 33.8282 5.09882C34.0322 5.05848 34.2306 5.04123 34.4235 5.04705C34.5275 5.0604 34.6225 5.09491 34.7082 5.15058C34.7525 5.30971 34.8216 5.45641 34.9153 5.59058C34.8017 5.73009 34.6982 5.87674 34.6047 6.03058C34.6565 6.06511 34.7082 6.09958 34.76 6.13411C34.626 6.35018 34.5053 6.57447 34.3976 6.80705C34.4396 6.84411 34.4742 6.88729 34.5012 6.93646C34.1977 7.63995 33.9561 8.36465 33.7765 9.11058C33.811 9.17958 33.8455 9.24864 33.88 9.31764C33.6808 10.1784 33.6032 11.0497 33.6471 11.9318C33.7588 11.8046 33.8019 11.8391 33.7765 12.0353C33.7247 12.0353 33.6729 12.0353 33.6212 12.0353C33.6101 12.8343 33.6619 13.628 33.7765 14.4165C33.7311 14.4553 33.6794 14.4812 33.6212 14.4941C33.6839 14.7906 33.7183 15.0926 33.7247 15.4C33.6536 15.3919 33.5846 15.4005 33.5176 15.4259C33.5841 15.7394 33.6186 16.0586 33.6212 16.3835C33.5107 16.3652 33.4417 16.4084 33.4141 16.5129C33.4598 16.6911 33.4771 16.8722 33.4659 17.0565C33.3969 17.0565 33.3278 17.0565 33.2588 17.0565C33.2439 17.2431 33.2611 17.4243 33.3106 17.6C33.2396 17.6208 33.1706 17.6467 33.1035 17.6776C33.0662 17.7908 33.0317 17.903 33 18.0141C32.6816 18.2549 32.371 18.5051 32.0682 18.7647C32.0337 18.8682 31.9992 18.9718 31.9647 19.0753C31.7771 19.2369 31.5959 19.4095 31.4212 19.5929C31.4039 19.7482 31.3866 19.9035 31.3694 20.0588C30.5092 21.1413 29.9398 22.3664 29.6612 23.7341C29.5144 24.3992 29.4281 25.0721 29.4023 25.7529C29.3161 25.8565 29.2298 25.96 29.1435 26.0635C29.1332 26.3745 29.1504 26.6851 29.1953 26.9953C29.3705 27.3392 29.3101 27.6411 29.0141 27.9012C29.12 28.126 29.2063 28.359 29.2729 28.6C29.2181 28.7329 29.1318 28.8451 29.0141 28.9365C29.0552 28.9926 29.0897 29.053 29.1176 29.1176C28.9383 29.4888 28.7744 29.8684 28.6259 30.2565C28.5907 30.463 28.5563 30.67 28.5223 30.8776C28.3023 31.0092 28.0866 31.1473 27.8753 31.2918C27.9271 31.3608 27.9788 31.4298 28.0306 31.4988C27.8123 31.579 27.6915 31.7343 27.6682 31.9647C27.3979 32.1603 27.1045 32.3156 26.7882 32.4306C26.7174 32.5412 26.6657 32.662 26.6329 32.7929C26.1946 32.9965 25.746 33.169 25.2871 33.3106C25.2765 33.4084 25.311 33.4861 25.3906 33.5435C24.8098 33.809 24.2058 34.0074 23.5788 34.1388C23.5936 34.2314 23.5763 34.3177 23.5271 34.3976C23.3828 34.4439 23.2447 34.5043 23.1129 34.5788C20.5003 35.2494 17.8776 35.8792 15.2447 36.4682C15.1617 36.4455 15.084 36.411 15.0118 36.3647C14.1641 36.653 13.3273 36.9723 12.5012 37.3223C12.4114 37.356 12.3251 37.3475 12.2423 37.2965C11.7696 37.5761 11.3038 37.8694 10.8447 38.1765C10.7801 38.1485 10.7197 38.114 10.6635 38.0729C10.3961 38.2713 10.1631 38.5043 9.9647 38.7718C9.85822 38.7875 9.75469 38.7875 9.65411 38.7718C9.51606 38.9443 9.37805 39.1169 9.24 39.2894C9.13647 39.2894 9.03294 39.2894 8.92941 39.2894C8.79958 39.4287 8.69605 39.5839 8.61882 39.7553C8.52792 39.7625 8.44168 39.7367 8.36 39.6776C8.27867 39.7195 8.19238 39.7368 8.10117 39.7294C7.90271 39.4928 7.66977 39.2858 7.40235 39.1082C7.32061 38.9274 7.22568 38.7548 7.11764 38.5906C6.69581 38.4269 6.47146 38.1163 6.4447 37.6588C6.76922 37.8189 7.0884 37.9914 7.40235 38.1765C7.72246 37.839 8.02446 37.4853 8.30823 37.1153C8.60013 37.2047 8.88484 37.3341 9.16235 37.5035C9.88188 36.8878 10.6583 36.3529 11.4918 35.8988C11.7012 36.0603 11.9341 36.1379 12.1906 36.1318C12.9871 35.7973 13.7981 35.5039 14.6235 35.2518C17.0997 34.6443 19.5844 34.0662 22.0776 33.5176C22.5548 33.3552 23.038 33.2085 23.5271 33.0776C23.5415 32.87 23.576 32.6543 23.6306 32.4306C23.9157 32.3125 24.2091 32.2262 24.5106 32.1718C24.4456 31.9698 24.3593 31.78 24.2518 31.6023C24.2181 31.5022 24.2009 31.3987 24.2 31.2918C25.341 30.9885 26.3935 30.5054 27.3576 29.8423C26.9532 29.0365 26.772 28.1911 26.8141 27.3059C26.8693 27.2701 26.9298 27.2442 26.9953 27.2282C27.1765 26.978 27.3922 26.7623 27.6423 26.5812C27.6531 26.2679 27.679 25.9574 27.72 25.6494C27.4386 25.6045 27.1798 25.6045 26.9435 25.6494C26.7308 25.5555 26.6791 25.4002 26.7882 25.1835C26.853 25.1058 26.9048 25.0195 26.9435 24.9247C27.3236 24.4323 27.6945 23.9319 28.0565 23.4235C28.3072 22.3346 28.6954 21.2993 29.2212 20.3176C29.1634 20.3227 29.1116 20.2968 29.0659 20.24C29.1345 20.1201 29.2036 19.9992 29.2729 19.8776C29.0324 19.8774 28.7908 19.886 28.5482 19.9035C28.6653 19.6437 28.8033 19.3935 28.9623 19.1529C30.0368 18.8274 30.6752 18.094 30.8776 16.9529C30.9845 16.924 31.0707 16.8636 31.1365 16.7718C31.0649 16.4383 31.039 16.1018 31.0588 15.7623C31.2704 15.6436 31.4861 15.5314 31.7059 15.4259C31.6545 15.18 31.6201 14.9299 31.6023 14.6753C31.6868 14.6921 31.7386 14.7439 31.7576 14.8306C31.9176 15.2339 32.0384 15.648 32.12 16.0729C32.1941 16.0482 32.2631 16.0138 32.3271 15.9694C32.256 15.4937 32.187 15.0192 32.12 14.5459C32.2925 14.5286 32.4651 14.5113 32.6376 14.4941C32.5485 13.9044 32.4881 13.3091 32.4565 12.7082C32.3012 12.7945 32.1459 12.8808 31.9906 12.9671C31.9703 12.8279 31.9444 12.6899 31.9129 12.5529C31.9185 12.5042 31.9358 12.4611 31.9647 12.4235C32.1164 12.3922 32.263 12.349 32.4047 12.2941C32.4163 11.1648 32.5112 10.0432 32.6894 8.9294C32.5332 8.91884 32.3779 8.90161 32.2235 8.87764C32.2588 8.68626 32.2847 8.49644 32.3012 8.30823C32.1737 8.48759 32.027 8.65148 31.8612 8.79999C31.6886 8.83452 31.5161 8.83452 31.3435 8.79999C31.4587 8.34493 31.5536 7.88764 31.6282 7.42823C31.2119 8.01172 30.6856 8.46896 30.0494 8.79999C29.6357 8.82588 29.2215 8.83447 28.8071 8.82588C28.8184 8.76505 28.8012 8.71329 28.7553 8.67058C28.6026 8.72172 28.4473 8.76484 28.2894 8.79999C27.8476 8.81081 27.4076 8.83669 26.9694 8.87764C26.9294 8.87013 26.8949 8.8529 26.8659 8.82588C26.5259 8.86123 26.1981 8.93028 25.8823 9.03293C24.446 8.95456 23.0225 8.65262 21.6118 8.12705C21.1045 7.84747 20.6042 7.55412 20.1106 7.24705C20.24 7.18664 20.3349 7.09176 20.3953 6.96235C20.4616 7.02172 20.4788 7.00443 20.4471 6.91058C18.741 5.67258 17.8869 3.99885 17.8847 1.8894C17.9348 1.49208 18.0211 1.10384 18.1435 0.724698C18.0785 0.703117 18.044 0.659982 18.04 0.595286C18.3437 0.572877 18.6112 0.659153 18.8423 0.85411C18.949 0.734725 19.0612 0.622566 19.1788 0.517639C19.2279 0.492648 19.2797 0.484021 19.3341 0.491757Z" fill="#E3EBF7"/>
<path opacity="0.996" fill-rule="evenodd" clip-rule="evenodd" d="M19.3341 0.491762C19.6017 0.447268 19.8347 0.533542 20.0329 0.750586C20.0797 0.688396 20.14 0.645255 20.2141 0.621174C20.4064 0.604635 20.5962 0.578753 20.7835 0.543527C20.7778 0.575487 20.7605 0.601369 20.7317 0.621174C20.818 0.638427 20.9043 0.655686 20.9906 0.672939C20.9216 0.70745 20.9216 0.741957 20.9906 0.776468C21.065 0.7878 21.134 0.813682 21.1976 0.854115C21.0256 1.08598 20.8876 1.33618 20.7835 1.6047C20.8066 1.69404 20.8497 1.77169 20.9129 1.83764C20.8371 2.60979 21.0097 3.31724 21.4306 3.96C21.4524 4.10161 21.4524 4.23965 21.4306 4.37412C22.7369 5.52246 24.2295 5.89346 25.9082 5.48706C26.1424 5.42059 26.3667 5.33435 26.5812 5.22823C26.7495 5.08472 26.9221 4.9553 27.0988 4.84C27.1213 5.05439 27.1989 5.24418 27.3317 5.40941C27.341 5.56745 27.3669 5.72274 27.4094 5.87529C27.6921 5.86986 27.9337 5.77497 28.1341 5.59059C28.2894 5.57335 28.4447 5.55606 28.6 5.53882C28.6568 5.39569 28.7603 5.30945 28.9106 5.28C29.1791 5.22539 29.4293 5.26851 29.6612 5.40941C29.7212 5.25448 29.8333 5.16818 29.9976 5.15059C30.043 5.14381 30.0775 5.16107 30.1012 5.20235C30.0529 5.32115 30.0098 5.44197 29.9717 5.5647C29.8658 5.56217 29.7537 5.57946 29.6353 5.61647C29.3765 6.18526 29.3247 6.16802 29.48 5.5647C29.4541 5.54747 29.4282 5.53018 29.4023 5.51294C29.2456 5.68728 29.1076 5.87705 28.9882 6.08235C28.4358 6.56133 27.806 6.8978 27.0988 7.09176C25.3809 7.41829 23.7072 7.22852 22.0776 6.52235C21.6147 6.34268 21.2179 6.07521 20.887 5.72C20.8979 5.68966 20.9151 5.66378 20.9388 5.64235C20.7076 5.46299 20.4919 5.26457 20.2917 5.04706C20.0551 4.69508 19.8308 4.33272 19.6188 3.96C19.1651 2.87432 19.1738 1.79589 19.6447 0.724704C19.5319 0.701829 19.4974 0.650064 19.5412 0.569409C19.4686 0.548181 19.3996 0.522298 19.3341 0.491762Z" fill="#DEE9F8"/>
<path fill-rule="evenodd" clip-rule="evenodd" d="M18.0399 0.595276C18.0439 0.659971 18.0784 0.703107 18.1435 0.724688C18.021 1.10383 17.9347 1.49207 17.8846 1.88939C17.8868 3.99884 18.7409 5.67257 20.447 6.91057C20.4788 7.00442 20.4615 7.02171 20.3952 6.96234C20.3348 7.09175 20.2399 7.18663 20.1105 7.24704C20.6041 7.55411 21.1044 7.84746 21.6117 8.12704C23.0224 8.65261 24.4459 8.95455 25.8823 9.03292C26.198 8.93027 26.5259 8.86122 26.8658 8.82586C26.8948 8.85289 26.9294 8.87012 26.9693 8.87763C27.4075 8.83668 27.8475 8.8108 28.2893 8.79998C28.4472 8.76483 28.6025 8.72171 28.7552 8.67057C28.8011 8.71328 28.8183 8.76504 28.807 8.82586C29.2215 8.83446 29.6356 8.82586 30.0493 8.79998C30.6856 8.46895 31.2119 8.01171 31.6282 7.42822C31.5535 7.88763 31.4586 8.34492 31.3435 8.79998C31.516 8.83451 31.6886 8.83451 31.8611 8.79998C32.027 8.65147 32.1736 8.48758 32.3011 8.30822C32.2846 8.49643 32.2587 8.68626 32.2235 8.87763C32.3778 8.9016 32.5331 8.91883 32.6893 8.92939C32.5112 10.0432 32.4163 11.1647 32.4046 12.2941C32.263 12.349 32.1163 12.3921 31.9646 12.4235C31.9357 12.461 31.9185 12.5042 31.9129 12.5529C31.9443 12.6898 31.9702 12.8279 31.9905 12.967C32.1458 12.8807 32.3011 12.7945 32.4564 12.7082C32.488 13.3091 32.5484 13.9044 32.6376 14.4941C32.465 14.5113 32.2925 14.5286 32.1199 14.5459C32.187 15.0191 32.256 15.4937 32.327 15.9694C32.263 16.0138 32.194 16.0482 32.1199 16.0729C32.0383 15.648 31.9176 15.2339 31.7576 14.8306C31.7385 14.7439 31.6868 14.6921 31.6023 14.6753C31.6023 14.6407 31.6023 14.6063 31.6023 14.5717C31.7424 14.5679 31.8804 14.5506 32.0164 14.52C31.9762 14.0172 31.9158 13.5168 31.8352 13.0188C31.7134 13.1357 31.5667 13.2048 31.3952 13.2259C31.3877 13.0178 31.3704 12.8108 31.3435 12.6047C31.5158 12.5789 31.6797 12.5271 31.8352 12.4494C31.8335 11.5698 31.8507 10.6898 31.887 9.80939C31.7403 9.93016 31.5936 10.051 31.447 10.1717C31.4297 10.12 31.4125 10.0682 31.3952 10.0165C31.4558 9.63572 31.4989 9.25613 31.5246 8.87763C31.3133 9.10431 31.0717 9.29413 30.7999 9.44704C30.8008 9.24128 30.8095 9.03422 30.8258 8.82586C30.6086 8.78704 30.436 8.85604 30.3082 9.03292C29.8213 9.31106 29.3036 9.50088 28.7552 9.60233C28.7637 9.46324 28.7551 9.32519 28.7293 9.18822C27.4119 9.52831 26.0833 9.58008 24.7435 9.34351C24.6207 9.48359 24.4827 9.60435 24.3293 9.70586C22.9502 9.48421 21.6474 9.04421 20.4211 8.38586C20.1576 8.25128 19.916 8.08734 19.6964 7.8941C19.8391 7.8119 19.8822 7.69113 19.8258 7.53175C18.2735 6.38267 17.3504 4.84701 17.0564 2.92469C17.1599 2.92469 17.2635 2.92469 17.367 2.92469C17.3195 2.37775 17.3368 1.82559 17.4187 1.26822C17.4279 1.14047 17.3761 1.05419 17.2635 1.00939C17.4939 0.833704 17.7527 0.695663 18.0399 0.595276Z" fill="#E6EEF8"/>
<path opacity="0.993" fill-rule="evenodd" clip-rule="evenodd" d="M20.7835 0.543511C21.0256 0.530917 21.2413 0.599934 21.4305 0.75057C21.6034 0.659826 21.7845 0.590808 21.974 0.543511C22.143 0.568053 22.2897 0.637076 22.414 0.75057C22.5524 0.994024 22.6904 1.23559 22.8282 1.47528C23.0792 1.28479 23.3639 1.22439 23.6823 1.2941C23.9062 1.40635 24.0443 1.58752 24.0964 1.83763C24.1999 1.90665 24.2862 1.99292 24.3552 2.09645C24.4775 2.13639 24.5983 2.17952 24.7176 2.22586C24.862 2.41978 25.0001 2.61821 25.1317 2.82116C25.5361 2.83291 25.8121 3.02271 25.9599 3.39057C26.4287 3.609 26.7134 3.97135 26.814 4.47763C26.9398 4.57713 27.0347 4.69791 27.0987 4.83998C26.922 4.95529 26.7495 5.0847 26.5811 5.22822C26.3666 5.33433 26.1423 5.42057 25.9082 5.48704C24.2294 5.89345 22.7368 5.52245 21.4305 4.3741C21.4524 4.23963 21.4524 4.10159 21.4305 3.95998C21.0096 3.31722 20.8371 2.60977 20.9129 1.83763C20.8497 1.77168 20.8065 1.69403 20.7835 1.60469C20.8876 1.33616 21.0256 1.08596 21.1976 0.854099C21.134 0.813666 21.065 0.787783 20.9905 0.776452C20.9215 0.741941 20.9215 0.707434 20.9905 0.672923C20.9042 0.655669 20.818 0.638411 20.7317 0.621158C20.7605 0.601353 20.7777 0.57547 20.7835 0.543511Z" fill="#D9E6F7"/>
<path opacity="0.999" fill-rule="evenodd" clip-rule="evenodd" d="M17.2635 1.0094C17.3762 1.0542 17.428 1.14047 17.4188 1.26822C17.3368 1.82559 17.3195 2.37775 17.3671 2.92469C17.2635 2.92469 17.16 2.92469 17.0565 2.92469C17.3505 4.84701 18.2736 6.38268 19.8259 7.53175C19.8823 7.69114 19.8392 7.8119 19.6965 7.8941C19.9161 8.08734 20.1576 8.25128 20.4212 8.38587C21.6475 9.04421 22.9502 9.48421 24.3294 9.70587C24.4828 9.60436 24.6208 9.48359 24.7435 9.34352C26.0834 9.58008 27.412 9.52832 28.7294 9.18822C28.7551 9.32519 28.7638 9.46325 28.7553 9.60234C29.3037 9.50088 29.8213 9.31106 30.3082 9.03293C30.4361 8.85605 30.6086 8.78705 30.8259 8.82587C30.8095 9.03422 30.8009 9.24128 30.8 9.44705C31.0718 9.29413 31.3133 9.10431 31.5247 8.87763C31.499 9.25614 31.4559 9.63573 31.3953 10.0165C31.4125 10.0682 31.4298 10.12 31.4471 10.1718C31.5937 10.051 31.7404 9.93017 31.8871 9.8094C31.8508 10.6898 31.8335 11.5698 31.8353 12.4494C31.6797 12.5271 31.5159 12.5789 31.3435 12.6047C31.3705 12.8108 31.3877 13.0178 31.3953 13.2259C31.5668 13.2048 31.7134 13.1357 31.8353 13.0188C31.9158 13.5168 31.9762 14.0172 32.0165 14.52C31.8805 14.5506 31.7424 14.5679 31.6024 14.5718C31.5161 14.5718 31.4298 14.5718 31.3435 14.5718C31.3697 14.7447 31.3783 14.9172 31.3694 15.0894C31.2906 14.9619 31.213 14.8066 31.1365 14.6235C30.9706 14.5871 30.8067 14.5526 30.6447 14.52C30.6275 14.5372 30.6102 14.5545 30.5929 14.5718C30.4149 14.2039 30.1475 13.9192 29.7906 13.7176C29.9474 13.6897 30.1027 13.6552 30.2565 13.6141C30.1398 13.5818 30.0535 13.5128 29.9976 13.407C29.8549 13.4382 29.7082 13.4813 29.5576 13.5365C29.3382 13.4549 29.1053 13.3686 28.8588 13.2776C28.8724 13.3541 28.8551 13.4231 28.8071 13.4847C27.9974 13.2518 27.2123 13.3381 26.4518 13.7435C26.2823 13.6567 26.1356 13.6825 26.0118 13.8212C26.0917 13.8362 26.1607 13.8707 26.2188 13.9247C25.7276 14.2517 25.3826 14.6917 25.1835 15.2447C24.7366 15.1993 24.288 15.182 23.8376 15.1929C23.7824 15.1446 23.7134 15.1273 23.6306 15.1412C23.5732 15.1003 23.5042 15.0744 23.4235 15.0635C23.4523 15.0437 23.4695 15.0178 23.4753 14.9859C24.0135 14.3267 24.6175 13.7401 25.2871 13.2259C25.3337 13.185 25.3682 13.1332 25.3906 13.0706C25.4243 13.0215 25.4416 12.9611 25.4424 12.8894C25.4368 12.8024 25.4022 12.742 25.3388 12.7082C25.3601 12.5802 25.3084 12.5112 25.1835 12.5012C24.9899 12.3887 24.7829 12.3714 24.5624 12.4494C24.2173 12.6912 23.9067 12.9673 23.6306 13.2776C23.4383 13.4385 23.283 13.6282 23.1647 13.847C23.0278 13.8804 22.9415 13.9667 22.9059 14.1059C22.7506 14.2266 22.6125 14.3647 22.4918 14.52C22.3882 14.589 22.3019 14.6753 22.2329 14.7788C22.2329 14.796 22.2329 14.8133 22.2329 14.8306C22.0988 14.8696 22.0039 14.9559 21.9482 15.0894C21.9066 15.2548 21.9152 15.4101 21.9741 15.5553C22.0064 15.672 22.0754 15.7583 22.1812 15.8141C22.1767 15.8657 22.194 15.9088 22.2329 15.9435C22.4034 15.9863 22.5759 16.0122 22.7506 16.0212C22.9061 16.1143 23.0787 16.1488 23.2682 16.1247C23.274 16.1566 23.2912 16.1825 23.32 16.2023C23.5263 16.2282 23.7334 16.2368 23.9412 16.2282C24.0355 16.2454 24.1218 16.2799 24.2 16.3318C24.4487 16.3828 24.7076 16.4001 24.9765 16.3835C24.9704 16.6672 25.0135 16.9433 25.1059 17.2118C25.275 17.5203 25.4476 17.8309 25.6235 18.1435C25.6118 18.2509 25.6204 18.3544 25.6494 18.4541C25.9579 18.7715 26.3029 19.0389 26.6847 19.2565C26.7338 19.2884 26.7769 19.2798 26.8141 19.2306C26.8959 19.3103 26.9908 19.3708 27.0988 19.4118C27.4782 19.4893 27.8577 19.5669 28.2376 19.6447C28.2031 19.7137 28.1686 19.7827 28.1341 19.8518C28.2502 19.9022 28.371 19.9195 28.4965 19.9035C27.747 21.5034 27.2293 23.1771 26.9435 24.9247C26.9048 25.0195 26.853 25.1058 26.7882 25.1835C26.5348 25.5326 26.2674 25.8777 25.9859 26.2188C25.9564 26.7731 25.9564 27.3252 25.9859 27.8753C25.712 28.1189 25.3928 28.257 25.0282 28.2894C25.0282 28.3412 25.0282 28.3929 25.0282 28.4447C24.9268 28.4777 24.8319 28.4777 24.7435 28.4447C24.6434 28.544 24.6521 28.6217 24.7694 28.6776C25.2164 28.7259 25.6565 28.7 26.0894 28.6C26.2232 28.9927 26.3526 29.3896 26.4776 29.7906C25.9962 30.0286 25.5131 30.2615 25.0282 30.4894C24.6806 30.6139 24.3355 30.7433 23.9929 30.8776C24.0363 31.0333 24.1053 31.1713 24.2 31.2918C24.2009 31.3986 24.2181 31.5022 24.2518 31.6023C24.0935 31.6868 23.9209 31.7472 23.7341 31.7835C23.6563 31.9556 23.6045 32.1368 23.5788 32.327C23.4147 32.376 23.2594 32.445 23.1129 32.5341C21.8271 32.8664 20.5415 33.1942 19.2565 33.5176C17.8014 33.8018 16.352 34.1124 14.9082 34.4494C14.3726 34.6221 13.8377 34.7946 13.3035 34.967C13.1828 34.8118 13.0447 34.6737 12.8894 34.5529C12.2747 34.7955 11.6622 35.0457 11.0518 35.3035C10.6462 35.5667 10.2321 35.8169 9.80941 36.0541C9.54655 35.9184 9.29637 35.7631 9.05882 35.5882C8.61246 35.8881 8.20698 36.2332 7.84235 36.6235C7.33356 36.2742 6.81591 35.9377 6.28941 35.6141C6.17651 35.4364 6.02122 35.307 5.82353 35.2259C5.67942 35.3094 5.58448 35.4302 5.53882 35.5882C5.46371 35.6899 5.36883 35.7589 5.25412 35.7953C5.14517 35.4394 5.06753 35.0771 5.02118 34.7082C4.95639 34.6305 4.90463 34.5442 4.86588 34.4494C4.73719 33.946 4.66817 33.4283 4.65882 32.8965C4.36358 32.6135 4.26005 32.2684 4.34823 31.8612C4.38996 31.7087 4.45899 31.5707 4.55529 31.447C4.5898 31.3263 4.5898 31.2055 4.55529 31.0847C3.96653 30.7183 3.69045 30.1834 3.72706 29.48C3.49132 29.3445 3.28426 29.1719 3.10588 28.9623C2.88212 28.5407 2.68369 28.1093 2.51059 27.6682C2.59528 27.6036 2.65567 27.5173 2.69176 27.4094C2.97294 26.7164 3.21451 26.0089 3.41647 25.287C4.2844 24.799 5.02636 24.1605 5.64235 23.3718C5.88239 23.0277 6.12397 22.6827 6.36706 22.3365C6.90029 21.0969 7.5387 19.9235 8.28235 18.8165C8.72235 18.2125 9.16235 17.6086 9.60235 17.0047C9.58511 16.9875 9.56782 16.9702 9.55059 16.9529C8.07239 17.1905 6.60575 17.1301 5.15059 16.7718C4.20175 16.5044 3.339 16.073 2.56235 15.4776C2.30397 15.2896 2.0624 15.0912 1.83765 14.8823C1.91006 14.7461 2.00496 14.6253 2.12235 14.52C2.23076 14.2164 2.40332 13.9576 2.64 13.7435C2.62578 13.4789 2.71206 13.2546 2.89882 13.0706C2.91589 12.7497 3.04531 12.4909 3.28706 12.2941C3.42735 11.9613 3.65166 11.7025 3.96 11.5176C3.99552 11.3508 4.04728 11.1955 4.11529 11.0518C4.1625 11.1602 4.2229 11.2637 4.29647 11.3623C5.5015 12.6494 6.95956 13.0549 8.67059 12.5788C10.6842 12.1183 11.8316 10.8673 12.1129 8.82587C12.2032 7.68435 11.9012 6.6663 11.2071 5.77175C11.3929 5.58385 11.6173 5.46303 11.88 5.4094C11.9555 4.69128 12.1711 4.01834 12.5271 3.39058C12.7306 3.17232 12.9808 3.04291 13.2776 3.00234C13.5537 2.98509 13.8298 2.96783 14.1059 2.95058C14.1432 2.65175 14.264 2.39293 14.4682 2.17411C14.8017 2.02268 15.1468 1.9019 15.5035 1.81175C15.587 1.77447 15.6646 1.7831 15.7365 1.83763C15.8182 1.75785 15.9131 1.69747 16.0212 1.65646C16.2628 1.60469 16.5043 1.55293 16.7459 1.50116C16.8436 1.25675 17.0161 1.09283 17.2635 1.0094Z" fill="#EAF0F8"/>
<path opacity="0.998" fill-rule="evenodd" clip-rule="evenodd" d="M36.7787 5.09881C37.659 5.06452 38.3492 5.40102 38.8493 6.10823C38.9995 6.15352 39.1375 6.21393 39.2634 6.2894C39.2066 6.33583 39.2066 6.37895 39.2634 6.41881C39.0758 6.56293 38.8515 6.70093 38.5905 6.83293C38.6077 6.85017 38.625 6.86746 38.6422 6.8847C38.3629 7.09869 38.0955 7.33163 37.8399 7.58352C37.5278 7.9774 37.2516 8.37428 37.0117 8.77411C36.7724 9.25076 36.5739 9.74252 36.4164 10.2494C36.4464 10.2956 36.4637 10.3474 36.4681 10.4047C36.3247 10.9914 36.2557 11.5867 36.2611 12.1906C36.1438 12.2092 36.0489 12.1746 35.9764 12.087C35.9603 12.1935 35.9344 12.297 35.8987 12.3976C36.0011 13.7984 36.0873 15.1961 36.1575 16.5906C36.047 16.5723 35.978 16.6154 35.9505 16.72C35.9993 17.0735 36.0252 17.4273 36.0281 17.7812C35.9591 17.7466 35.8901 17.7122 35.8211 17.6776C35.8499 18.176 35.8499 18.6763 35.8211 19.1788C35.7693 19.1443 35.7175 19.1098 35.6658 19.0753C35.6485 19.4376 35.6312 19.8 35.614 20.1623C35.5622 20.1278 35.5105 20.0933 35.4587 20.0588C35.45 20.388 35.4241 20.7159 35.3811 21.0423C35.3304 21.0177 35.2873 20.9832 35.2517 20.9388C35.2458 21.0669 35.194 21.1704 35.0964 21.2494C35.0522 21.4549 35.0177 21.6619 34.9928 21.8706C34.9251 21.7468 34.8733 21.7468 34.8375 21.8706C34.8203 22.0776 34.803 22.2847 34.7858 22.4918C34.7039 22.5673 34.6349 22.6536 34.5787 22.7506C34.5442 23.0266 34.5097 23.3028 34.4752 23.5788C34.4295 23.4086 34.3951 23.236 34.3717 23.0612C34.378 23.3828 34.2744 23.6589 34.0611 23.8894C34.0279 24.1157 33.9848 24.34 33.9317 24.5623C33.9489 24.5969 33.9662 24.6313 33.9834 24.6659C34.0453 24.648 34.0453 24.6221 33.9834 24.5882C34.0308 24.5689 34.074 24.543 34.1128 24.5106C34.1212 24.7113 34.0349 24.8666 33.854 24.9765C33.7783 25.4893 33.5971 25.9552 33.3105 26.3741C33.3741 26.4145 33.4431 26.4404 33.5175 26.4518C33.3176 26.7664 33.1623 27.1028 33.0517 27.4612C33.097 27.5 33.1488 27.5259 33.207 27.5388C33.0352 27.865 32.8626 28.1929 32.6893 28.5223C32.7583 28.5396 32.8274 28.5569 32.8964 28.5741C32.6843 28.9297 32.46 29.2748 32.2234 29.6094C32.2841 29.6311 32.3359 29.6656 32.3787 29.7129C32.1535 29.9994 31.9895 30.3187 31.887 30.6706C31.7575 30.8 31.6281 30.9294 31.4987 31.0588C31.5677 31.076 31.6368 31.0933 31.7058 31.1106C31.5948 31.2533 31.5344 31.4172 31.5246 31.6023C31.2485 31.8439 30.9724 32.0855 30.6964 32.327C30.6867 32.4513 30.6609 32.5721 30.6187 32.6894C30.3467 32.8729 30.0793 33.0626 29.8164 33.2588C29.7779 33.3593 29.7865 33.4542 29.8422 33.5435C29.4713 33.7895 29.0917 34.0224 28.7034 34.2423C28.6689 34.3631 28.6344 34.4839 28.5999 34.6047C28.1231 34.8517 27.6399 35.0847 27.1505 35.3035C27.2439 35.3538 27.3302 35.4142 27.4093 35.4847C26.3822 35.9577 25.3124 36.3804 24.1999 36.7529C24.1519 36.773 24.1173 36.8075 24.0964 36.8565C24.1558 36.946 24.1558 37.0323 24.0964 37.1153C23.3649 37.3239 22.6402 37.5482 21.9222 37.7882C20.1378 38.2042 18.3606 38.6442 16.5905 39.1082C16.5417 39.1026 16.4986 39.0854 16.4611 39.0565C16.0423 39.2095 15.6196 39.3562 15.1928 39.4965C14.7103 39.6729 14.2358 39.9058 13.7693 40.1953C13.7321 40.1461 13.689 40.1375 13.6399 40.1694C13.2437 40.5683 12.8296 40.9134 12.3975 41.2047C12.3011 41.3438 12.1975 41.4733 12.087 41.5929C11.9711 41.5371 11.8676 41.563 11.7764 41.6706C11.411 41.7906 11.1177 41.687 10.8964 41.36C10.7751 41.3966 10.6543 41.3793 10.534 41.3082C10.3484 41.1885 10.1586 41.0764 9.9646 40.9718C10.0689 40.8323 10.1465 40.677 10.1975 40.5059C10.2493 40.4369 10.3011 40.4369 10.3528 40.5059C10.4909 40.3333 10.6289 40.1608 10.767 39.9882C10.8041 40.0375 10.8472 40.046 10.8964 40.0141C11.088 39.8398 11.2606 39.65 11.414 39.4447C11.4631 39.4128 11.5063 39.4213 11.5434 39.4706C11.8466 39.1665 12.2004 38.9508 12.6046 38.8235C12.7801 38.7361 12.9354 38.6239 13.0705 38.487C13.3763 38.3557 13.6783 38.2176 13.9764 38.0729C14.0657 38.1286 14.1606 38.1373 14.2611 38.0988C15.0306 37.8441 15.7984 37.5939 16.5646 37.3482C16.6021 37.3772 16.6452 37.3944 16.694 37.4C17.7946 37.1335 18.8989 36.8833 20.007 36.6494C21.2717 36.324 22.5313 35.9789 23.7858 35.6141C23.7402 35.5439 23.7229 35.4663 23.734 35.3812C24.5597 35.1606 25.3707 34.8931 26.167 34.5788C26.167 34.4925 26.167 34.4063 26.167 34.32C26.518 34.1876 26.8631 34.0409 27.2022 33.88C27.2368 33.7937 27.2712 33.7075 27.3058 33.6212C27.617 33.4137 27.9448 33.2326 28.2893 33.0776C28.3269 33.0052 28.3528 32.9276 28.367 32.8447C28.5265 32.7347 28.6904 32.6312 28.8587 32.5341C28.9764 32.4196 29.0541 32.2815 29.0917 32.12C29.1993 32.036 29.3115 31.9583 29.4281 31.887C29.3838 31.8514 29.3493 31.8083 29.3246 31.7576C29.5158 31.617 29.628 31.4272 29.6611 31.1882C29.7797 31.1214 29.8832 31.0352 29.9717 30.9294C29.9979 30.852 29.972 30.7916 29.894 30.7482C30.1704 30.5633 30.2911 30.3131 30.2564 29.9976C30.3427 29.8251 30.4289 29.6525 30.5152 29.48C30.4642 29.3973 30.4556 29.311 30.4893 29.2212C30.6424 28.9541 30.7718 28.678 30.8775 28.3929C30.843 28.3412 30.8085 28.2894 30.774 28.2376C30.8603 28.0996 30.9465 27.9616 31.0328 27.8235C30.9638 27.7028 30.8948 27.5819 30.8258 27.4612C30.9183 27.3537 31.0046 27.2415 31.0846 27.1247C31.0609 27.1033 31.0437 27.0774 31.0328 27.047C31.122 26.9291 31.191 26.7997 31.2399 26.6588C31.1931 26.5099 31.1414 26.3632 31.0846 26.2188C31.106 25.9976 31.1664 25.7733 31.2658 25.5459C31.2162 25.1319 31.3198 24.7695 31.5764 24.4588C31.7134 23.8782 31.8169 23.2915 31.887 22.6988C32.22 22.4032 32.4098 22.0408 32.4564 21.6118C32.5952 21.4815 32.7247 21.3435 32.8446 21.1976C32.7853 20.9377 32.8802 20.748 33.1293 20.6282C33.1387 20.4871 33.1646 20.3491 33.207 20.2141C33.2709 20.1755 33.34 20.1583 33.414 20.1623C33.4056 20.0403 33.4142 19.9196 33.4399 19.8C33.5101 19.7544 33.5877 19.7371 33.6728 19.7482C33.6643 19.6091 33.673 19.4711 33.6987 19.3341C33.7511 19.2908 33.8115 19.2735 33.8799 19.2823C33.8639 19.1569 33.8812 19.0361 33.9317 18.92C34.0011 18.8421 34.0874 18.8076 34.1905 18.8165C34.1905 18.6612 34.1905 18.5059 34.1905 18.3506C34.2422 18.3506 34.294 18.3506 34.3458 18.3506C34.329 18.1407 34.3462 17.9336 34.3975 17.7294C34.4279 17.7402 34.4538 17.7575 34.4752 17.7812C34.5145 17.5883 34.5059 17.3985 34.4493 17.2118C34.5678 17.112 34.68 17.0429 34.7858 17.0047C34.7957 16.6742 34.7698 16.3464 34.7081 16.0212C34.7697 15.9731 34.8387 15.9558 34.9152 15.9694C34.8272 15.4269 34.7927 14.8833 34.8117 14.3388C34.7298 13.5559 34.6952 12.7708 34.7081 11.9835C34.7599 11.9835 34.8117 11.9835 34.8634 11.9835C34.8756 11.5141 34.9015 11.0482 34.9411 10.5859C34.9092 10.6695 34.8575 10.7385 34.7858 10.7929C34.7971 9.57517 35.1163 8.43634 35.7434 7.37646C35.7162 7.34064 35.6817 7.31476 35.6399 7.29881C35.8113 7.05045 35.9407 6.80027 36.0281 6.54823C36.1253 6.46835 36.203 6.37347 36.2611 6.26352C36.2265 6.24628 36.1921 6.22899 36.1575 6.21175C36.2611 6.09099 36.3646 5.97017 36.4681 5.8494C36.4164 5.83216 36.3646 5.81487 36.3128 5.79764C36.3951 5.74349 36.4728 5.68308 36.5458 5.61646C36.5694 5.55207 36.5435 5.50895 36.4681 5.48705C36.5317 5.4079 36.6094 5.34749 36.7011 5.30587C36.7223 5.23335 36.7482 5.16435 36.7787 5.09881Z" fill="#D7E4F7"/>
<path opacity="0.998" fill-rule="evenodd" clip-rule="evenodd" d="M34.7081 5.15057C34.8439 5.24955 34.956 5.37037 35.0446 5.51293C35.3221 5.40448 35.6068 5.31819 35.8987 5.2541C35.9642 5.30478 36.0333 5.35655 36.1058 5.4094C35.9975 5.57406 35.8767 5.72935 35.7434 5.87528C35.8004 5.97332 35.8694 6.00785 35.9505 5.97881C35.7579 6.20595 35.5853 6.44754 35.4328 6.70351C35.4674 6.73804 35.5018 6.77252 35.5364 6.80704C35.0932 7.63911 34.7481 8.51047 34.5011 9.42116C34.5501 9.44616 34.6019 9.45476 34.6564 9.44704C34.537 10.0493 34.4594 10.6532 34.4234 11.2588C34.547 11.1628 34.6333 11.042 34.6823 10.8965C34.7041 11.2593 34.6955 11.6216 34.6564 11.9835C34.5701 11.9835 34.4838 11.9835 34.3975 11.9835C34.3834 12.8343 34.4351 13.6797 34.5528 14.52C34.5302 14.5721 34.4957 14.5721 34.4493 14.52C34.455 15.1757 34.5067 15.8314 34.6046 16.487C34.5011 16.487 34.3975 16.487 34.294 16.487C34.3516 16.7634 34.3516 17.0394 34.294 17.3153C34.1135 17.3682 34.0445 17.4889 34.087 17.6776C33.9834 17.6949 33.8799 17.7122 33.7764 17.7294C33.7799 18.0065 33.7972 18.2826 33.8281 18.5576C33.7199 18.5482 33.6164 18.5655 33.5175 18.6094C33.483 18.8337 33.4485 19.058 33.414 19.2823C33.2986 19.3381 33.1778 19.3726 33.0517 19.3859C33.0684 19.5958 33.0512 19.8028 32.9999 20.007C32.5905 20.2868 32.2195 20.6146 31.887 20.9906C31.8288 21.2806 31.7943 21.5739 31.7834 21.8706C31.397 22.5125 31.1554 23.2027 31.0587 23.9412C31.1643 23.8183 31.285 23.7147 31.4211 23.6306C31.4285 24.0913 31.2559 24.4709 30.9034 24.7694C30.8862 25.1145 30.8689 25.4596 30.8517 25.8047C30.7273 26.0533 30.6324 26.3121 30.567 26.5812C30.5805 26.708 30.615 26.8288 30.6705 26.9435C30.5002 27.1394 30.3622 27.3551 30.2564 27.5906C30.3361 27.7415 30.4224 27.8882 30.5152 28.0306C30.3553 28.2246 30.2172 28.4317 30.1011 28.6517C30.1751 28.8036 30.2786 28.933 30.4117 29.04C30.2157 29.2682 30.0259 29.5011 29.8423 29.7388C29.919 29.8415 30.0053 29.9363 30.1011 30.0235C29.8221 30.3439 29.5115 30.6286 29.1693 30.8776C29.2383 30.9639 29.3074 31.0502 29.3764 31.1365C29.2787 31.2162 29.1838 31.3025 29.0917 31.3953C29.0647 31.6164 28.9871 31.8148 28.8587 31.9906C28.4858 32.2027 28.1235 32.4269 27.7717 32.6635C27.7396 32.7915 27.7051 32.9209 27.6681 33.0518C27.0492 33.4044 26.4108 33.715 25.7528 33.9835C25.8046 34.0525 25.8564 34.1216 25.9081 34.1906C25.2171 34.5446 24.4924 34.8121 23.734 34.9929C23.665 35.0965 23.665 35.2 23.734 35.3035C23.2176 35.5274 22.6827 35.6999 22.1293 35.8212C20.0526 36.3608 17.9647 36.8612 15.8658 37.3223C15.5568 37.3865 15.2634 37.49 14.9858 37.6329C14.8459 37.6643 14.7079 37.6557 14.5717 37.607C13.6898 37.8583 12.8789 38.2465 12.1387 38.7717C12.0168 38.7798 11.896 38.7798 11.7764 38.7717C11.3729 39.0544 11.0192 39.3909 10.7152 39.7812C10.6462 39.7466 10.5771 39.7122 10.5081 39.6776C10.308 39.9141 10.1268 40.1643 9.9646 40.4282C9.84021 40.4063 9.71939 40.415 9.60225 40.4541C9.60225 40.3851 9.60225 40.316 9.60225 40.247C9.39923 40.2157 9.20082 40.1639 9.00696 40.0917C8.86269 40.1444 8.71604 40.153 8.56696 40.1176C8.40017 39.9933 8.24488 39.8639 8.10107 39.7294C8.19228 39.7368 8.27858 39.7195 8.3599 39.6776C8.44158 39.7366 8.52782 39.7625 8.61872 39.7553C8.69595 39.5839 8.79948 39.4286 8.92931 39.2894C9.03284 39.2894 9.13637 39.2894 9.2399 39.2894C9.37795 39.1169 9.51596 38.9443 9.65402 38.7717C9.75459 38.7875 9.85812 38.7875 9.9646 38.7717C10.163 38.5043 10.396 38.2713 10.6634 38.0729C10.7196 38.114 10.78 38.1485 10.8446 38.1765C11.3037 37.8694 11.7695 37.5761 12.2423 37.2965C12.325 37.3474 12.4113 37.356 12.5011 37.3223C13.3272 36.9723 14.164 36.653 15.0117 36.3647C15.0839 36.411 15.1616 36.4455 15.2446 36.4682C17.8775 35.8792 20.5002 35.2494 23.1128 34.5788C23.2446 34.5043 23.3827 34.4439 23.527 34.3976C23.5762 34.3177 23.5935 34.2314 23.5787 34.1388C24.2057 34.0074 24.8097 33.809 25.3905 33.5435C25.3109 33.4861 25.2764 33.4084 25.287 33.3106C25.7459 33.169 26.1945 32.9965 26.6328 32.7929C26.6656 32.662 26.7173 32.5412 26.7881 32.4306C27.1044 32.3156 27.3978 32.1603 27.6681 31.9647C27.6914 31.7343 27.8122 31.579 28.0305 31.4988C27.9787 31.4298 27.927 31.3608 27.8752 31.2917C28.0865 31.1473 28.3022 31.0092 28.5223 30.8776C28.5562 30.67 28.5906 30.4629 28.6258 30.2565C28.7743 29.8684 28.9382 29.4888 29.1175 29.1176C29.0896 29.053 29.0551 28.9926 29.014 28.9365C29.1317 28.8451 29.218 28.7329 29.2728 28.6C29.2062 28.359 29.1199 28.126 29.014 27.9012C29.31 27.6411 29.3704 27.3392 29.1952 26.9953C29.1503 26.6851 29.1331 26.3745 29.1434 26.0635C29.2297 25.96 29.316 25.8565 29.4023 25.7529C29.428 25.0721 29.5143 24.3992 29.6611 23.7341C29.9397 22.3664 30.5091 21.1413 31.3693 20.0588C31.3865 19.9035 31.4038 19.7482 31.4211 19.5929C31.5958 19.4095 31.777 19.2369 31.9646 19.0753C31.9991 18.9717 32.0336 18.8682 32.0681 18.7647C32.3709 18.5051 32.6815 18.2549 32.9999 18.0141C33.0316 17.903 33.0661 17.7908 33.1034 17.6776C33.1705 17.6467 33.2395 17.6208 33.3105 17.6C33.261 17.4243 33.2438 17.2431 33.2587 17.0565C33.3277 17.0565 33.3968 17.0565 33.4658 17.0565C33.477 16.8722 33.4597 16.691 33.414 16.5129C33.4416 16.4084 33.5106 16.3652 33.6211 16.3835C33.6185 16.0586 33.584 15.7394 33.5175 15.4259C33.5845 15.4005 33.6535 15.3919 33.7246 15.4C33.7182 15.0926 33.6838 14.7906 33.6211 14.4941C33.6793 14.4812 33.731 14.4553 33.7764 14.4165C33.6618 13.628 33.6101 12.8343 33.6211 12.0353C33.6728 12.0353 33.7246 12.0353 33.7764 12.0353C33.8018 11.8391 33.7587 11.8046 33.647 11.9317C33.6031 11.0497 33.6807 10.1784 33.8799 9.31763C33.8454 9.24863 33.8109 9.17958 33.7764 9.11057C33.956 8.36464 34.1976 7.63994 34.5011 6.93646C34.4741 6.88728 34.4395 6.84411 34.3975 6.80704C34.5052 6.57447 34.6259 6.35017 34.7599 6.1341C34.7081 6.09958 34.6564 6.0651 34.6046 6.03057C34.6981 5.87673 34.8016 5.73008 34.9152 5.59057C34.8215 5.4564 34.7524 5.3097 34.7081 5.15057Z" fill="#DEE8F7"/>
<path opacity="0.999" fill-rule="evenodd" clip-rule="evenodd" d="M36.7788 5.09882C36.7482 5.16435 36.7223 5.23335 36.7011 5.30587C36.6094 5.34749 36.5318 5.4079 36.4682 5.48705C36.5435 5.50895 36.5694 5.55207 36.5458 5.61646C36.4728 5.68308 36.3952 5.74349 36.3129 5.79764C36.3646 5.81488 36.4164 5.83217 36.4682 5.8494C36.3646 5.97017 36.2611 6.09099 36.1576 6.21176C36.1921 6.22899 36.2266 6.24628 36.2611 6.26352C36.203 6.37347 36.1254 6.46835 36.0282 6.54823C35.9407 6.80027 35.8113 7.05045 35.6399 7.29882C35.6818 7.31476 35.7163 7.34064 35.7435 7.37646C35.1163 8.43635 34.7971 9.57517 34.7858 10.7929C34.8575 10.7385 34.9093 10.6695 34.9411 10.5859C34.9015 11.0482 34.8756 11.5141 34.8635 11.9835C34.8117 11.9835 34.7599 11.9835 34.7082 11.9835C34.6953 12.7708 34.7298 13.5559 34.8117 14.3388C34.7927 14.8833 34.8272 15.4269 34.9152 15.9694C34.8387 15.9558 34.7697 15.9731 34.7082 16.0212C34.7699 16.3464 34.7958 16.6742 34.7858 17.0047C34.68 17.043 34.5678 17.112 34.4494 17.2118C34.5059 17.3985 34.5146 17.5883 34.4752 17.7812C34.4538 17.7575 34.4279 17.7402 34.3976 17.7294C34.3463 17.9336 34.3291 18.1407 34.3458 18.3506C34.2941 18.3506 34.2423 18.3506 34.1905 18.3506C34.1905 18.5059 34.1905 18.6612 34.1905 18.8165C34.0874 18.8076 34.0012 18.8421 33.9317 18.92C33.8813 19.0361 33.864 19.1569 33.8799 19.2823C33.8115 19.2735 33.7511 19.2908 33.6988 19.3341C33.673 19.4711 33.6644 19.6091 33.6729 19.7482C33.5878 19.7371 33.5101 19.7544 33.4399 19.8C33.4142 19.9196 33.4056 20.0403 33.4141 20.1623C33.34 20.1583 33.271 20.1755 33.207 20.2141C33.1647 20.3491 33.1388 20.4871 33.1294 20.6282C32.8802 20.748 32.7853 20.9377 32.8446 21.1976C32.7247 21.3435 32.5953 21.4815 32.4564 21.6118C32.4098 22.0408 32.22 22.4032 31.887 22.6988C31.817 23.2915 31.7134 23.8782 31.5764 24.4588C31.3198 24.7695 31.2163 25.1319 31.2658 25.5459C31.1665 25.7733 31.1061 25.9976 31.0846 26.2188C31.1414 26.3632 31.1932 26.5099 31.2399 26.6588C31.1911 26.7997 31.1221 26.9291 31.0329 27.0471C31.0437 27.0774 31.061 27.1033 31.0846 27.1247C31.0046 27.2415 30.9184 27.3537 30.8258 27.4612C30.8948 27.5819 30.9639 27.7028 31.0329 27.8235C30.9466 27.9616 30.8604 28.0996 30.7741 28.2376C30.8086 28.2894 30.8431 28.3412 30.8776 28.3929C30.7718 28.678 30.6424 28.9541 30.4894 29.2212C30.4557 29.311 30.4642 29.3973 30.5152 29.48C30.4289 29.6525 30.3427 29.8251 30.2564 29.9976C30.2912 30.3131 30.1704 30.5633 29.8941 30.7482C29.9721 30.7916 29.998 30.852 29.9717 30.9294C29.8833 31.0352 29.7798 31.1215 29.6611 31.1882C29.628 31.4272 29.5159 31.617 29.3246 31.7576C29.3493 31.8083 29.3838 31.8514 29.4282 31.8871C29.3115 31.9583 29.1994 32.036 29.0917 32.12C29.0541 32.2815 28.9765 32.4196 28.8588 32.5341C28.6905 32.6312 28.5265 32.7347 28.367 32.8447C28.3529 32.9276 28.327 33.0052 28.2894 33.0776C27.9449 33.2326 27.617 33.4137 27.3058 33.6212C27.2713 33.7075 27.2368 33.7937 27.2023 33.88C26.8632 34.0409 26.5181 34.1876 26.167 34.32C26.167 34.4063 26.167 34.4925 26.167 34.5788C25.3708 34.8931 24.5598 35.1606 23.7341 35.3812C23.723 35.4663 23.7403 35.5439 23.7858 35.6141C22.5313 35.9789 21.2717 36.324 20.007 36.6494C18.899 36.8833 17.7947 37.1335 16.6941 37.4C16.6453 37.3944 16.6022 37.3772 16.5646 37.3482C15.7985 37.5939 15.0307 37.8441 14.2611 38.0988C14.1606 38.1373 14.0658 38.1286 13.9764 38.0729C13.6784 38.2176 13.3764 38.3557 13.0705 38.487C12.9355 38.6239 12.7802 38.7361 12.6046 38.8235C12.2004 38.9508 11.8467 39.1665 11.5435 39.4706C11.5063 39.4214 11.4632 39.4128 11.4141 39.4447C11.2606 39.65 11.0881 39.8398 10.8964 40.0141C10.8473 40.046 10.8042 40.0375 10.767 39.9882C10.6289 40.1608 10.4909 40.3333 10.3529 40.5059C10.3011 40.4369 10.2494 40.4369 10.1976 40.5059C10.1465 40.677 10.0689 40.8323 9.96465 40.9718C9.79357 40.8374 9.67275 40.6648 9.60229 40.4541C9.71944 40.415 9.84026 40.4063 9.96465 40.4282C10.1268 40.1643 10.308 39.9141 10.5082 39.6776C10.5772 39.7122 10.6462 39.7466 10.7152 39.7812C11.0193 39.3909 11.373 39.0544 11.7764 38.7718C11.896 38.7798 12.0168 38.7798 12.1388 38.7718C12.8789 38.2465 13.6898 37.8583 14.5717 37.6071C14.708 37.6557 14.846 37.6644 14.9858 37.6329C15.2635 37.49 15.5568 37.3865 15.8658 37.3223C17.9648 36.8612 20.0527 36.3608 22.1294 35.8212C22.6827 35.6999 23.2177 35.5274 23.7341 35.3035C23.6651 35.2 23.6651 35.0965 23.7341 34.9929C24.4924 34.8121 25.2171 34.5447 25.9082 34.1906C25.8564 34.1216 25.8046 34.0525 25.7529 33.9835C26.4108 33.715 27.0492 33.4044 27.6682 33.0518C27.7051 32.9209 27.7396 32.7915 27.7717 32.6635C28.1235 32.427 28.4859 32.2027 28.8588 31.9906C28.9871 31.8148 29.0648 31.6164 29.0917 31.3953C29.1838 31.3025 29.2787 31.2162 29.3764 31.1365C29.3074 31.0502 29.2384 30.9639 29.1694 30.8776C29.5115 30.6287 29.8221 30.3439 30.1011 30.0235C30.0053 29.9363 29.919 29.8415 29.8423 29.7388C30.0259 29.5011 30.2157 29.2682 30.4117 29.04C30.2787 28.933 30.1751 28.8036 30.1011 28.6518C30.2173 28.4317 30.3553 28.2246 30.5152 28.0306C30.4224 27.8882 30.3362 27.7415 30.2564 27.5906C30.3622 27.3552 30.5003 27.1395 30.6705 26.9435C30.615 26.8288 30.5805 26.708 30.567 26.5812C30.6324 26.3121 30.7273 26.0533 30.8517 25.8047C30.8689 25.4596 30.8862 25.1145 30.9035 24.7694C31.256 24.4709 31.4285 24.0913 31.4211 23.6306C31.2851 23.7148 31.1643 23.8183 31.0588 23.9412C31.1554 23.2027 31.397 22.5125 31.7835 21.8706C31.7943 21.5739 31.8288 21.2806 31.887 20.9906C32.2195 20.6146 32.5905 20.2868 32.9999 20.0071C33.0512 19.8028 33.0685 19.5958 33.0517 19.3859C33.1779 19.3726 33.2987 19.3381 33.4141 19.2823C33.4486 19.058 33.4831 18.8337 33.5176 18.6094C33.6164 18.5655 33.7199 18.5482 33.8282 18.5576C33.7972 18.2826 33.78 18.0066 33.7764 17.7294C33.8799 17.7122 33.9835 17.6949 34.087 17.6776C34.0446 17.489 34.1136 17.3682 34.2941 17.3153C34.3516 17.0394 34.3516 16.7634 34.2941 16.4871C34.3976 16.4871 34.5011 16.4871 34.6046 16.4871C34.5068 15.8314 34.455 15.1757 34.4494 14.52C34.4957 14.5721 34.5302 14.5721 34.5529 14.52C34.4352 13.6797 34.3834 12.8343 34.3976 11.9835C34.4839 11.9835 34.5701 11.9835 34.6564 11.9835C34.6955 11.6216 34.7042 11.2593 34.6823 10.8965C34.6333 11.042 34.547 11.1628 34.4235 11.2588C34.4594 10.6532 34.537 10.0493 34.6564 9.44705C34.602 9.45476 34.5502 9.44617 34.5011 9.42117C34.7481 8.51047 35.0933 7.63912 35.5364 6.80705C35.5019 6.77252 35.4674 6.73805 35.4329 6.70352C35.5853 6.44755 35.7579 6.20596 35.9505 5.97882C35.8695 6.00786 35.8005 5.97333 35.7435 5.87529C35.8768 5.72936 35.9975 5.57407 36.1058 5.4094C36.0333 5.35655 35.9642 5.30479 35.8988 5.25411C36.0564 5.14366 36.229 5.12641 36.4164 5.20235C36.5381 5.16749 36.6589 5.13298 36.7788 5.09882Z" fill="#DBE6F7"/>
<path opacity="0.999" fill-rule="evenodd" clip-rule="evenodd" d="M11.207 5.77173C11.9011 6.66627 12.2031 7.68433 12.1129 8.82585C11.8315 10.8673 10.6841 12.1183 8.67053 12.5788C6.9595 13.0549 5.50144 12.6494 4.29641 11.3623C4.22284 11.2637 4.16244 11.1602 4.11523 11.0517C4.1597 10.8989 4.26322 10.804 4.42582 10.767C4.64111 10.7175 4.86543 10.7002 5.09876 10.7153C5.14727 10.5626 5.19903 10.4159 5.25406 10.2753C5.24567 10.3802 5.25432 10.4837 5.27994 10.5858C6.06795 11.412 7.0256 11.6967 8.15288 11.44C8.63378 11.2685 9.08242 11.0442 9.49876 10.767C10.5512 10.0269 10.9567 9.01748 10.7152 7.73879C10.6179 7.44383 10.5058 7.18501 10.3788 6.96232C10.487 6.86448 10.6077 6.77819 10.7411 6.70349C10.799 6.33721 10.9543 6.02662 11.207 5.77173Z" fill="#E6EEF7"/>
<path opacity="0.998" fill-rule="evenodd" clip-rule="evenodd" d="M39.2635 6.28943C39.3763 6.30703 39.4712 6.35879 39.5482 6.44472C39.76 6.7388 39.9239 7.05803 40.04 7.40237C40.5216 7.45341 40.9444 7.63459 41.3082 7.9459C41.4924 8.21803 41.5873 8.51997 41.5929 8.85178C41.5374 9.06526 41.5288 9.28091 41.567 9.49884C41.6387 9.77117 41.6905 10.0472 41.7223 10.3271C42.1418 10.574 42.4524 10.9192 42.6541 11.3624C42.6886 11.7075 42.6886 12.0525 42.6541 12.3977C42.6203 12.6716 42.5255 12.9217 42.3694 13.1483C42.4324 13.2336 42.4755 13.3284 42.4988 13.433C42.4817 13.7349 42.5507 14.011 42.7059 14.2612C42.8784 14.6235 42.8784 14.9859 42.7059 15.3483C42.5821 15.4949 42.4872 15.6588 42.4212 15.84C42.4941 15.9996 42.589 16.1462 42.7059 16.28C42.6918 16.519 42.7609 16.726 42.9129 16.9012C42.9535 17.0699 42.9449 17.2339 42.887 17.393C42.9811 17.4861 43.0415 17.5983 43.0682 17.7294C43.148 18.1541 43.1739 18.5768 43.1459 18.9977C43.1916 19.287 43.2261 19.5803 43.2494 19.8777C43.2251 20.1426 43.2164 20.4101 43.2235 20.68C43.1536 20.9225 43.007 21.1037 42.7835 21.2235C43.2026 21.7589 43.2544 22.3284 42.9388 22.9318C43.237 23.3425 43.1939 23.7135 42.8094 24.0447C42.7642 24.2061 42.7038 24.3614 42.6282 24.5106C42.8567 24.9351 42.8135 25.332 42.4988 25.7012C42.5052 25.9372 42.4361 26.1442 42.2917 26.3224C42.2825 26.6787 42.1445 26.9721 41.8776 27.2024C41.8748 27.3764 41.8231 27.5316 41.7223 27.6683C41.7702 27.9046 41.7875 28.1462 41.7741 28.393C41.7104 28.5603 41.6069 28.6983 41.4635 28.8071C41.4779 28.9954 41.4779 29.1853 41.4635 29.3765C41.268 29.7623 41.0954 30.1592 40.9459 30.5671C40.7513 30.7446 40.6477 30.9689 40.6353 31.24C40.5139 31.3786 40.3758 31.4994 40.2212 31.6024C40.175 31.7811 40.0887 31.9364 39.9623 32.0683C39.9681 32.4507 39.7869 32.6923 39.4188 32.793C39.309 33.2911 39.0071 33.5844 38.5129 33.673C38.4721 33.9864 38.3427 34.2539 38.1247 34.4753C37.9404 34.5393 37.7506 34.5652 37.5553 34.553C37.5608 34.6773 37.509 34.7722 37.4 34.8377C37.2099 34.9561 37.0028 35.0251 36.7788 35.0447C36.6283 35.2078 36.4903 35.3804 36.3647 35.5624C36.0639 35.7644 35.7361 35.9111 35.3812 36.0024C35.2851 36.1416 35.1643 36.2537 35.0188 36.3388C34.6612 36.4397 34.2988 36.526 33.9317 36.5977C33.7539 36.7954 33.5296 36.8816 33.2588 36.8565C33.1092 37.0693 32.9021 37.1729 32.6376 37.1671C32.4593 37.3416 32.2522 37.4106 32.0164 37.3741C31.6159 37.6833 31.1931 37.7264 30.7482 37.5035C30.6312 37.7328 30.4672 37.9226 30.2564 38.073C29.919 38.1192 29.6085 38.2314 29.3247 38.4094C29.2072 38.4487 29.0951 38.44 28.9882 38.3835C28.7505 38.7395 28.414 38.9207 27.9788 38.9271C27.8382 39.154 27.6483 39.3266 27.4094 39.4447C27.166 39.4651 26.9245 39.4651 26.6847 39.4447C26.581 39.5484 26.4602 39.626 26.3223 39.6777C26.253 40.0775 26.0287 40.3363 25.6494 40.4541C25.3841 40.7421 25.0563 40.8887 24.6659 40.8941C24.5124 41.0994 24.3399 41.2893 24.1482 41.4635C23.8785 41.6222 23.6025 41.6308 23.32 41.4894C23.2009 41.6516 23.0542 41.7896 22.88 41.9035C22.8434 41.9854 22.8003 42.063 22.7506 42.1365C22.3014 42.3523 21.8355 42.5249 21.3529 42.6541C21.0957 42.6892 20.8628 42.6288 20.6541 42.473C20.5544 42.5574 20.4595 42.6523 20.3694 42.7577C20.2652 42.8227 20.1531 42.8659 20.0329 42.8871C19.7574 42.8256 19.4814 42.8256 19.2047 42.8871C19.0706 42.8935 18.9498 42.859 18.8423 42.7835C18.5596 43.0419 18.2577 43.0591 17.9364 42.8353C17.7061 43.0663 17.4473 43.1008 17.16 42.9388C16.8682 43.026 16.5749 43.0605 16.28 43.0424C16.1124 43.021 15.9571 42.9692 15.8141 42.8871C15.5479 42.9883 15.2804 43.0228 15.0117 42.9906C14.8329 42.9714 14.6776 42.9023 14.5459 42.7835C14.4501 42.8385 14.3466 42.8729 14.2353 42.8871C13.8044 42.777 13.3816 42.6476 12.967 42.4988C12.7866 42.3411 12.5882 42.2116 12.3717 42.1106C12.2362 41.9602 12.1412 41.7876 12.087 41.593C12.1976 41.4733 12.3011 41.3439 12.3976 41.2047C12.8297 40.9134 13.2438 40.5683 13.64 40.1694C13.6891 40.1375 13.7322 40.1461 13.7694 40.1953C14.2359 39.9058 14.7104 39.6729 15.1929 39.4965C15.6197 39.3562 16.0424 39.2095 16.4612 39.0565C16.4987 39.0854 16.5418 39.1027 16.5906 39.1082C18.3607 38.6442 20.1379 38.2042 21.9223 37.7883C22.6403 37.5483 23.365 37.324 24.0964 37.1153C24.1559 37.0323 24.1559 36.946 24.0964 36.8565C24.1174 36.8076 24.1519 36.773 24.2 36.753C25.3125 36.3805 26.3823 35.9577 27.4094 35.4847C27.3303 35.4143 27.244 35.3539 27.1506 35.3035C27.64 35.0847 28.1232 34.8517 28.6 34.6047C28.6345 34.484 28.669 34.3631 28.7035 34.2424C29.0917 34.0224 29.4714 33.7895 29.8423 33.5435C29.7866 33.4542 29.778 33.3593 29.8164 33.2588C30.0794 33.0627 30.3468 32.8729 30.6188 32.6894C30.6609 32.5721 30.6868 32.4513 30.6964 32.3271C30.9725 32.0855 31.2486 31.844 31.5247 31.6024C31.5345 31.4173 31.5949 31.2534 31.7059 31.1106C31.6369 31.0934 31.5678 31.0761 31.4988 31.0588C31.6282 30.9294 31.7576 30.8 31.887 30.6706C31.9896 30.3187 32.1536 29.9995 32.3788 29.713C32.3359 29.6656 32.2842 29.6311 32.2235 29.6094C32.4601 29.2749 32.6844 28.9298 32.8964 28.5741C32.8274 28.5569 32.7584 28.5396 32.6894 28.5224C32.8627 28.1929 33.0353 27.8651 33.207 27.5388C33.1489 27.5259 33.0971 27.5001 33.0517 27.4612C33.1624 27.1029 33.3177 26.7664 33.5176 26.4518C33.4432 26.4404 33.3742 26.4146 33.3106 26.3741C33.5972 25.9552 33.7784 25.4893 33.8541 24.9765C34.035 24.8666 34.1213 24.7113 34.1129 24.5106C34.0741 24.543 34.0309 24.5689 33.9835 24.5883C34.0454 24.6221 34.0454 24.648 33.9835 24.6659C33.9663 24.6314 33.949 24.5969 33.9317 24.5624C33.9849 24.34 34.028 24.1157 34.0612 23.8894C34.2745 23.659 34.3781 23.3829 34.3717 23.0612C34.3951 23.236 34.4296 23.4086 34.4753 23.5788C34.5098 23.3028 34.5443 23.0267 34.5788 22.7506C34.635 22.6537 34.704 22.5674 34.7859 22.4918C34.8031 22.2847 34.8204 22.0777 34.8376 21.8706C34.8734 21.7468 34.9252 21.7468 34.9929 21.8706C35.0178 21.6619 35.0523 21.4549 35.0964 21.2494C35.1941 21.1704 35.2459 21.0669 35.2517 20.9388C35.2874 20.9832 35.3305 21.0177 35.3812 21.0424C35.4242 20.7159 35.4501 20.388 35.4588 20.0588C35.5106 20.0934 35.5623 20.1278 35.6141 20.1624C35.6313 19.8 35.6486 19.4377 35.6659 19.0753C35.7176 19.1098 35.7694 19.1443 35.8212 19.1788C35.85 18.6764 35.85 18.176 35.8212 17.6777C35.8902 17.7122 35.9592 17.7467 36.0282 17.7812C36.0253 17.4273 35.9994 17.0735 35.9506 16.72C35.9781 16.6155 36.0471 16.5723 36.1576 16.5906C36.0874 15.1961 36.0012 13.7985 35.8988 12.3977C35.9345 12.297 35.9604 12.1935 35.9764 12.0871C36.049 12.1747 36.1439 12.2092 36.2612 12.1906C36.2558 11.5867 36.3248 10.9914 36.4682 10.4047C36.4638 10.3474 36.4465 10.2957 36.4164 10.2494C36.574 9.74255 36.7724 9.25078 37.0117 8.77413C37.2517 8.3743 37.5278 7.97742 37.84 7.58355C38.0955 7.33166 38.363 7.09872 38.6423 6.88472C38.6251 6.86749 38.6078 6.8502 38.5906 6.83296C38.8516 6.70096 39.0759 6.56295 39.2635 6.41884C39.2067 6.37898 39.2067 6.33586 39.2635 6.28943Z" fill="#D1E1F7"/>
<path opacity="0.995" fill-rule="evenodd" clip-rule="evenodd" d="M10.3788 6.96234C10.5058 7.18503 10.6179 7.44386 10.7153 7.73881C10.9567 9.0175 10.5512 10.0269 9.49878 10.767C9.08244 11.0442 8.63379 11.2685 8.1529 11.44C7.02562 11.6967 6.06797 11.412 5.27996 10.5859C5.25433 10.4837 5.24569 10.3802 5.25407 10.2753C5.28379 9.87452 5.49949 9.65022 5.90113 9.60234C6.25215 9.81918 6.4765 9.73294 6.57407 9.34352C6.65395 9.2463 6.74883 9.16866 6.85878 9.11058C7.13608 9.06104 7.40355 9.08692 7.66113 9.18822C7.82507 9.02428 7.98896 8.8604 8.1529 8.69646C8.26362 8.62378 8.38439 8.58066 8.51525 8.56705C8.73649 8.6257 8.95215 8.69475 9.16231 8.77411C9.3189 8.27142 9.52596 7.7883 9.78349 7.32469C9.96352 7.17012 10.1619 7.04936 10.3788 6.96234Z" fill="#E3ECF7"/>
<path fill-rule="evenodd" clip-rule="evenodd" d="M25.1835 12.5012C25.2107 12.5907 25.2625 12.6598 25.3388 12.7083C25.3838 12.823 25.401 12.9438 25.3906 13.0706C25.3104 13.0872 25.2759 13.139 25.287 13.2259C24.6175 13.7401 24.0135 14.3268 23.4753 14.9859C23.4239 14.977 23.3895 14.9943 23.3718 15.0377C23.325 15.0744 23.3077 15.1261 23.32 15.193C23.4925 15.193 23.6651 15.193 23.8376 15.193C23.8376 15.2102 23.8376 15.2275 23.8376 15.2447C24.1908 15.296 24.5532 15.3305 24.9247 15.3483C25.2875 15.3397 25.6498 15.3483 26.0118 15.3741C26.1117 15.4208 26.198 15.4812 26.2706 15.5553C26.3396 15.7624 26.3396 15.9694 26.2706 16.1765C26.1314 16.2933 25.9674 16.3623 25.7788 16.3835C25.5982 16.3577 25.417 16.3405 25.2353 16.3318C24.8902 16.3318 24.5451 16.3318 24.2 16.3318C24.1218 16.2799 24.0355 16.2454 23.9412 16.2283C23.7241 16.1877 23.4998 16.1532 23.2682 16.1247C23.0787 16.1488 22.9061 16.1143 22.7506 16.0212C22.5696 15.9399 22.3798 15.8708 22.1812 15.8141C22.0754 15.7583 22.0064 15.672 21.9741 15.5553C21.9198 15.2595 22.006 15.018 22.2329 14.8306C22.2329 14.8134 22.2329 14.7961 22.2329 14.7788C22.371 14.7443 22.4572 14.6581 22.4918 14.52C22.6125 14.3647 22.7506 14.2267 22.9059 14.1059C23.0069 14.0394 23.0932 13.9531 23.1647 13.8471C23.3576 13.6842 23.5129 13.4944 23.6306 13.2777C23.9067 12.9673 24.2173 12.6912 24.5623 12.4494C24.7829 12.3715 24.9899 12.3887 25.1835 12.5012Z" fill="#333333"/>
<path fill-rule="evenodd" clip-rule="evenodd" d="M25.1835 12.5012C25.3083 12.5112 25.3601 12.5802 25.3388 12.7082C25.2625 12.6598 25.2107 12.5907 25.1835 12.5012Z" fill="#9A9CA0"/>
<path fill-rule="evenodd" clip-rule="evenodd" d="M25.3387 12.7083C25.4022 12.742 25.4367 12.8024 25.4423 12.8894C25.4415 12.9611 25.4243 13.0215 25.3905 13.0706C25.401 12.9438 25.3837 12.823 25.3387 12.7083Z" fill="#C1C5CB"/>
<path fill-rule="evenodd" clip-rule="evenodd" d="M25.3906 13.0706C25.3682 13.1332 25.3337 13.185 25.2871 13.2259C25.2759 13.1389 25.3105 13.0872 25.3906 13.0706Z" fill="#939599"/>
<path fill-rule="evenodd" clip-rule="evenodd" d="M31.6023 14.5718C31.6023 14.6063 31.6023 14.6408 31.6023 14.6753C31.62 14.9299 31.6545 15.1801 31.7058 15.4259C31.4861 15.5314 31.2704 15.6436 31.0588 15.7624C31.0389 16.1018 31.0648 16.4383 31.1364 16.7718C31.0707 16.8636 30.9844 16.9241 30.8776 16.9529C31.015 15.5815 30.4974 14.5376 29.3246 13.8212C29.2166 13.7679 29.1044 13.7247 28.9882 13.6918C28.9393 13.7127 28.9047 13.7473 28.8846 13.7953C28.5737 13.6461 28.2545 13.5771 27.927 13.5882C27.5257 13.62 27.1461 13.7236 26.7882 13.8988C26.7055 13.8478 26.6192 13.8392 26.5294 13.8729C26.5712 13.8889 26.6057 13.9148 26.6329 13.9506C26.0962 14.2298 25.6994 14.6439 25.4423 15.1929C25.3623 15.2422 25.276 15.2595 25.1835 15.2447C25.3825 14.6918 25.7276 14.2518 26.2188 13.9247C26.1606 13.8707 26.0916 13.8362 26.0117 13.8212C26.1356 13.6826 26.2822 13.6567 26.4517 13.7435C27.2123 13.3381 27.9973 13.2518 28.807 13.4847C28.8551 13.4232 28.8723 13.3542 28.8588 13.2776C29.1052 13.3686 29.3382 13.4549 29.5576 13.5365C29.7082 13.4813 29.8549 13.4382 29.9976 13.4071C30.0534 13.5128 30.1397 13.5818 30.2564 13.6141C30.1026 13.6552 29.9473 13.6897 29.7905 13.7176C30.1474 13.9192 30.4149 14.2039 30.5929 14.5718C30.6101 14.5545 30.6274 14.5372 30.6446 14.52C30.8066 14.5526 30.9706 14.5871 31.1364 14.6235C31.2129 14.8066 31.2906 14.9619 31.3694 15.0894C31.3783 14.9172 31.3696 14.7447 31.3435 14.5718C31.4298 14.5718 31.516 14.5718 31.6023 14.5718Z" fill="#E9ECF4"/>
<path fill-rule="evenodd" clip-rule="evenodd" d="M23.6306 13.2776C23.5128 13.4944 23.3575 13.6842 23.1647 13.8471C23.283 13.6283 23.4382 13.4385 23.6306 13.2776Z" fill="#7A7C7D"/>
<path fill-rule="evenodd" clip-rule="evenodd" d="M23.1647 13.847C23.0932 13.9531 23.0069 14.0394 22.9059 14.1059C22.9415 13.9667 23.0278 13.8804 23.1647 13.847Z" fill="#828486"/>
<path fill-rule="evenodd" clip-rule="evenodd" d="M25.6493 16.4871C25.7011 16.4871 25.7528 16.4871 25.8046 16.4871C26.0948 17.993 27.0093 18.6918 28.5481 18.5836C29.6155 18.3297 30.2021 17.6568 30.3081 16.5647C30.1196 14.8209 29.1705 14.0445 27.4611 14.2353C26.8793 14.3969 26.4134 14.7248 26.0634 15.2188C25.8984 15.287 25.7258 15.3128 25.5458 15.2965C25.6548 15.2464 25.7757 15.2291 25.9081 15.2447C26.2375 14.632 26.7465 14.2352 27.4352 14.0541C28.0007 14.0444 28.5615 14.0875 29.1175 14.1836C29.8752 14.5452 30.3496 15.1405 30.5411 15.9694C30.5391 16.3146 30.5822 16.6511 30.6705 16.9788C29.871 18.8028 28.5942 19.3032 26.8399 18.48C26.6156 18.2988 26.3912 18.1177 26.167 17.9365C26.0762 17.6731 25.9468 17.4143 25.7787 17.16C25.6943 16.9432 25.6512 16.7189 25.6493 16.4871Z" fill="#E9E5EE"/>
<path fill-rule="evenodd" clip-rule="evenodd" d="M25.6494 16.487C25.6149 16.487 25.5976 16.4698 25.5976 16.4353C25.7529 16.4353 25.9082 16.4353 26.0635 16.4353C26.1319 16.4441 26.1923 16.4268 26.2447 16.3835C26.3269 17.381 26.8704 17.9763 27.8753 18.1694C28.65 18.2509 29.2453 17.9662 29.6612 17.3153C30.0067 16.455 29.8601 15.6871 29.2212 15.0117C28.9539 14.8106 28.6606 14.664 28.3412 14.5717C28.2498 14.6691 28.1376 14.6864 28.0047 14.6235C27.312 14.6448 26.7857 14.9468 26.4259 15.5294C26.3768 15.5544 26.325 15.563 26.2706 15.5553C26.1979 15.4812 26.1117 15.4208 26.0117 15.3741C25.6498 15.3482 25.2874 15.3396 24.9247 15.3482C24.9247 15.331 24.9247 15.3137 24.9247 15.2965C25.1317 15.2965 25.3388 15.2965 25.5459 15.2965C25.7259 15.3128 25.8985 15.2869 26.0635 15.2188C26.4135 14.7247 26.8794 14.3969 27.4612 14.2353C29.1706 14.0444 30.1196 14.8209 30.3082 16.5647C30.2022 17.6568 29.6155 18.3297 28.5482 18.5835C27.0094 18.6917 26.0949 17.9929 25.8047 16.487C25.7529 16.487 25.7012 16.487 25.6494 16.487Z" fill="#EAE1EA"/>
<path fill-rule="evenodd" clip-rule="evenodd" d="M26.0635 16.4353C26.0988 16.3485 26.1679 16.314 26.2705 16.3318C26.2705 16.28 26.2705 16.2282 26.2705 16.1765C26.3395 15.9694 26.3395 15.7624 26.2705 15.5553C26.325 15.563 26.3768 15.5544 26.4258 15.5294C26.7856 14.9468 27.3119 14.6448 28.0047 14.6235C28.1376 14.6864 28.2498 14.6691 28.3411 14.5718C28.6606 14.664 28.9539 14.8107 29.2211 15.0118C29.8601 15.6872 30.0067 16.455 29.6611 17.3153C29.2452 17.9662 28.65 18.251 27.8752 18.1694C26.8704 17.9763 26.3269 17.381 26.2447 16.3835C26.1923 16.4269 26.1319 16.4441 26.0635 16.4353Z" fill="#EADCE4"/>
<path fill-rule="evenodd" clip-rule="evenodd" d="M22.4917 14.52C22.4572 14.6581 22.371 14.7443 22.2329 14.7788C22.3019 14.6753 22.3882 14.589 22.4917 14.52Z" fill="#7C7E80"/>
<path opacity="0.998" fill-rule="evenodd" clip-rule="evenodd" d="M1.8376 14.8823C2.06236 15.0912 2.30393 15.2896 2.5623 15.4776C3.33895 16.073 4.2017 16.5044 5.15054 16.7717C6.6057 17.1301 8.07235 17.1905 9.55054 16.9529C9.56778 16.9702 9.58507 16.9874 9.60231 17.0047C9.1623 17.6086 8.72231 18.2125 8.28231 18.8164C7.53865 19.9235 6.90024 21.0969 6.36701 22.3364C6.12392 22.6826 5.88234 23.0277 5.64231 23.3717C5.02632 24.1605 4.28435 24.799 3.41642 25.287C3.21446 26.0089 2.97289 26.7164 2.69172 27.4094C2.65563 27.5173 2.59523 27.6036 2.51054 27.6682C2.38751 27.4674 2.32712 27.2431 2.32936 26.9953C1.87977 26.5687 1.75035 26.0596 1.94113 25.4682C1.18472 25.0592 0.925898 24.438 1.16466 23.6047C0.533563 22.943 0.4818 22.2355 1.00936 21.4823C0.868005 21.3464 0.773099 21.1825 0.724658 20.9906C0.707405 20.7663 0.690146 20.5419 0.672893 20.3176C0.37449 19.5981 0.538414 18.9942 1.16466 18.5059C0.93928 18.1565 0.861632 17.7769 0.931717 17.367C1.0568 17.1214 1.14308 16.8625 1.19054 16.5906C1.48915 16.1779 1.64444 15.712 1.65642 15.1929C1.67836 15.0622 1.73875 14.9587 1.8376 14.8823Z" fill="#EBF1F9"/>
<path fill-rule="evenodd" clip-rule="evenodd" d="M28.0305 14.8306C28.2561 14.8826 28.4804 14.9431 28.7034 15.0117C28.8515 15.1066 28.981 15.2187 29.0917 15.3482C29.1089 15.331 29.1262 15.3137 29.1434 15.2964C29.5432 15.7553 29.6812 16.2902 29.5576 16.9012C29.0244 17.8848 28.2565 18.135 27.254 17.6517C26.6135 17.2291 26.3979 16.6684 26.607 15.9694C26.8314 15.2945 27.2887 14.9408 27.9787 14.9082C28.0075 14.8884 28.0248 14.8625 28.0305 14.8306Z" fill="#ECD7DF"/>
<path fill-rule="evenodd" clip-rule="evenodd" d="M23.4752 14.9859C23.4695 15.0178 23.4522 15.0437 23.4235 15.0635C23.5041 15.0744 23.5731 15.1003 23.6305 15.1411C23.5125 15.163 23.4262 15.1285 23.3717 15.0376C23.3894 14.9942 23.4239 14.9769 23.4752 14.9859Z" fill="#BFC3C9"/>
<path fill-rule="evenodd" clip-rule="evenodd" d="M22.233 14.8306C22.0061 15.018 21.9198 15.2595 21.9741 15.5553C21.9152 15.4101 21.9066 15.2548 21.9483 15.0894C22.0039 14.9559 22.0988 14.8696 22.233 14.8306Z" fill="#8B8D90"/>
<path fill-rule="evenodd" clip-rule="evenodd" d="M23.3718 15.0377C23.4262 15.1286 23.5125 15.1631 23.6306 15.1412C23.7133 15.1273 23.7823 15.1446 23.8376 15.193C23.6651 15.193 23.4925 15.193 23.32 15.193C23.3077 15.1261 23.325 15.0744 23.3718 15.0377Z" fill="#818386"/>
<path fill-rule="evenodd" clip-rule="evenodd" d="M23.8376 15.2447C24.2097 15.2279 24.572 15.2452 24.9247 15.2965C24.9247 15.3137 24.9247 15.331 24.9247 15.3482C24.5532 15.3305 24.1908 15.296 23.8376 15.2447Z" fill="#767678"/>
<path fill-rule="evenodd" clip-rule="evenodd" d="M27.72 15.2964C28.7546 15.321 29.1946 15.8386 29.04 16.8494C28.6975 17.3742 28.2231 17.5381 27.6164 17.3412C27.1187 17.0617 26.903 16.639 26.9694 16.0729C27.1619 15.751 27.4122 15.4922 27.72 15.2964Z" fill="#ECD0D9"/>
<path fill-rule="evenodd" clip-rule="evenodd" d="M22.1811 15.8141C22.3797 15.8708 22.5695 15.9398 22.7505 16.0211C22.5759 16.0121 22.4033 15.9863 22.2329 15.9435C22.1939 15.9088 22.1767 15.8656 22.1811 15.8141Z" fill="#B1B5BA"/>
<path fill-rule="evenodd" clip-rule="evenodd" d="M23.2682 16.1247C23.4997 16.1532 23.7241 16.1877 23.9411 16.2282C23.7333 16.2368 23.5263 16.2282 23.32 16.2023C23.2912 16.1825 23.2739 16.1566 23.2682 16.1247Z" fill="#86888B"/>
<path fill-rule="evenodd" clip-rule="evenodd" d="M26.2705 16.1765C26.2705 16.2282 26.2705 16.28 26.2705 16.3317C26.1679 16.314 26.0988 16.3485 26.0635 16.4353C25.9082 16.4353 25.7529 16.4353 25.5976 16.4353C25.4927 16.4437 25.3891 16.435 25.287 16.4094C25.2582 16.3896 25.241 16.3637 25.2352 16.3317C25.4169 16.3404 25.5981 16.3577 25.7788 16.3835C25.9674 16.3622 26.1313 16.2932 26.2705 16.1765Z" fill="#A7A4A9"/>
<path fill-rule="evenodd" clip-rule="evenodd" d="M30.8776 16.9529C30.6752 18.094 30.0368 18.8274 28.9624 19.1529C28.8033 19.3935 28.6653 19.6436 28.5482 19.9035C28.531 19.9035 28.5137 19.9035 28.4965 19.9035C28.371 19.9194 28.2502 19.9022 28.1341 19.8517C28.1686 19.7827 28.2031 19.7137 28.2376 19.6447C27.8577 19.5669 27.4782 19.4893 27.0988 19.4117C26.9908 19.3707 26.8959 19.3103 26.8141 19.2306C26.7769 19.2798 26.7338 19.2884 26.6847 19.2564C26.3029 19.0389 25.9579 18.7715 25.6494 18.4541C25.6204 18.3544 25.6118 18.2509 25.6235 18.1435C25.4476 17.8308 25.275 17.5203 25.1059 17.2117C25.0135 16.9433 24.9704 16.6672 24.9765 16.3835C24.7076 16.4001 24.4487 16.3828 24.2 16.3317C24.5451 16.3317 24.8902 16.3317 25.2353 16.3317C25.241 16.3637 25.2583 16.3896 25.2871 16.4094C25.3892 16.435 25.4927 16.4436 25.5976 16.4353C25.5976 16.4698 25.6149 16.487 25.6494 16.487C25.6513 16.7189 25.6944 16.9432 25.7788 17.16C25.9469 17.4142 26.0763 17.6731 26.1671 17.9364C26.3914 18.1176 26.6157 18.2988 26.84 18.48C28.5943 19.3031 29.8711 18.8027 30.6706 16.9788C30.5823 16.651 30.5392 16.3145 30.5412 15.9694C30.3498 15.1404 29.8753 14.5451 29.1176 14.1835C28.5616 14.0875 28.0008 14.0444 27.4353 14.0541C26.7466 14.2352 26.2376 14.632 25.9082 15.2447C25.7758 15.229 25.655 15.2463 25.5459 15.2964C25.3388 15.2964 25.1318 15.2964 24.9247 15.2964C24.572 15.2451 24.2097 15.2279 23.8376 15.2447C23.8376 15.2274 23.8376 15.2101 23.8376 15.1929C24.288 15.182 24.7366 15.1993 25.1835 15.2447C25.2761 15.2594 25.3624 15.2422 25.4424 15.1929C25.6994 14.6438 26.0963 14.2297 26.6329 13.9506C26.6058 13.9147 26.5712 13.8889 26.5294 13.8729C26.6192 13.8392 26.7055 13.8478 26.7882 13.8988C27.1462 13.7235 27.5258 13.62 27.9271 13.5882C28.2546 13.577 28.5738 13.6461 28.8847 13.7953C28.9048 13.7472 28.9393 13.7127 28.9882 13.6917C29.1044 13.7247 29.2166 13.7678 29.3247 13.8211C30.4974 14.5375 31.0151 15.5815 30.8776 16.9529Z" fill="#E9E9F2"/>
<path fill-rule="evenodd" clip-rule="evenodd" d="M12.1905 17.3153C12.3881 17.3661 12.5951 17.4006 12.8117 17.4188C13.2711 17.4598 13.737 17.5115 14.2094 17.5741C14.2202 17.6044 14.2375 17.6303 14.2611 17.6518C14.6139 17.6634 14.959 17.7151 15.2964 17.807C15.427 17.8566 15.5391 17.9342 15.6329 18.04C15.6587 18.229 15.6673 18.4188 15.6588 18.6094C15.6072 18.605 15.5641 18.6222 15.5294 18.6612C15.4217 18.7939 15.3268 18.932 15.2447 19.0753C15.0204 19.2651 14.8133 19.4722 14.6235 19.6965C14.5372 19.7482 14.4682 19.8172 14.4164 19.9035C14.3301 19.9553 14.2611 20.0243 14.2094 20.1106C14.1274 20.262 14.0238 20.4 13.8988 20.5247C13.838 20.5772 13.8035 20.6462 13.7952 20.7318C13.6386 20.8539 13.5005 20.992 13.3811 21.1459C13.162 21.3466 12.9032 21.3984 12.6047 21.3012C12.5859 21.2658 12.5686 21.2313 12.5529 21.1976C12.5441 21.0761 12.5269 20.9553 12.5011 20.8353C12.5125 20.7218 12.5469 20.6182 12.6047 20.5247C12.7268 20.454 12.8131 20.3505 12.8635 20.2141C12.9363 20.1896 12.9708 20.1379 12.967 20.0588C13.0015 20.0243 13.036 19.9898 13.0705 19.9553C13.1433 19.9308 13.1779 19.879 13.1741 19.8C13.2056 19.7539 13.2229 19.7021 13.2258 19.6447C13.3857 19.5712 13.4892 19.4504 13.5364 19.2823C13.6092 19.2579 13.6437 19.2061 13.64 19.127C13.7792 18.9881 13.9345 18.8673 14.1058 18.7647C14.1926 18.7293 14.2271 18.6603 14.2094 18.5576C14.0333 18.5658 13.8607 18.5485 13.6917 18.5059C13.5019 18.5059 13.3121 18.5059 13.1223 18.5059C12.8607 18.4148 12.5847 18.3802 12.2941 18.4023C12.068 18.315 11.8264 18.2718 11.5694 18.2729C11.4728 18.223 11.3865 18.1626 11.3105 18.0918C11.2624 17.8899 11.2452 17.6828 11.2588 17.4706C11.3231 17.3844 11.4094 17.324 11.5176 17.2894C11.7464 17.2496 11.9707 17.2582 12.1905 17.3153Z" fill="#333333"/>
<path fill-rule="evenodd" clip-rule="evenodd" d="M12.1906 17.3153C12.3811 17.3067 12.5709 17.3153 12.76 17.3411C12.7887 17.361 12.806 17.3869 12.8117 17.4188C12.5951 17.4006 12.3881 17.3661 12.1906 17.3153Z" fill="#919396"/>
<path fill-rule="evenodd" clip-rule="evenodd" d="M11.2588 17.4706C11.2452 17.6828 11.2624 17.8899 11.3106 18.0918C11.2436 18.0116 11.2091 17.9081 11.207 17.7812C11.2073 17.6675 11.2245 17.564 11.2588 17.4706Z" fill="#8E9093"/>
<path fill-rule="evenodd" clip-rule="evenodd" d="M24.9764 18.0917C24.8154 18.0795 24.6601 18.0968 24.5105 18.1435C24.563 18.078 24.6406 18.0435 24.7434 18.04C24.8318 18.0404 24.9094 18.0577 24.9764 18.0917Z" fill="#A5A7AB"/>
<path fill-rule="evenodd" clip-rule="evenodd" d="M24.9764 18.0918C25.193 18.2828 25.331 18.5243 25.3905 18.8165C25.4646 19.0206 25.5164 19.2276 25.5458 19.4376C25.5837 19.6601 25.6182 19.8844 25.6493 20.1106C25.6295 20.6665 25.595 21.2187 25.5458 21.767C25.4975 21.8223 25.4802 21.8913 25.494 21.9741C25.4118 22.0576 25.3601 22.1611 25.3388 22.2847C25.2881 22.3859 25.2364 22.4895 25.1835 22.5953C25.1107 22.6198 25.0762 22.6715 25.0799 22.7506C24.9433 22.8527 24.8225 22.9735 24.7176 23.1129C24.5836 23.1605 24.48 23.2468 24.407 23.3718C24.3444 23.3941 24.2926 23.4286 24.2517 23.4753C24.1891 23.4976 24.1373 23.5322 24.0964 23.5788C23.9282 23.6881 23.7729 23.8089 23.6305 23.9412C23.5247 23.9933 23.4212 24.0451 23.3199 24.0965C23.2425 24.1218 23.1735 24.1562 23.1129 24.2C23.0194 24.2271 22.9331 24.2616 22.854 24.3035C22.854 24.338 22.8368 24.3553 22.8023 24.3553C22.6026 24.385 22.4128 24.4368 22.2329 24.5106C22.089 24.5405 21.9509 24.575 21.8188 24.6141C21.8188 24.6486 21.8015 24.6659 21.767 24.6659C21.3534 24.7402 20.9307 24.7747 20.4988 24.7694C20.2116 24.767 19.9269 24.7497 19.6446 24.7176C19.25 24.6752 18.8704 24.5889 18.5058 24.4588C18.4402 24.3787 18.3539 24.327 18.247 24.3035C18.1925 24.3112 18.1408 24.3026 18.0917 24.2776C17.8383 24.074 17.5795 23.8842 17.3152 23.7082C17.1479 23.5497 16.9926 23.3858 16.8493 23.2165C16.8531 23.1374 16.8186 23.0856 16.7458 23.0612C16.7274 22.9737 16.6756 22.9219 16.5905 22.9059C16.5383 22.8001 16.4866 22.6965 16.4352 22.5953C16.3029 22.4313 16.2511 22.2415 16.2799 22.0259C16.342 21.8659 16.4369 21.7278 16.5646 21.6118C16.9441 21.4678 17.3151 21.3125 17.6776 21.1459C17.8509 21.1349 18.0062 21.0832 18.1435 20.9906C18.2847 20.8849 18.44 20.7986 18.6093 20.7318C18.7826 20.7208 18.9379 20.6691 19.0752 20.5765C19.1393 20.4938 19.2255 20.4334 19.334 20.3953C20.1378 20.0568 20.9315 19.7031 21.7152 19.3341C21.8877 19.3591 22.0257 19.3073 22.1293 19.1788C22.9311 18.8623 23.7248 18.5172 24.5105 18.1435C24.6602 18.0968 24.8155 18.0795 24.9764 18.0918Z" fill="#333333"/>
<path fill-rule="evenodd" clip-rule="evenodd" d="M12.2941 18.4023C12.5847 18.3802 12.8607 18.4148 13.1223 18.5059C12.8317 18.528 12.5556 18.4935 12.2941 18.4023Z" fill="#CDD1D8"/>
<path fill-rule="evenodd" clip-rule="evenodd" d="M13.6918 18.5059C13.8607 18.5485 14.0333 18.5658 14.2094 18.5576C14.2272 18.6603 14.1926 18.7293 14.1059 18.7647C14.1216 18.731 14.1389 18.6965 14.1577 18.6612C14.0227 18.6188 13.8846 18.5929 13.7435 18.5835C13.7148 18.5637 13.6975 18.5378 13.6918 18.5059Z" fill="#717273"/>
<path fill-rule="evenodd" clip-rule="evenodd" d="M15.6587 18.6094C15.5577 18.7968 15.4196 18.9521 15.2446 19.0753C15.3268 18.932 15.4217 18.7939 15.5293 18.6612C15.5641 18.6222 15.6072 18.6049 15.6587 18.6094Z" fill="#AFB2B7"/>
<path fill-rule="evenodd" clip-rule="evenodd" d="M13.6399 19.1271C13.6437 19.2061 13.6092 19.2579 13.5364 19.2824C13.4749 19.3107 13.4145 19.328 13.3552 19.3341C12.7615 19.1428 12.1662 19.1514 11.5693 19.36C10.3515 19.9446 9.71306 20.9195 9.65405 22.2847C9.71058 23.2179 10.0729 24.0202 10.7411 24.6918C12.0827 25.5626 13.2992 25.4159 14.3905 24.2518C15.1646 23.2292 15.3716 22.1076 15.0117 20.8871C14.8381 20.5391 14.6397 20.2113 14.4164 19.9035C14.4682 19.8172 14.5372 19.7482 14.6235 19.6965C14.6279 19.748 14.6106 19.7912 14.5717 19.8259C15.1093 20.3754 15.4026 21.0397 15.4517 21.8188C15.434 23.0796 14.9509 24.1322 14.0023 24.9765C12.9033 25.7244 11.799 25.7331 10.6893 25.0024C9.48276 23.8326 9.16353 22.4436 9.7317 20.8353C10.581 19.2419 11.8837 18.6725 13.6399 19.1271Z" fill="#EAECF4"/>
<path fill-rule="evenodd" clip-rule="evenodd" d="M25.3905 18.8165C25.4401 18.8399 25.4833 18.8744 25.5199 18.92C25.5457 19.0917 25.5543 19.2642 25.5458 19.4376C25.5164 19.2276 25.4646 19.0206 25.3905 18.8165Z" fill="#9C9FA2"/>
<path fill-rule="evenodd" clip-rule="evenodd" d="M13.5364 19.2823C13.4892 19.4504 13.3857 19.5712 13.2258 19.6447C11.5497 19.4336 10.5058 20.1411 10.0941 21.767C9.94513 22.8597 10.2988 23.7656 11.1552 24.4847C11.9469 24.9989 12.7406 24.9989 13.5364 24.4847C14.864 23.4236 15.166 22.1209 14.4423 20.5764C14.3713 20.4967 14.2937 20.4276 14.2093 20.3694C14.2643 20.2866 14.2643 20.2003 14.2093 20.1106C14.2611 20.0243 14.3301 19.9553 14.4164 19.9035C14.6397 20.2112 14.8381 20.5391 15.0117 20.887C15.3716 22.1075 15.1646 23.2291 14.3905 24.2517C13.2992 25.4159 12.0827 25.5626 10.7411 24.6917C10.0729 24.0202 9.71058 23.2178 9.65405 22.2847C9.71306 20.9195 10.3515 19.9446 11.5693 19.36C12.1662 19.1514 12.7615 19.1428 13.3552 19.3341C13.4145 19.3279 13.4749 19.3107 13.5364 19.2823Z" fill="#EAE9F1"/>
<path fill-rule="evenodd" clip-rule="evenodd" d="M22.1293 19.1788C22.0256 19.3073 21.8876 19.3591 21.7152 19.3341C21.851 19.2827 21.989 19.2309 22.1293 19.1788Z" fill="#B3B6BC"/>
<path fill-rule="evenodd" clip-rule="evenodd" d="M13.2258 19.6447C13.2228 19.7021 13.2056 19.7539 13.174 19.8C13.1395 19.8172 13.105 19.8345 13.0705 19.8518C11.8221 19.6262 10.9334 20.0921 10.4046 21.2494C10.0619 22.2263 10.1999 23.1236 10.8187 23.9412C11.637 24.7686 12.5428 24.8808 13.5364 24.2776C14.7552 23.1967 14.9709 21.9457 14.1834 20.5247C14.1487 20.4858 14.1056 20.4685 14.054 20.4729C14.0785 20.4002 14.1303 20.3656 14.2093 20.3694C14.2936 20.4276 14.3713 20.4967 14.4422 20.5765C15.166 22.1209 14.864 23.4236 13.5364 24.4847C12.7405 24.9989 11.9468 24.9989 11.1552 24.4847C10.2988 23.7656 9.94508 22.8598 10.094 21.7671C10.5057 20.1411 11.5497 19.4337 13.2258 19.6447Z" fill="#EBE6EE"/>
<path fill-rule="evenodd" clip-rule="evenodd" d="M13.0706 19.8517C13.0706 19.8863 13.0706 19.9207 13.0706 19.9553C13.036 19.9898 13.0016 20.0243 12.967 20.0588C12.9325 20.076 12.898 20.0933 12.8635 20.1106C11.7465 20.0092 10.9959 20.4923 10.6117 21.56C10.4115 22.304 10.5323 22.9942 10.9741 23.6306C11.5401 24.3079 12.239 24.4891 13.0706 24.1741C13.9217 23.6777 14.3531 22.9443 14.3647 21.9741C14.35 21.7828 14.3242 21.593 14.287 21.4047C14.1558 21.1081 14.0264 20.8148 13.8988 20.5247C13.9656 20.537 14.0174 20.5197 14.0541 20.4729C14.1057 20.4685 14.1488 20.4858 14.1835 20.5247C14.971 21.9457 14.7553 23.1967 13.5365 24.2776C12.5429 24.8807 11.6371 24.7686 10.8188 23.9412C10.2 23.1235 10.062 22.2263 10.4047 21.2494C10.9335 20.0921 11.8222 19.6262 13.0706 19.8517Z" fill="#EBE2EB"/>
<path fill-rule="evenodd" clip-rule="evenodd" d="M26.9435 24.9247C27.2293 23.1771 27.7469 21.5034 28.4964 19.9035C28.5137 19.9035 28.5309 19.9035 28.5482 19.9035C28.7908 19.886 29.0323 19.8774 29.2729 19.8776C29.2035 19.9992 29.1345 20.12 29.0658 20.24C29.1116 20.2968 29.1634 20.3227 29.2211 20.3176C28.6954 21.2993 28.3072 22.3346 28.0564 23.4235C27.6945 23.9319 27.3235 24.4323 26.9435 24.9247Z" fill="#E6EEF7"/>
<path fill-rule="evenodd" clip-rule="evenodd" d="M13.1741 19.8C13.1779 19.879 13.1433 19.9308 13.0706 19.9553C13.0706 19.9208 13.0706 19.8863 13.0706 19.8518C13.1051 19.8345 13.1396 19.8172 13.1741 19.8Z" fill="#918E91"/>
<path fill-rule="evenodd" clip-rule="evenodd" d="M12.9671 20.0588C12.9708 20.1379 12.9363 20.1896 12.8635 20.2141C12.8635 20.1796 12.8635 20.1451 12.8635 20.1106C12.8981 20.0934 12.9325 20.0761 12.9671 20.0588Z" fill="#908C8F"/>
<path fill-rule="evenodd" clip-rule="evenodd" d="M12.8635 20.1106C12.8635 20.1451 12.8635 20.1796 12.8635 20.2141C12.7586 20.2846 12.6723 20.3708 12.6047 20.473C11.6912 20.515 11.1305 20.9809 10.9223 21.8706C10.7937 22.645 11.0439 23.2575 11.6729 23.7083C12.5708 24.0589 13.2696 23.8087 13.7694 22.9577C14.0998 22.2923 14.0567 21.6367 13.64 20.9906C13.733 20.9287 13.7848 20.8425 13.7953 20.7318C13.8035 20.6462 13.838 20.5772 13.8988 20.5247C14.0264 20.8148 14.1558 21.1082 14.287 21.4047C14.3241 21.593 14.35 21.7828 14.3647 21.9741C14.3531 22.9444 13.9217 23.6777 13.0706 24.1741C12.239 24.4891 11.5401 24.3079 10.9741 23.6306C10.5323 22.9943 10.4115 22.304 10.6117 21.56C10.9959 20.4923 11.7465 20.0092 12.8635 20.1106Z" fill="#EBDDE5"/>
<path fill-rule="evenodd" clip-rule="evenodd" d="M12.8634 20.2141C12.8131 20.3505 12.7268 20.454 12.6046 20.5247C12.6046 20.5075 12.6046 20.4902 12.6046 20.4729C12.6722 20.3708 12.7585 20.2846 12.8634 20.2141Z" fill="#817C7F"/>
<path fill-rule="evenodd" clip-rule="evenodd" d="M14.2094 20.1106C14.2644 20.2004 14.2644 20.2866 14.2094 20.3694C14.1303 20.3656 14.0786 20.4002 14.0541 20.4729C14.0174 20.5197 13.9656 20.537 13.8988 20.5247C14.0239 20.4001 14.1274 20.2621 14.2094 20.1106Z" fill="#C8C4CA"/>
<path fill-rule="evenodd" clip-rule="evenodd" d="M12.6046 20.473C12.6046 20.4902 12.6046 20.5075 12.6046 20.5247C12.4991 20.5854 12.4301 20.6716 12.3976 20.7835C11.807 20.9688 11.436 21.3657 11.2846 21.9741C11.201 22.7705 11.5547 23.2709 12.3458 23.4753C13.1474 23.3201 13.5788 22.8284 13.6399 22C13.5891 21.7356 13.5028 21.4854 13.3811 21.2494C13.3811 21.2149 13.3811 21.1804 13.3811 21.1459C13.5005 20.992 13.6385 20.8539 13.7952 20.7318C13.7847 20.8425 13.7329 20.9287 13.6399 20.9906C14.0566 21.6367 14.0998 22.2923 13.7693 22.9577C13.2696 23.8087 12.5708 24.0589 11.6729 23.7083C11.0439 23.2575 10.7937 22.645 10.9223 21.8706C11.1304 20.9809 11.6912 20.515 12.6046 20.473Z" fill="#ECD6DF"/>
<path fill-rule="evenodd" clip-rule="evenodd" d="M19.0753 20.5765C18.938 20.6691 18.7827 20.7208 18.6094 20.7318C18.7467 20.6392 18.9019 20.5874 19.0753 20.5765Z" fill="#7D7F81"/>
<path fill-rule="evenodd" clip-rule="evenodd" d="M12.6046 20.5247C12.5469 20.6183 12.5124 20.7218 12.5011 20.8353C12.5268 20.9553 12.5441 21.0761 12.5529 21.1977C12.5356 21.1977 12.5184 21.1977 12.5011 21.1977C12.4422 21.068 12.4076 20.93 12.3976 20.7835C12.4301 20.6716 12.4991 20.5854 12.6046 20.5247Z" fill="#7D7678"/>
<path fill-rule="evenodd" clip-rule="evenodd" d="M18.1435 20.9906C18.0062 21.0832 17.8509 21.135 17.6776 21.1459C17.8149 21.0533 17.9702 21.0015 18.1435 20.9906Z" fill="#7A7B7D"/>
<path fill-rule="evenodd" clip-rule="evenodd" d="M12.3976 20.7835C12.4077 20.93 12.4422 21.068 12.5012 21.1976C12.5032 21.2537 12.5205 21.3055 12.5529 21.3529C12.3332 21.3944 12.1348 21.4807 11.9576 21.6117C11.665 22.0579 11.7081 22.4633 12.0871 22.8282C12.2956 22.9272 12.5027 22.9272 12.7082 22.8282C13.2129 22.407 13.2475 21.9584 12.8118 21.4823C13.0331 21.4651 13.2228 21.3874 13.3812 21.2494C13.5029 21.4854 13.5892 21.7356 13.64 22C13.5789 22.8283 13.1475 23.3201 12.3459 23.4753C11.5548 23.2709 11.2011 22.7704 11.2847 21.9741C11.4361 21.3657 11.8071 20.9688 12.3976 20.7835Z" fill="#EDD0D9"/>
<path fill-rule="evenodd" clip-rule="evenodd" d="M25.6493 20.1106C25.6835 20.1952 25.7008 20.2901 25.7011 20.3953C25.6929 20.8727 25.6411 21.33 25.5458 21.7671C25.595 21.2187 25.6294 20.6665 25.6493 20.1106Z" fill="#9DA1A4"/>
<path fill-rule="evenodd" clip-rule="evenodd" d="M13.3811 21.1459C13.3811 21.1804 13.3811 21.2149 13.3811 21.2494C13.2227 21.3875 13.033 21.4651 12.8117 21.4823C13.2474 21.9584 13.2128 22.407 12.7081 22.8282C12.5026 22.9273 12.2955 22.9273 12.087 22.8282C11.708 22.4633 11.6649 22.0579 11.9576 21.6118C12.1347 21.4807 12.3331 21.3944 12.5528 21.3529C12.5204 21.3055 12.5031 21.2537 12.5011 21.1976C12.5183 21.1976 12.5356 21.1976 12.5528 21.1976C12.5686 21.2313 12.5858 21.2658 12.6046 21.3012C12.9031 21.3984 13.162 21.3466 13.3811 21.1459Z" fill="#ECCCD5"/>
<path fill-rule="evenodd" clip-rule="evenodd" d="M25.494 21.9741C25.4878 22.109 25.436 22.2125 25.3387 22.2847C25.3601 22.1611 25.4118 22.0576 25.494 21.9741Z" fill="#B9BDC2"/>
<path fill-rule="evenodd" clip-rule="evenodd" d="M16.2799 22.0259C16.2512 22.2415 16.3029 22.4313 16.4352 22.5953C16.3835 22.5953 16.3317 22.5953 16.2799 22.5953C16.222 22.3978 16.222 22.2079 16.2799 22.0259Z" fill="#CACFD5"/>
<path fill-rule="evenodd" clip-rule="evenodd" d="M25.1835 22.5953C25.1873 22.6743 25.1528 22.7261 25.08 22.7506C25.0762 22.6715 25.1107 22.6198 25.1835 22.5953Z" fill="#A0A4A8"/>
<path fill-rule="evenodd" clip-rule="evenodd" d="M16.4353 22.5953C16.4866 22.6965 16.5384 22.8001 16.5906 22.9059C16.4624 22.8444 16.4107 22.7409 16.4353 22.5953Z" fill="#BDC1C6"/>
<path fill-rule="evenodd" clip-rule="evenodd" d="M16.7459 23.0612C16.8187 23.0856 16.8532 23.1374 16.8494 23.2165C16.7766 23.192 16.7421 23.1402 16.7459 23.0612Z" fill="#A9ACB1"/>
<path fill-rule="evenodd" clip-rule="evenodd" d="M24.7176 23.1129C24.6445 23.2379 24.541 23.3242 24.407 23.3717C24.48 23.2468 24.5836 23.1605 24.7176 23.1129Z" fill="#BDC2C7"/>
<path fill-rule="evenodd" clip-rule="evenodd" d="M24.2517 23.4753C24.2351 23.5554 24.1833 23.5899 24.0964 23.5788C24.1373 23.5322 24.1891 23.4976 24.2517 23.4753Z" fill="#A7AAAF"/>
<path fill-rule="evenodd" clip-rule="evenodd" d="M23.6305 23.9412C23.5691 24.0693 23.4656 24.121 23.3199 24.0965C23.4212 24.0451 23.5247 23.9933 23.6305 23.9412Z" fill="#B7BBC0"/>
<path fill-rule="evenodd" clip-rule="evenodd" d="M23.1129 24.2C23.0585 24.2909 22.9722 24.3254 22.8541 24.3035C22.9332 24.2617 23.0195 24.2271 23.1129 24.2Z" fill="#ADB0B5"/>
<path fill-rule="evenodd" clip-rule="evenodd" d="M22.8023 24.3553C22.6399 24.478 22.4501 24.5298 22.2329 24.5106C22.4128 24.4368 22.6027 24.385 22.8023 24.3553Z" fill="#9EA1A5"/>
<path fill-rule="evenodd" clip-rule="evenodd" d="M18.2471 24.3035C18.354 24.327 18.4403 24.3787 18.5059 24.4588C18.3617 24.4891 18.2754 24.4373 18.2471 24.3035Z" fill="#C0C4CA"/>
<path fill-rule="evenodd" clip-rule="evenodd" d="M22.2328 24.5106C22.1223 24.6073 21.9843 24.6418 21.8187 24.6141C21.9509 24.575 22.0889 24.5405 22.2328 24.5106Z" fill="#9B9DA1"/>
<path fill-rule="evenodd" clip-rule="evenodd" d="M21.767 24.6659C21.6117 24.6966 21.4564 24.7397 21.3011 24.7953C20.7662 24.8298 20.2313 24.8298 19.6964 24.7953C19.6676 24.7755 19.6504 24.7496 19.6447 24.7177C19.9269 24.7498 20.2116 24.767 20.4988 24.7694C20.9307 24.7748 21.3535 24.7402 21.767 24.6659Z" fill="#979A9E"/>
<path fill-rule="evenodd" clip-rule="evenodd" d="M26.7882 25.1835C26.679 25.4002 26.7308 25.5555 26.9435 25.6494C27.1798 25.6045 27.4386 25.6045 27.72 25.6494C27.679 25.9574 27.6531 26.268 27.6423 26.5812C27.3922 26.7624 27.1764 26.9781 26.9953 27.2282C26.9297 27.2442 26.8693 27.2701 26.8141 27.3059C26.772 28.1911 26.9531 29.0365 27.3576 29.8424C26.3935 30.5054 25.341 30.9885 24.2 31.2918C24.1052 31.1714 24.0362 31.0333 23.9929 30.8777C24.3355 30.7433 24.6806 30.6139 25.0282 30.4894C25.513 30.2615 25.9962 30.0286 26.4776 29.7906C26.3526 29.3896 26.2232 28.9927 26.0894 28.6C25.6564 28.7 25.2164 28.7259 24.7694 28.6777C24.652 28.6217 24.6434 28.544 24.7435 28.4447C24.8319 28.4777 24.9268 28.4777 25.0282 28.4447C25.0282 28.3929 25.0282 28.3412 25.0282 28.2894C25.3928 28.257 25.712 28.119 25.9859 27.8753C25.9564 27.3252 25.9564 26.7731 25.9859 26.2188C26.2674 25.8777 26.5348 25.5326 26.7882 25.1835Z" fill="#E6EEF8"/>
<path opacity="0.999" fill-rule="evenodd" clip-rule="evenodd" d="M24.2517 31.6024C24.3592 31.78 24.4455 31.9698 24.5105 32.1718C24.209 32.2262 23.9156 32.3125 23.6305 32.4306C23.5759 32.6543 23.5414 32.87 23.527 33.0777C23.0379 33.2085 22.5547 33.3552 22.0776 33.5177C19.5844 34.0663 17.0997 34.6443 14.6234 35.2518C13.798 35.5039 12.987 35.7973 12.1905 36.1318C11.9341 36.1379 11.7011 36.0603 11.4917 35.8988C10.6583 36.3529 9.88179 36.8878 9.16226 37.5035C8.88475 37.3342 8.60005 37.2047 8.30815 37.1153C8.02437 37.4853 7.72238 37.839 7.40226 38.1765C7.08831 37.9914 6.76913 37.8189 6.44462 37.6588C6.31603 37.575 6.23839 37.4542 6.21168 37.2965C6.17032 37.059 6.17896 36.8261 6.23756 36.5977C6.04375 36.432 5.81945 36.3198 5.56462 36.2612C5.422 36.1311 5.31848 35.9758 5.25403 35.7953C5.36874 35.7589 5.46362 35.6899 5.53873 35.5882C5.58439 35.4303 5.67933 35.3094 5.82344 35.2259C6.02113 35.3071 6.17642 35.4365 6.28932 35.6141C6.81582 35.9377 7.33347 36.2742 7.84226 36.6235C8.20689 36.2332 8.61237 35.8882 9.05873 35.5882C9.29628 35.7632 9.54646 35.9184 9.80932 36.0541C10.232 35.8169 10.6462 35.5668 11.0517 35.3035C11.6621 35.0457 12.2746 34.7955 12.8893 34.5529C13.0446 34.6737 13.1827 34.8118 13.3034 34.9671C13.8377 34.7946 14.3725 34.6221 14.9081 34.4494C16.3519 34.1124 17.8013 33.8018 19.2564 33.5177C20.5414 33.1942 21.827 32.8664 23.1129 32.5341C23.2593 32.445 23.4146 32.376 23.5787 32.3271C23.6045 32.1368 23.6562 31.9557 23.734 31.7835C23.9208 31.7472 24.0934 31.6868 24.2517 31.6024Z" fill="#E6EEF7"/>
</g>
<defs>
<clipPath id="clip0_107_2056">
<rect width="44" height="44" fill="white"/>
</clipPath>
</defs>
</svg>
