<svg width="44" height="44" viewBox="0 0 44 44" fill="none" xmlns="http://www.w3.org/2000/svg">
<g clip-path="url(#clip0_107_2060)">
<path fill-rule="evenodd" clip-rule="evenodd" d="M28.2894 1.57884C28.2557 1.60941 28.2212 1.64393 28.1859 1.68237C27.812 1.53191 27.441 1.37661 27.073 1.21649C27.0621 1.28393 27.0707 1.35295 27.0988 1.42355C27.0821 1.53064 27.0389 1.5479 26.9694 1.47531C26.9608 1.50982 26.9522 1.54433 26.9435 1.57884C26.9899 1.69793 26.9985 1.81871 26.9694 1.9412C26.6657 1.75692 26.3465 1.61889 26.0118 1.52708C26.071 2.14919 26.0796 2.77036 26.0377 3.39061C26.2577 3.63414 26.5252 3.78943 26.84 3.85649C26.84 3.92551 26.84 3.99453 26.84 4.06355C26.928 4.05526 27.0143 4.06388 27.0988 4.08943C27.0208 4.28046 26.9691 4.47889 26.9435 4.68472C27.6588 4.86225 28.3059 5.17284 28.8847 5.61649C29.0264 5.55903 29.1731 5.55039 29.3247 5.59061C29.5079 5.81661 29.6977 6.03232 29.8941 6.23767C30.1169 6.27442 30.3412 6.3003 30.5671 6.31531C30.7224 6.57414 30.8777 6.83296 31.033 7.09178C31.2716 7.11616 31.4787 7.2024 31.6541 7.35061C31.5078 7.38689 31.3697 7.43866 31.24 7.5059C31.5506 7.71296 31.8612 7.92002 32.1718 8.12708C33.0929 9.16926 34.0937 10.1183 35.1741 10.9741C35.433 11.233 35.6918 11.4918 35.9506 11.7506C35.8732 11.7769 35.8128 11.751 35.7694 11.673C35.7608 11.6902 35.7522 11.7075 35.7435 11.7247C35.9435 12.0024 36.1333 12.2871 36.313 12.5788C36.4804 12.6156 36.6443 12.6588 36.8047 12.7083C37.1412 13.1754 37.4259 13.6758 37.6588 14.2094C37.784 14.239 37.8961 14.2908 37.9953 14.3647C38.1895 15.6236 38.2845 16.866 38.28 18.0918C38.4222 18.0756 38.5603 18.0928 38.6941 18.1435C38.575 18.4992 38.4801 18.8615 38.4094 19.2306C38.3452 19.0132 38.2934 18.7889 38.2541 18.5577C38.1895 19.3941 38.0687 20.2223 37.8918 21.0424C37.8807 21.5447 37.8462 22.0451 37.7883 22.5435C37.771 22.3365 37.7537 22.1294 37.7365 21.9224C37.659 22.3351 37.59 22.7493 37.5294 23.1647C37.4775 23.3982 37.3999 23.6225 37.2965 23.8377C37.408 24.3849 37.4683 24.937 37.4777 25.4941C37.2285 25.753 37.1681 26.0377 37.2965 26.3483C37.2062 26.77 37.1113 27.1927 37.0118 27.6165C36.9815 27.7901 36.9125 27.9454 36.8047 28.0824C36.7903 28.5375 36.7817 28.9688 36.7788 29.3765C36.6002 29.7687 36.419 30.1655 36.2353 30.5671C36.3271 29.9296 36.4134 29.2912 36.4941 28.6518C36.0124 29.9953 35.3739 31.2549 34.5788 32.4306C34.2165 32.862 33.8196 33.2588 33.3883 33.6212C33.3444 33.7088 33.3013 33.7951 33.2588 33.88C33.1592 34.0834 33.0644 34.2904 32.9741 34.5012C32.8001 34.6314 32.6103 34.7349 32.4047 34.8118C32.3194 34.7452 32.259 34.6589 32.2235 34.553C32.1788 34.4969 32.127 34.4883 32.0683 34.5271C31.1355 35.1095 30.1951 35.6704 29.2471 36.2094C29.1592 36.0702 29.0557 35.9494 28.9365 35.8471C28.2155 36.1579 27.4908 36.4857 26.7624 36.8306C26.6734 36.7241 26.5699 36.6378 26.4518 36.5718C26.3079 36.7506 26.1353 36.8887 25.9341 36.9859C25.7263 36.9041 25.5278 36.9214 25.3388 37.0377C25.2023 36.9172 25.047 36.8568 24.873 36.8565C24.9593 36.9428 25.0455 37.029 25.1318 37.1153C24.725 37.2508 24.3281 37.4061 23.9412 37.5812C24.0102 37.6502 24.0793 37.7192 24.1483 37.7883C24.1159 37.8271 24.09 37.8702 24.0706 37.9177C23.9168 37.8662 23.7615 37.8144 23.6047 37.7624C23.3384 37.8441 23.071 37.9217 22.8024 37.9953C22.8196 38.0126 22.8369 38.0298 22.8541 38.0471C22.341 38.1729 21.8234 38.2764 21.3012 38.3577C21.3357 38.3922 21.3702 38.4267 21.4047 38.4612C21.1977 38.4784 20.9906 38.4957 20.7835 38.513C20.7318 38.6683 20.68 38.8235 20.6283 38.9788C19.6669 39.1508 18.7006 39.2888 17.7294 39.393C17.8264 39.5783 17.93 39.7595 18.04 39.9365C17.25 40.0735 16.4649 40.1425 15.6847 40.1435C14.9771 40.2039 14.261 40.2471 13.5365 40.273C12.8374 40.3789 12.2421 40.6809 11.7506 41.1788C11.6095 41.4209 11.5146 41.6798 11.4659 41.9553C11.2764 41.8959 11.1211 41.7838 11 41.6188C10.8787 41.6554 10.758 41.6382 10.6377 41.5671C10.4329 41.4463 10.2259 41.3255 10.0165 41.2047C9.82087 41.012 9.71734 40.779 9.7059 40.5059C9.50288 40.4745 9.30447 40.4228 9.11061 40.3506C8.96634 40.4033 8.81969 40.4119 8.67061 40.3765C8.48482 40.2147 8.295 40.068 8.1012 39.9365C8.3889 39.6365 8.73402 39.4122 9.13649 39.2635C9.31865 39.0383 9.52571 38.8398 9.75767 38.6683C10.0165 38.651 10.2753 38.6337 10.5341 38.6165C10.8808 38.4204 11.2518 38.3082 11.6471 38.28C13.4209 38.4462 15.1895 38.4031 16.953 38.1506C17.0274 38.1393 17.0964 38.1134 17.16 38.073C17.1204 37.98 17.0859 37.8852 17.0565 37.7883C17.0775 37.7393 17.112 37.7048 17.16 37.6847C18.1334 37.5522 19.0996 37.3796 20.0588 37.1671C20.0934 37.1153 20.1278 37.0635 20.1624 37.0118C20.5654 36.8975 20.9622 36.7681 21.353 36.6235C21.2972 36.5082 21.2627 36.3873 21.2494 36.2612C21.4228 36.2697 21.5954 36.2611 21.7671 36.2353C22.1877 35.5724 22.6881 34.9685 23.2683 34.4235C24.0747 34.4106 24.8167 34.1604 25.4941 33.673C25.6211 33.5311 25.7419 33.3844 25.8565 33.233C25.9359 33.2073 26.0136 33.2159 26.0894 33.2588C26.1528 33.2401 26.2132 33.2142 26.2706 33.1812C26.5812 32.9396 26.8918 32.6981 27.2024 32.4565C27.9507 32.2505 28.6668 31.9658 29.3506 31.6024C29.7262 31.8635 30.0972 32.1309 30.4635 32.4047C30.4981 32.4393 30.5326 32.4393 30.5671 32.4047C31.4625 31.6992 32.2734 30.9054 33 30.0235C32.9254 29.9383 32.8391 29.9297 32.7412 29.9977C32.5177 29.934 32.2934 29.8736 32.0683 29.8165C32.7881 29.2003 33.4352 28.5187 34.0094 27.7718C34.1524 27.3567 34.3162 26.9512 34.5012 26.5553C34.4636 26.4829 34.4377 26.4052 34.4235 26.3224C34.1572 26.9008 33.7172 27.2373 33.1035 27.3318C33.5484 26.8526 33.9539 26.3436 34.32 25.8047C34.307 25.4764 34.2897 25.1485 34.2683 24.8212C35.069 23.6165 35.6902 22.3224 36.1318 20.9388C36.1355 20.5154 36.1096 20.0926 36.0541 19.6706C36.0714 19.5412 36.0887 19.4118 36.1059 19.2824C36.166 19.5904 36.2092 19.901 36.2353 20.2141C36.3476 19.5492 36.4598 18.8849 36.5718 18.2212C36.5498 17.7074 36.4894 17.1983 36.3906 16.6941C36.3358 16.5327 36.2668 16.3774 36.1835 16.2283C36.1435 15.8842 36.0486 15.5563 35.8988 15.2447C35.9161 15.2102 35.9334 15.1757 35.9506 15.1412C35.8701 14.8939 35.7751 14.6523 35.6659 14.4165C35.5587 14.3634 35.4465 14.3203 35.3294 14.2871C35.0036 13.8404 34.624 13.4436 34.1906 13.0965C34.4772 13.1537 34.7533 13.24 35.0188 13.3553C34.5128 12.6765 33.9089 12.1071 33.2071 11.6471C33.1574 11.5736 33.1143 11.496 33.0777 11.4141C32.7601 11.1484 32.4581 10.8637 32.1718 10.56C32.3368 10.4919 32.5094 10.466 32.6894 10.4824C32.6798 10.3755 32.6539 10.272 32.6118 10.1718C32.164 9.7411 31.6723 9.37016 31.1365 9.05884C30.6006 8.76378 30.0656 8.47048 29.5318 8.17884C29.2412 7.88829 28.9479 7.59499 28.6518 7.29884C27.8528 6.96817 27.0936 6.55405 26.3741 6.05649C26.2677 6.04039 26.1642 6.01451 26.0635 5.97884C26.0205 5.87671 26.0119 5.77318 26.0377 5.66825C25.8134 5.4612 25.589 5.25414 25.3647 5.04708C25.3393 4.99278 25.3479 4.94101 25.3906 4.89178C25.3155 4.82191 25.281 4.73564 25.2871 4.63296C25.0901 4.63751 24.9002 4.603 24.7177 4.52943C24.7285 4.4991 24.7458 4.47321 24.7694 4.45178C24.7073 4.40507 24.6641 4.34467 24.64 4.27061C24.6228 4.13257 24.6055 3.99453 24.5883 3.85649C24.5158 3.81888 24.4382 3.793 24.3553 3.77884C24.4178 3.60252 24.4437 3.42134 24.433 3.23531C24.0778 2.82465 23.9312 2.34151 23.993 1.7859C24.0016 1.68237 24.0102 1.57884 24.0188 1.47531C24.1876 1.332 24.179 1.19396 23.993 1.0612C24.035 0.993182 24.0868 0.932793 24.1483 0.880019C24.0922 0.811188 24.0577 0.73354 24.0447 0.647078C24.0992 0.654817 24.1509 0.646188 24.2 0.621196C24.4273 0.301944 24.7206 0.198415 25.08 0.310607C25.2008 0.388254 25.3216 0.465901 25.4424 0.543548C25.7763 0.480712 26.0954 0.480712 26.4 0.543548C26.7536 0.73251 27.1074 0.922311 27.4612 1.11296C27.8904 0.999647 28.1665 1.15494 28.2894 1.57884Z" fill="#999998"/>
<path fill-rule="evenodd" clip-rule="evenodd" d="M24.0447 0.647083C24.0577 0.733546 24.0922 0.811193 24.1482 0.880024C24.0868 0.932798 24.035 0.993187 23.9929 1.0612C24.179 1.19397 24.1876 1.33201 24.0188 1.47532C24.0102 1.57885 24.0016 1.68238 23.9929 1.78591C23.9311 2.34151 24.0778 2.82465 24.4329 3.23532C24.4437 3.42135 24.4178 3.60253 24.3553 3.77885C24.4382 3.793 24.5158 3.81888 24.5882 3.8565C24.6055 3.99454 24.6228 4.13257 24.64 4.27061C24.6641 4.34468 24.7072 4.40507 24.7694 4.45179C24.7458 4.47322 24.7285 4.4991 24.7176 4.52944C24.9002 4.60301 25.09 4.63752 25.2871 4.63297C25.281 4.73564 25.3155 4.82192 25.3906 4.89179C25.3478 4.94102 25.3392 4.99278 25.3647 5.04708C25.589 5.25414 25.8134 5.4612 26.0376 5.66826C26.0119 5.77319 26.0205 5.87672 26.0635 5.97885C26.1642 6.01451 26.2677 6.0404 26.3741 6.0565C27.0935 6.55406 27.8528 6.96817 28.6518 7.29885C28.9479 7.59499 29.2412 7.88829 29.5318 8.17885C30.0656 8.47049 30.6006 8.76379 31.1365 9.05885C31.6722 9.37016 32.164 9.74111 32.6118 10.1718C32.6539 10.272 32.6797 10.3755 32.6894 10.4824C32.5094 10.466 32.3368 10.4919 32.1718 10.56C32.4581 10.8637 32.7601 11.1484 33.0777 11.4141C33.1142 11.496 33.1574 11.5736 33.2071 11.6471C33.9088 12.1071 34.5128 12.6765 35.0188 13.3553C34.7533 13.24 34.4772 13.1537 34.1906 13.0965C34.624 13.4436 35.0036 13.8404 35.3294 14.2871C35.4465 14.3203 35.5587 14.3634 35.6659 14.4165C35.7751 14.6523 35.87 14.8939 35.9506 15.1412C35.9334 15.1757 35.9161 15.2102 35.8988 15.2447C36.0486 15.5564 36.1435 15.8842 36.1835 16.2283C36.2668 16.3774 36.3358 16.5327 36.3906 16.6941C36.4894 17.1983 36.5498 17.7074 36.5718 18.2212C36.4597 18.8849 36.3476 19.5492 36.2353 20.2141C36.2092 19.901 36.166 19.5904 36.1059 19.2824C36.0886 19.4118 36.0714 19.5412 36.0541 19.6706C36.1096 20.0926 36.1354 20.5154 36.1318 20.9388C35.6902 22.3224 35.069 23.6165 34.2682 24.8212C34.2897 25.1485 34.307 25.4764 34.32 25.8047C33.9539 26.3436 33.5484 26.8526 33.1035 27.3318C33.7171 27.2373 34.1572 26.9008 34.4235 26.3224C34.4377 26.4053 34.4635 26.4829 34.5012 26.5553C34.3162 26.9512 34.1523 27.3567 34.0094 27.7718C33.4351 28.5187 32.7881 29.2003 32.0682 29.8165C32.2934 29.8736 32.5177 29.934 32.7412 29.9977C32.8391 29.9297 32.9254 29.9384 33 30.0236C32.2734 30.9054 31.4624 31.6992 30.5671 32.4047C30.5325 32.4393 30.4981 32.4393 30.4635 32.4047C30.0971 32.1309 29.7261 31.8635 29.3506 31.6024C28.6668 31.9658 27.9507 32.2505 27.2024 32.4565C26.8918 32.6981 26.5812 32.9396 26.2706 33.1812C26.2132 33.2142 26.1528 33.2401 26.0894 33.2589C26.0136 33.2159 25.9359 33.2073 25.8565 33.233C25.7419 33.3844 25.6211 33.5311 25.4941 33.673C24.8167 34.1604 24.0747 34.4106 23.2682 34.4236C22.6881 34.9685 22.1877 35.5724 21.7671 36.2353C21.5954 36.2611 21.4228 36.2697 21.2494 36.2612C21.2627 36.3874 21.2972 36.5082 21.3529 36.6236C20.9622 36.7681 20.5654 36.8975 20.1624 37.0118C20.1278 37.0636 20.0934 37.1153 20.0588 37.1671C19.0996 37.3796 18.1333 37.5522 17.16 37.6847C17.112 37.7048 17.0774 37.7393 17.0565 37.7883C17.0859 37.8852 17.1204 37.98 17.16 38.073C17.0964 38.1134 17.0274 38.1393 16.9529 38.1506C15.1895 38.4031 13.4209 38.4462 11.6471 38.28C11.2517 38.3082 10.8807 38.4204 10.5341 38.6165C10.2753 38.6337 10.0165 38.651 9.75765 38.6683C9.52569 38.8398 9.31863 39.0383 9.13647 39.2636C8.734 39.4122 8.38889 39.6365 8.10118 39.9365C7.98466 39.8513 7.89837 39.7391 7.84236 39.6C7.72568 39.5287 7.61356 39.4511 7.50589 39.3671C7.42415 39.1862 7.32921 39.0137 7.22118 38.8494C7.0662 38.7893 6.92819 38.703 6.80706 38.5906C6.67656 38.2905 6.53851 37.9971 6.39294 37.7106C7.26031 37.1714 8.20932 36.8867 9.24 36.8565C10.5303 36.2944 11.8675 35.9752 13.2518 35.8988C14.3931 35.7425 15.5405 35.6218 16.6941 35.5365C16.6941 35.433 16.6941 35.3294 16.6941 35.2259C17.6163 35.0932 18.5308 34.9207 19.4376 34.7083C19.4422 34.4476 19.4681 34.1888 19.5153 33.9318C19.9683 33.7991 20.4255 33.6784 20.8871 33.5694C21.0538 33.0868 21.2609 32.6209 21.5082 32.1718C21.5428 32.1546 21.5772 32.1373 21.6118 32.12C21.8309 32.2052 22.0552 32.2483 22.2847 32.2494C22.4726 31.934 22.6796 31.632 22.9059 31.3436C23.263 31.4377 23.6254 31.4809 23.9929 31.473C24.1828 31.2141 24.4071 30.9898 24.6659 30.8C25.0649 30.7877 25.4618 30.7532 25.8565 30.6965C25.9255 30.662 25.9772 30.6102 26.0118 30.5412C26.0635 30.5326 26.1153 30.524 26.1671 30.5153C26.3575 30.5788 26.5473 30.5788 26.7365 30.5153C26.9674 30.2755 27.1917 30.0253 27.4094 29.7647C28.3144 29.4031 29.1513 28.9285 29.92 28.3412C29.9372 28.1687 29.9545 27.9961 29.9718 27.8236C30.4031 27.4267 30.8345 27.0298 31.2659 26.633C31.2468 26.4627 31.2468 26.2901 31.2659 26.1153C31.5958 25.7682 31.9064 25.4058 32.1976 25.0283C32.1804 24.8902 32.1631 24.7522 32.1459 24.6141C32.4937 24.18 32.8216 23.7314 33.1294 23.2683C33.215 22.9789 33.284 22.6856 33.3365 22.3883C33.6206 21.8718 33.8622 21.3369 34.0612 20.7836C34.1431 19.7152 34.1948 18.6454 34.2165 17.5741C34.2682 17.6259 34.32 17.6777 34.3718 17.7294C34.3988 17.5615 34.3471 17.4235 34.2165 17.3153C34.1932 16.4896 34.0206 15.7132 33.6988 14.9859C33.1452 14.1028 32.4981 13.3004 31.7577 12.5788C31.1547 11.9933 30.5335 11.4239 29.8941 10.8706C29.752 10.6594 29.5794 10.4869 29.3765 10.353C28.6969 9.61185 28.0066 8.88714 27.3059 8.17885C26.6171 7.71322 25.8578 7.41993 25.0282 7.29885C25.0048 7.2154 24.9358 7.16364 24.8212 7.14355C24.9348 7.00405 25.0383 6.8574 25.1318 6.70355C24.9765 6.57414 24.8212 6.44473 24.6659 6.31532C24.4941 6.26982 24.3215 6.22665 24.1482 6.18591C24.1828 6.13414 24.2172 6.08238 24.2518 6.03061C24.1298 5.91725 24.0004 5.81372 23.8635 5.72002C23.8316 5.6709 23.8402 5.62778 23.8894 5.59061C23.6995 5.40255 23.6995 5.20414 23.8894 4.99532C23.7026 4.92703 23.5128 4.86663 23.32 4.81414C23.2747 4.73204 23.2229 4.6544 23.1647 4.5812C23.2411 4.48181 23.2929 4.36965 23.32 4.24473C23.1551 3.83632 23.043 3.41358 22.9835 2.9765C22.7004 2.51738 22.5364 2.01699 22.4918 1.47532C22.4117 1.41403 22.3254 1.36226 22.2329 1.32002C22.2847 1.18198 22.3365 1.04395 22.3882 0.905907C22.2622 0.764972 22.1242 0.63556 21.9741 0.517671C21.9914 0.500417 22.0086 0.483161 22.0259 0.465907C21.9619 0.453893 21.9101 0.42801 21.8706 0.38826C22.1746 0.313652 22.4593 0.365417 22.7247 0.543554C23.1886 0.331392 23.6286 0.365902 24.0447 0.647083Z" fill="#9F9F9F"/>
<path fill-rule="evenodd" clip-rule="evenodd" d="M21.8706 0.388245C21.9101 0.427995 21.9619 0.453878 22.0259 0.465892C22.0087 0.483146 21.9914 0.500402 21.9741 0.517656C22.1242 0.635545 22.2623 0.764957 22.3883 0.905892C22.3365 1.04393 22.2847 1.18197 22.233 1.32001C22.3255 1.36225 22.4118 1.41401 22.4918 1.4753C22.5365 2.01697 22.7004 2.51736 22.9836 2.97648C23.043 3.41356 23.1552 3.83631 23.32 4.24471C23.2929 4.36964 23.2411 4.48179 23.1647 4.58119C23.2229 4.65438 23.2747 4.73203 23.32 4.81413C23.5129 4.86662 23.7027 4.92701 23.8894 4.9953C23.6995 5.20412 23.6995 5.40254 23.8894 5.5906C23.8402 5.62776 23.8316 5.67088 23.8636 5.72001C24.0004 5.8137 24.1298 5.91723 24.2518 6.0306C24.2173 6.08236 24.1828 6.13413 24.1483 6.18589C24.3216 6.22663 24.4942 6.2698 24.6659 6.3153C24.8212 6.44471 24.9765 6.57413 25.1318 6.70354C25.0383 6.85738 24.9348 7.00403 24.8212 7.14354C24.9359 7.16362 25.0049 7.21539 25.0283 7.29883C25.8578 7.41991 26.6171 7.71321 27.3059 8.17883C28.0067 8.88713 28.6969 9.61183 29.3765 10.3529C29.5795 10.4869 29.752 10.6594 29.8941 10.8706C30.5335 11.4239 31.1547 11.9933 31.7577 12.5788C32.4981 13.3004 33.1452 14.1028 33.6989 14.9859C34.0207 15.7131 34.1932 16.4896 34.2165 17.3153C34.3471 17.4235 34.3989 17.5615 34.3718 17.7294C34.32 17.6777 34.2683 17.6259 34.2165 17.5741C34.1949 18.6454 34.1431 19.7152 34.0612 20.7835C33.8622 21.3368 33.6206 21.8718 33.3365 22.3882C33.2841 22.6856 33.2151 22.9789 33.1294 23.2682C32.8216 23.7314 32.4938 24.18 32.1459 24.6141C32.1632 24.7522 32.1804 24.8902 32.1977 25.0282C31.9064 25.4058 31.5959 25.7682 31.2659 26.1153C31.2468 26.2901 31.2468 26.4626 31.2659 26.6329C30.8346 27.0298 30.4032 27.4267 29.9718 27.8235C29.9546 27.9961 29.9373 28.1687 29.92 28.3412C29.1513 28.9285 28.3144 29.403 27.4094 29.7647C27.1918 30.0253 26.9674 30.2755 26.7365 30.5153C26.5473 30.5788 26.3575 30.5788 26.1671 30.5153C26.1153 30.5239 26.0636 30.5325 26.0118 30.5412C25.9773 30.6102 25.9255 30.6619 25.8565 30.6965C25.4618 30.7532 25.065 30.7877 24.6659 30.8C24.4071 30.9898 24.1828 31.2141 23.993 31.4729C23.6254 31.4809 23.263 31.4377 22.9059 31.3435C22.6796 31.632 22.4726 31.934 22.2847 32.2494C22.0553 32.2483 21.831 32.2052 21.6118 32.12C21.5773 32.1372 21.5428 32.1545 21.5083 32.1718C21.2609 32.6209 21.0538 33.0868 20.8871 33.5694C20.4256 33.6783 19.9683 33.7991 19.5153 33.9318C19.4681 34.1887 19.4422 34.4476 19.4377 34.7082C18.5308 34.9207 17.6163 35.0932 16.6941 35.2259C16.6941 35.3294 16.6941 35.4329 16.6941 35.5365C15.5405 35.6217 14.3931 35.7425 13.2518 35.8988C11.8676 35.9752 10.5303 36.2944 9.24003 36.8565C8.20934 36.8867 7.26034 37.1714 6.39297 37.7106C6.31501 37.5628 6.28054 37.3988 6.28944 37.2188C6.291 37.0934 6.30823 36.9726 6.34121 36.8565C6.1474 36.6908 5.9231 36.5787 5.66827 36.52C5.54305 36.4033 5.44816 36.2653 5.38356 36.1059C5.26455 35.7321 5.17826 35.3525 5.12474 34.9671C5.05995 34.8894 5.00819 34.8031 4.96944 34.7082C4.95219 34.5012 4.93493 34.2941 4.91768 34.0871C4.87033 34.0442 4.83582 33.9924 4.81415 33.9318C4.78833 33.7254 4.7797 33.5184 4.78827 33.3106C4.82701 33.2572 4.86152 33.1968 4.8918 33.1294C5.81968 32.775 6.32004 32.1021 6.39297 31.1106C6.36652 30.3762 6.08182 29.7636 5.53886 29.2729C5.41048 28.5589 5.03949 28.0153 4.42591 27.6424C3.95099 27.4805 3.46786 27.3511 2.9765 27.2541C2.312 27.3534 1.75984 27.6554 1.32003 28.16C1.25309 28.1854 1.18407 28.194 1.11297 28.1859C1.11297 28.2377 1.11297 28.2894 1.11297 28.3412C0.958864 28.0809 0.855335 27.7962 0.802385 27.4871C0.832936 27.2707 0.919213 27.081 1.06121 26.9177C0.628398 26.6821 0.473106 26.3284 0.595326 25.8565C0.416467 25.5985 0.390585 25.3224 0.517679 25.0282C0.558288 24.9358 0.618682 24.8581 0.698855 24.7953C0.645279 24.5312 0.550374 24.2811 0.41415 24.0447C0.405084 23.8404 0.396457 23.642 0.388267 23.4494C0.435664 23.3164 0.470174 23.1783 0.491797 23.0353C0.321248 22.7778 0.303993 22.5104 0.440032 22.2329C0.320043 21.7906 0.458083 21.4541 0.854149 21.2235C0.73053 21.1042 0.678766 20.9575 0.698855 20.7835C0.713484 20.5922 0.739366 20.4024 0.776502 20.2141C0.908932 20.0422 1.01246 19.8523 1.08709 19.6447C1.52249 19.4125 1.76406 19.0502 1.8118 18.5577C1.82217 18.4634 1.86531 18.3944 1.94121 18.3506C1.70299 19.82 2.16887 21.002 3.33886 21.8965C4.01789 22.2844 4.75123 22.4828 5.53886 22.4918C6.29747 22.4377 7.06529 22.429 7.84238 22.4659C8.09355 22.5028 8.33513 22.5718 8.56709 22.6729C8.92256 22.8766 9.25038 23.1182 9.55062 23.3977C11.1799 25.1995 13.0779 26.6489 15.2447 27.7459C15.8662 28.0048 16.5046 28.2119 17.16 28.3671C17.8007 28.5038 18.4391 28.6505 19.0753 28.8071C19.2783 28.6217 19.4854 28.4319 19.6965 28.2377C20.5221 28.533 21.3417 28.8436 22.1553 29.1694C22.3275 29.0576 22.4742 28.9195 22.5953 28.7553C22.9383 28.895 23.292 28.9985 23.6565 29.0659C23.8449 28.955 24.0261 28.8342 24.2 28.7035C24.5094 28.757 24.82 28.7656 25.1318 28.7294C25.2547 28.6239 25.3582 28.5031 25.4424 28.3671C25.9119 28.3305 26.3692 28.2356 26.8141 28.0824C26.9623 27.9166 27.0917 27.7354 27.2024 27.5388C27.5619 27.3936 27.907 27.221 28.2377 27.0212C28.3448 26.8499 28.4311 26.6688 28.4965 26.4777C28.7036 26.3224 28.9106 26.1671 29.1177 26.0118C29.2669 25.5076 29.5688 25.1108 30.0236 24.8212C30.0434 24.85 30.0693 24.8672 30.1012 24.8729C30.2548 25.2777 30.5481 25.4417 30.9812 25.3647C31.3411 25.1882 31.4705 24.9035 31.3694 24.5106C31.1765 24.1594 31.0126 23.7971 30.8777 23.4235C31.1395 23.2171 31.2689 22.941 31.2659 22.5953C31.473 22.2847 31.68 21.9741 31.8871 21.6635C31.9043 21.4392 31.9216 21.2149 31.9389 20.9906C32.6014 19.7692 32.6446 18.5269 32.0683 17.2635C32.0962 17.1989 32.1307 17.1385 32.1718 17.0824C32.0251 16.8667 31.844 16.6855 31.6283 16.5388C31.6042 16.4648 31.561 16.4044 31.4989 16.3577C31.5334 16.3059 31.5679 16.2541 31.6024 16.2024C31.4324 16.1216 31.2857 16.0094 31.1624 15.8659C31.0772 15.7854 31.0599 15.6992 31.1106 15.6071C30.8749 15.5356 30.7455 15.3803 30.7224 15.1412C30.5153 15.0813 30.36 14.9519 30.2565 14.7529C30.0457 14.6906 29.8559 14.5871 29.6871 14.4424C29.628 14.404 29.628 14.3608 29.6871 14.3129C29.4578 14.2761 29.268 14.1726 29.1177 14.0024C29.1964 13.9099 29.2136 13.815 29.1694 13.7177C28.7979 13.6542 28.4528 13.5248 28.1341 13.3294C28.1729 13.2346 28.2246 13.1483 28.2894 13.0706C27.8718 12.7485 27.4318 12.4552 26.9694 12.1906C26.7859 11.8494 26.5702 11.5302 26.3224 11.2329C26.4405 10.9881 26.5786 10.7551 26.7365 10.5341C25.9873 9.7063 25.0555 9.38707 23.9412 9.57648C23.5443 9.63689 23.1474 9.69725 22.7506 9.75766C22.6311 9.76464 22.5276 9.73017 22.44 9.65413C22.6373 9.39639 22.8444 9.14621 23.0612 8.90354C22.8359 8.89086 22.6115 8.89086 22.3883 8.90354C22.6852 8.77268 22.9441 8.5915 23.1647 8.36001C22.882 8.22257 22.5887 8.11045 22.2847 8.02354C22.3537 7.98901 22.3537 7.95454 22.2847 7.92001C22.1812 7.90277 22.0777 7.88548 21.9741 7.86824C22.2731 7.69825 22.5492 7.49983 22.8024 7.27295C22.5966 7.0838 22.3723 6.91986 22.1294 6.78119C22.1984 6.74666 22.1984 6.71218 22.1294 6.67766C21.9567 6.60865 21.8014 6.51377 21.6636 6.39295C21.8631 6.19309 22.0184 5.96014 22.1294 5.69413C22.0191 5.66602 21.9156 5.6229 21.8189 5.56471C21.8706 5.49571 21.9224 5.42666 21.9741 5.35766C21.8356 5.21266 21.7839 5.04873 21.8189 4.86589C21.5807 4.66903 21.4254 4.39295 21.353 4.03766C21.4527 3.84839 21.4959 3.64996 21.4824 3.44236C21.412 3.32888 21.3172 3.24261 21.1977 3.18354C21.1662 2.91463 21.0972 2.65581 20.9906 2.40707C20.7557 2.27989 20.5141 2.16774 20.2659 2.0706C20.2936 1.94552 20.3108 1.81611 20.3177 1.68236C20.2004 1.62297 20.0797 1.61434 19.9553 1.65648C19.96 1.77904 19.9427 1.90845 19.9036 2.04472C19.6965 2.0102 19.4894 1.9757 19.2824 1.94119C19.1607 2.03068 19.0226 2.06519 18.8683 2.04472C18.8846 1.86466 18.8587 1.69211 18.7906 1.52707C18.7561 1.56158 18.7216 1.59609 18.6871 1.6306C18.667 1.58256 18.6325 1.54805 18.5836 1.52707C18.4228 1.57196 18.2589 1.58922 18.0918 1.57883C18.0985 1.49 18.1157 1.40372 18.1436 1.32001C18.2868 1.23785 18.4249 1.14295 18.5577 1.0353C18.7475 1.01805 18.9373 1.00079 19.1271 0.983539C19.4034 0.53243 19.7916 0.403017 20.2918 0.595303C20.5035 0.541251 20.7106 0.472231 20.913 0.388245C21.1522 0.452626 21.3937 0.504391 21.6377 0.543539C21.7213 0.497665 21.7989 0.445901 21.8706 0.388245Z" fill="#A5A5A5"/>
<path fill-rule="evenodd" clip-rule="evenodd" d="M28.2895 1.57884C28.34 1.75946 28.4436 1.90613 28.6001 2.01884C28.7817 2.04068 28.9543 2.09245 29.1177 2.17414C29.2769 2.36603 29.4667 2.52132 29.6871 2.64002C30.1012 2.64432 30.4377 2.80824 30.6965 3.13179C30.7397 3.23532 30.7828 3.33884 30.8259 3.44237C31.0086 3.47373 31.1811 3.53413 31.3436 3.62355C31.4703 3.83656 31.617 4.03499 31.7836 4.21884C31.8376 4.33349 31.8721 4.45428 31.8871 4.5812C32.0942 4.82277 32.3012 5.06433 32.5083 5.3059C32.537 5.50173 32.6405 5.63979 32.8189 5.72002C32.8771 5.8955 32.9548 6.05944 33.0518 6.21179C33.2934 6.22902 33.5349 6.24631 33.7765 6.26355C33.9653 6.31925 34.112 6.43142 34.2165 6.60002C34.5937 6.3559 34.982 6.33866 35.3812 6.54826C35.6904 6.46926 35.9492 6.55555 36.1577 6.80708C36.4165 6.79844 36.6754 6.78984 36.9342 6.7812C37.1296 6.85584 37.2762 6.98525 37.3742 7.16943C37.8281 6.99447 38.1559 7.13247 38.3577 7.58355C38.5515 7.52526 38.7499 7.51662 38.953 7.55767C39.2574 7.6407 39.4817 7.82188 39.6259 8.1012C39.7985 8.16161 39.9711 8.22196 40.1436 8.28237C40.2126 8.3859 40.2816 8.48943 40.3506 8.59296C40.3997 8.61796 40.4515 8.62656 40.5059 8.61884C40.4843 8.65622 40.4498 8.6821 40.4024 8.69649C40.4973 8.79138 40.5922 8.88631 40.6871 8.9812C40.7497 9.24251 40.8187 9.50133 40.8942 9.75767C41.8919 10.8554 42.5648 12.1323 42.913 13.5883C43.1517 14.0131 43.3157 14.4618 43.4048 14.9341C43.4418 15.1852 43.3728 15.401 43.1977 15.5812C43.3518 15.7185 43.4381 15.8911 43.4565 16.0988C43.4584 16.499 43.4499 16.9046 43.4306 17.3153C43.4039 17.5343 43.3176 17.7241 43.1718 17.8847C43.1625 18.0636 43.128 18.2362 43.0683 18.4024C43.0621 18.7478 43.0621 19.0929 43.0683 19.4377C43.0321 19.6223 42.9372 19.769 42.7836 19.8777C42.8567 20.0694 42.8308 20.2505 42.7059 20.4212C42.5745 20.5353 42.4623 20.6647 42.3695 20.8094C42.2159 20.875 42.0606 20.9354 41.9036 20.9906C42.238 21.6529 42.0914 22.1878 41.4636 22.5953C41.432 22.7887 41.4492 22.9785 41.5154 23.1647C41.8328 23.3254 41.9622 23.5755 41.9036 23.9153C42.0712 24.1644 42.1747 24.4405 42.2142 24.7435C42.206 24.8979 42.1543 25.0359 42.0589 25.1577C42.3434 25.373 42.4642 25.6577 42.4212 26.0118C42.3049 25.8175 42.1582 25.6449 41.9812 25.4941C41.871 25.2084 41.7847 24.9151 41.7224 24.6141C41.5671 24.4243 41.4118 24.2345 41.2565 24.0447C41.1612 23.4536 41.1181 22.8583 41.1271 22.2588C41.1327 21.8489 41.15 21.452 41.1789 21.0683C41.1048 21.0442 41.0444 21.001 40.9977 20.9388C40.8086 22.1765 40.3427 23.3153 39.6001 24.3553C39.5786 24.9256 39.5786 25.495 39.6001 26.0635C39.485 26.1611 39.3901 26.2732 39.3154 26.4C39.4097 26.7508 39.4701 27.1045 39.4965 27.4612C39.4275 27.5302 39.3585 27.5993 39.2895 27.6683C39.2487 28.0929 39.2573 28.5156 39.3154 28.9365C39.2591 29.0789 39.1815 29.2084 39.0824 29.3247C39.0805 28.7207 39.0805 28.1168 39.0824 27.513C39.0107 27.5674 38.959 27.6364 38.9271 27.72C38.9637 28.1598 38.9465 28.6084 38.8754 29.0659C38.7614 29.2826 38.6493 29.4983 38.5389 29.713C38.5384 30.2377 38.5384 30.764 38.5389 31.2918C38.0095 33.0205 37.0864 34.5044 35.7695 35.7435C35.9036 35.4577 36.0244 35.1644 36.1318 34.8635C35.4687 35.5435 34.7527 36.1561 33.9836 36.7012C33.6808 36.8136 33.3788 36.9258 33.0777 37.0377C33.0605 36.9341 33.0432 36.8306 33.0259 36.7271C32.8214 36.7023 32.623 36.7455 32.4306 36.8565C32.3873 36.9088 32.3701 36.9692 32.3789 37.0377C32.2227 37.0462 32.0674 37.0376 31.913 37.0118C31.9674 36.9401 32.0364 36.8883 32.1201 36.8565C31.9458 36.8394 31.7733 36.8566 31.6024 36.9083C31.3264 37.0981 31.0502 37.2878 30.7742 37.4777C30.4106 37.5219 30.0482 37.5736 29.6871 37.633C29.5141 37.7325 29.3674 37.8619 29.2471 38.0212C29.2367 37.9303 29.2108 37.8441 29.1695 37.7624C28.8487 37.8814 28.5208 37.9763 28.1859 38.0471C28.8736 38.1688 29.5552 38.1084 30.2306 37.8659C30.2565 37.8745 30.2824 37.8831 30.3083 37.8918C29.9899 38.0804 29.6448 38.1839 29.273 38.2024C29.2064 38.2754 29.146 38.353 29.0918 38.4353C29.0665 38.3684 29.0578 38.2993 29.0659 38.2283C28.714 38.2731 28.3689 38.3507 28.0306 38.4612C27.9264 38.5483 27.8402 38.6518 27.7718 38.7718C27.6482 38.7875 27.536 38.8306 27.4354 38.9012C27.41 38.8343 27.4013 38.7652 27.4095 38.6941C27.272 38.7282 27.134 38.7627 26.9954 38.7977C26.9295 38.794 26.8692 38.7768 26.8142 38.7459C26.6882 38.9165 26.6019 39.1063 26.5554 39.3153C26.4949 39.3757 26.4346 39.4361 26.3742 39.4965C26.2389 39.469 26.1009 39.4517 25.9601 39.4447C26.1499 39.5569 26.3397 39.669 26.5295 39.7812C26.3131 40.2808 26.3735 40.3154 26.7106 39.8847C26.7279 40.1263 26.7452 40.3678 26.7624 40.6094C26.8092 40.6716 26.8695 40.7148 26.9436 40.7388C27.2751 40.8149 27.5943 40.9098 27.9012 41.0235C27.9271 40.9977 27.953 40.9718 27.9789 40.9459C28.3459 40.933 28.7082 40.8898 29.0659 40.8165C29.2137 40.9556 29.369 41.085 29.5318 41.2047C29.6493 41.244 29.7615 41.2353 29.8683 41.1788C29.9931 41.2864 30.1312 41.3727 30.2824 41.4377C30.5633 41.3816 30.8395 41.3126 31.1106 41.2306C31.1889 41.2698 31.258 41.3216 31.3177 41.3859C31.7465 41.167 32.2037 41.0462 32.6895 41.0235C32.6787 40.9089 32.7218 40.8227 32.8189 40.7647C32.9966 40.7009 33.1778 40.6491 33.3624 40.6094C33.4497 40.6229 33.5274 40.6574 33.5954 40.713C34.0332 40.5785 34.4645 40.4232 34.8895 40.2471C35.1101 40.2541 35.3086 40.2714 35.4848 40.2988C35.7105 40.2651 35.9349 40.222 36.1577 40.1694C38.8487 38.6175 40.8072 36.4175 42.033 33.5694C42.2707 33.0119 42.4777 32.4425 42.6542 31.8612C42.7367 31.2946 42.7885 30.7252 42.8095 30.153C42.8136 29.3956 42.8222 28.6537 42.8354 27.9271C43.0162 28.0306 43.1283 28.1859 43.1718 28.393C43.1891 28.6863 43.2064 28.9796 43.2236 29.273C43.3997 29.7431 43.4428 30.2263 43.353 30.7224C43.379 31.0342 43.448 31.3362 43.5601 31.6283C43.5376 31.863 43.4341 32.0528 43.2495 32.1977C43.4325 32.3548 43.536 32.5532 43.5601 32.793C43.4033 33.1071 43.2739 33.4349 43.1718 33.7765C43.1387 33.8679 43.1473 33.9541 43.1977 34.0353C42.6918 35.2566 42.0447 36.3954 41.2565 37.4518C41.0026 38.0116 40.7093 38.5465 40.3765 39.0565C38.9921 40.1502 37.4823 41.0388 35.8471 41.7224C35.6183 41.8066 35.3853 41.867 35.1483 41.9035C35.0015 41.8302 34.8635 41.744 34.7342 41.6447C34.2885 41.7703 33.8485 41.917 33.4142 42.0847C33.1434 42.1648 32.8674 42.2079 32.5859 42.2141C32.3933 42.2498 32.2035 42.3015 32.0165 42.3694C31.962 42.3601 31.9102 42.3429 31.8612 42.3177C31.4653 42.6135 31.1029 42.579 30.7742 42.2141C30.5269 42.4982 30.2335 42.5672 29.8942 42.4212C29.5203 42.5151 29.2097 42.4116 28.9624 42.1106C28.6841 42.3503 28.3735 42.4107 28.0306 42.2918C27.8967 42.103 27.7242 42.0599 27.513 42.1624C27.3388 42.1475 27.1835 42.0871 27.0471 41.9812C26.7901 41.9934 26.5571 41.933 26.3483 41.8C26.1788 41.3383 25.8423 41.1572 25.3389 41.2565C25.1639 41.1403 24.974 41.1058 24.7695 41.153C24.5969 41.3945 24.3899 41.6016 24.1483 41.7741C24.0563 41.8106 23.9613 41.8365 23.8636 41.8518C23.6842 41.8047 23.503 41.7702 23.3201 41.7483C22.8811 41.8637 22.4497 42.0104 22.0259 42.1883C21.5863 42.1909 21.1463 42.2341 20.7059 42.3177C20.6946 42.2432 20.6687 42.1742 20.6283 42.1106C20.3695 42.1451 20.1106 42.1796 19.8518 42.2141C19.7402 42.1111 19.6367 41.999 19.5412 41.8777C19.4808 41.869 19.4205 41.8604 19.3601 41.8518C18.8026 41.9199 18.2332 41.9889 17.6518 42.0588C17.2452 42.0687 16.8483 42.0687 16.4612 42.0588C16.1506 42.0934 15.8401 42.1278 15.5295 42.1624C15.256 42.0985 14.9799 42.0985 14.7012 42.1624C14.3685 42.137 14.0493 42.0594 13.7436 41.9294C13.2545 41.9125 12.7713 41.8521 12.2942 41.7483C12.2314 41.761 12.1969 41.7956 12.1906 41.8518C12.0748 41.796 11.9713 41.8219 11.8801 41.9294C11.7765 41.9553 11.673 41.9812 11.5695 42.0071C11.5221 42.0049 11.4875 41.9876 11.4659 41.9553C11.5147 41.6798 11.6096 41.4209 11.7506 41.1788C12.2422 40.6809 12.8374 40.3789 13.5365 40.273C14.2611 40.2471 14.9771 40.2039 15.6848 40.1436C16.4649 40.1425 17.25 40.0735 18.0401 39.9365C17.93 39.7595 17.8265 39.5783 17.7295 39.393C18.7007 39.2888 19.667 39.1508 20.6283 38.9788C20.6801 38.8236 20.7318 38.6683 20.7836 38.513C20.9906 38.4957 21.1977 38.4784 21.4048 38.4612C21.3702 38.4267 21.3358 38.3922 21.3012 38.3577C21.8234 38.2764 22.3411 38.1729 22.8542 38.0471C22.8369 38.0298 22.8197 38.0126 22.8024 37.9953C23.071 37.9217 23.3385 37.8441 23.6048 37.7624C23.7616 37.8144 23.9169 37.8662 24.0706 37.9177C24.09 37.8703 24.1159 37.8271 24.1483 37.7883C24.0793 37.7193 24.0102 37.6502 23.9412 37.5812C24.3282 37.4061 24.7251 37.2508 25.1318 37.1153C25.0455 37.029 24.9593 36.9428 24.873 36.8565C25.0471 36.8569 25.2024 36.9172 25.3389 37.0377C25.5279 36.9214 25.7263 36.9041 25.9342 36.9859C26.1354 36.8887 26.308 36.7506 26.4518 36.5718C26.5699 36.6378 26.6734 36.7241 26.7624 36.8306C27.4908 36.4857 28.2156 36.1579 28.9365 35.8471C29.0557 35.9494 29.1592 36.0702 29.2471 36.2094C30.1951 35.6704 31.1355 35.1095 32.0683 34.5271C32.127 34.4883 32.1788 34.4969 32.2236 34.553C32.259 34.6589 32.3194 34.7452 32.4048 34.8118C32.6103 34.7349 32.8001 34.6314 32.9742 34.5012C33.0644 34.2904 33.1593 34.0834 33.2589 33.88C33.6316 33.6373 33.9681 33.3439 34.2683 33C34.6187 32.6152 34.9293 32.2011 35.2001 31.7577C35.1647 32.0202 35.0956 32.279 34.993 32.5341C34.7954 32.8878 34.6401 33.2501 34.5271 33.6212C35.2638 32.8901 35.8332 32.0447 36.2354 31.0847C36.4299 30.539 36.6284 29.9954 36.8306 29.4541C36.8019 29.4343 36.7846 29.4084 36.7789 29.3765C36.7817 28.9688 36.7904 28.5375 36.8048 28.0824C36.9125 27.9454 36.9815 27.7901 37.0118 27.6165C37.1114 27.1927 37.2063 26.77 37.2965 26.3483C37.1682 26.0377 37.2286 25.753 37.4777 25.4941C37.4684 24.937 37.408 24.3849 37.2965 23.8377C37.3999 23.6225 37.4776 23.3982 37.5295 23.1647C37.59 22.7493 37.659 22.3351 37.7365 21.9224C37.7538 22.1294 37.7711 22.3365 37.7883 22.5436C37.8463 22.0451 37.8807 21.5447 37.8918 21.0424C38.0688 20.2223 38.1896 19.3941 38.2542 18.5577C38.2935 18.7889 38.3452 19.0132 38.4095 19.2306C38.4802 18.8615 38.5751 18.4992 38.6942 18.1436C38.5603 18.0928 38.4223 18.0756 38.2801 18.0918C38.2845 16.866 38.1896 15.6236 37.9954 14.3647C37.8962 14.2908 37.784 14.239 37.6589 14.2094C37.4259 13.6758 37.1412 13.1754 36.8048 12.7083C36.6443 12.6588 36.4804 12.6156 36.313 12.5788C36.1333 12.2871 35.9436 12.0024 35.7436 11.7247C35.7522 11.7075 35.7608 11.6902 35.7695 11.673C35.8128 11.751 35.8732 11.7769 35.9506 11.7506C35.6918 11.4918 35.433 11.233 35.1742 10.9741C34.0937 10.1183 33.093 9.16926 32.1718 8.12708C31.8612 7.92002 31.5506 7.71296 31.2401 7.5059C31.3698 7.43866 31.5078 7.3869 31.6542 7.35061C31.4787 7.20241 31.2717 7.11617 31.033 7.09179C30.8777 6.83296 30.7224 6.57414 30.5671 6.31532C30.3413 6.3003 30.117 6.27442 29.8942 6.23767C29.6977 6.03232 29.5079 5.81661 29.3248 5.59061C29.1731 5.55039 29.0264 5.55903 28.8848 5.61649C28.3059 5.17284 27.6589 4.86225 26.9436 4.68473C26.9691 4.47889 27.0209 4.28047 27.0989 4.08943C27.0143 4.06389 26.928 4.05526 26.8401 4.06355C26.8401 3.99453 26.8401 3.92551 26.8401 3.85649C26.5252 3.78944 26.2578 3.63414 26.0377 3.39061C26.0796 2.77036 26.071 2.14919 26.0118 1.52708C26.3465 1.61889 26.6658 1.75693 26.9695 1.9412C26.9986 1.81872 26.99 1.69793 26.9436 1.57884C26.9522 1.54433 26.9608 1.50983 26.9695 1.47532C27.0389 1.5479 27.0821 1.53065 27.0989 1.42355C27.0708 1.35295 27.0621 1.28394 27.073 1.21649C27.441 1.37662 27.812 1.53191 28.1859 1.68237C28.2212 1.64393 28.2558 1.60942 28.2895 1.57884Z" fill="#929292"/>
<path fill-rule="evenodd" clip-rule="evenodd" d="M18.1436 1.32001C18.1157 1.40372 18.0985 1.49 18.0918 1.57883C18.2589 1.58921 18.4229 1.57196 18.5836 1.52707C18.6325 1.54805 18.667 1.58256 18.6871 1.6306C18.7216 1.59608 18.7561 1.56158 18.7907 1.52707C18.8588 1.69211 18.8847 1.86466 18.8683 2.04471C19.0227 2.06519 19.1607 2.03068 19.2824 1.94118C19.4895 1.9757 19.6965 2.0102 19.9036 2.04471C19.9428 1.90845 19.96 1.77904 19.9554 1.65648C20.0797 1.61434 20.2005 1.62297 20.3177 1.68236C20.3109 1.81611 20.2936 1.94552 20.2659 2.0706C20.5141 2.16774 20.7557 2.27989 20.9907 2.40707C21.0972 2.65581 21.1662 2.91463 21.1977 3.18354C21.3172 3.24261 21.4121 3.32888 21.4824 3.44236C21.4959 3.64996 21.4528 3.84839 21.353 4.03765C21.4254 4.39295 21.5807 4.66903 21.8189 4.86589C21.7839 5.04873 21.8357 5.21266 21.9742 5.35765C21.9224 5.42666 21.8707 5.49571 21.8189 5.56471C21.9156 5.6229 22.0192 5.66602 22.1295 5.69412C22.0184 5.96014 21.8631 6.19308 21.6636 6.39295C21.8014 6.51377 21.9567 6.60865 22.1295 6.67765C22.1985 6.71218 22.1985 6.74666 22.1295 6.78118C22.3724 6.91986 22.5967 7.0838 22.8024 7.27295C22.5492 7.49983 22.2731 7.69825 21.9742 7.86824C22.0777 7.88548 22.1812 7.90277 22.2848 7.92001C22.3538 7.95453 22.3538 7.98901 22.2848 8.02354C22.5887 8.11045 22.882 8.22257 23.1648 8.36001C22.9441 8.5915 22.6853 8.77268 22.3883 8.90354C22.6116 8.89085 22.8359 8.89085 23.0612 8.90354C22.8444 9.14621 22.6373 9.39639 22.4401 9.65412C22.5276 9.73017 22.6312 9.76464 22.7507 9.75765C23.1475 9.69724 23.5444 9.63689 23.9412 9.57648C25.0556 9.38707 25.9873 9.7063 26.7365 10.5341C26.5786 10.7551 26.4405 10.988 26.3224 11.2329C26.5703 11.5302 26.786 11.8494 26.9695 12.1906C27.4318 12.4552 27.8718 12.7485 28.2895 13.0706C28.2247 13.1483 28.1729 13.2346 28.1342 13.3294C28.4528 13.5248 28.798 13.6542 29.1695 13.7177C29.2137 13.815 29.1964 13.9099 29.1177 14.0024C29.268 14.1726 29.4579 14.2761 29.6871 14.3129C29.6281 14.3608 29.6281 14.404 29.6871 14.4424C29.8559 14.5871 30.0457 14.6906 30.2565 14.7529C30.3601 14.9519 30.5154 15.0813 30.7224 15.1412C30.7455 15.3803 30.8749 15.5356 31.1107 15.6071C31.06 15.6992 31.0772 15.7854 31.1624 15.8659C31.2858 16.0094 31.4325 16.1216 31.6024 16.2024C31.5679 16.2541 31.5334 16.3059 31.4989 16.3577C31.5611 16.4044 31.6042 16.4648 31.6283 16.5388C31.844 16.6855 32.0252 16.8667 32.1718 17.0824C32.1308 17.1385 32.0963 17.1989 32.0683 17.2635C32.6446 18.5269 32.6015 19.7692 31.9389 20.9906C31.9216 21.2149 31.9044 21.4392 31.8871 21.6635C31.6801 21.9741 31.473 22.2847 31.2659 22.5953C31.2689 22.941 31.1395 23.2171 30.8777 23.4235C29.7499 21.1334 28.6197 18.8385 27.4871 16.5388C26.902 16.2047 26.531 16.36 26.3742 17.0047C26.3841 17.1122 26.41 17.2158 26.4518 17.3153C26.7654 17.9079 27.0501 18.5117 27.3059 19.1271C27.168 19.2738 27.0386 19.4291 26.9177 19.5929C26.9026 19.3502 26.9026 19.1086 26.9177 18.8682C26.4848 19.2839 26.0706 19.7153 25.6754 20.1624C25.5677 20.2951 25.4728 20.4332 25.3907 20.5765C25.1427 20.0094 24.7286 19.604 24.1483 19.36C22.3798 18.837 20.6198 18.8543 18.8683 19.4118C17.9105 19.8347 17.1427 20.4818 16.5648 21.3529C16.2551 22.1317 16.4708 22.727 17.2118 23.1388C17.4744 23.1777 17.7332 23.1605 17.9883 23.0871C18.5317 22.7895 19.0666 22.4789 19.593 22.1553C19.7738 22.0626 19.9636 21.9936 20.1624 21.9482C20.7865 21.8158 21.4164 21.7381 22.0518 21.7153C22.851 21.7959 23.6533 21.8304 24.4589 21.8188C24.3146 21.8786 24.2024 21.9821 24.1224 22.1294C23.8033 22.6551 23.6825 23.2245 23.7601 23.8377C23.9759 24.5624 24.4332 25.0628 25.1318 25.3388C25.3167 25.125 25.4634 24.8834 25.5718 24.6141C25.759 24.6769 25.9488 24.7287 26.1412 24.7694C26.3668 24.7487 26.5997 24.7055 26.8401 24.64C26.9658 24.3405 27.0866 24.0385 27.2024 23.7341C27.5133 23.6433 27.798 23.5053 28.0565 23.32C28.1175 23.0245 28.1865 22.7312 28.2636 22.44C28.4288 22.3173 28.61 22.231 28.8071 22.1812C29.2584 23.0693 29.6898 23.9665 30.1012 24.8729C30.0693 24.8672 30.0434 24.85 30.0236 24.8212C29.5688 25.1108 29.2669 25.5076 29.1177 26.0118C28.9107 26.1671 28.7036 26.3224 28.4965 26.4777C28.4312 26.6688 28.3449 26.8499 28.2377 27.0212C27.907 27.221 27.562 27.3936 27.2024 27.5388C27.0917 27.7354 26.9623 27.9166 26.8142 28.0824C26.3692 28.2356 25.912 28.3305 25.4424 28.3671C25.3582 28.5031 25.2547 28.6239 25.1318 28.7294C24.82 28.7656 24.5094 28.757 24.2001 28.7035C24.0261 28.8342 23.845 28.955 23.6565 29.0659C23.2921 28.9985 22.9384 28.895 22.5954 28.7553C22.4742 28.9195 22.3276 29.0576 22.1554 29.1694C21.3418 28.8436 20.5222 28.533 19.6965 28.2377C19.4854 28.4319 19.2783 28.6217 19.0754 28.8071C18.4392 28.6505 17.8008 28.5038 17.1601 28.3671C16.5047 28.2119 15.8663 28.0048 15.2448 27.7459C13.078 26.6489 11.1799 25.1995 9.55065 23.3977C9.25042 23.1182 8.92259 22.8766 8.56712 22.6729C8.33516 22.5718 8.09358 22.5028 7.84242 22.4659C7.06532 22.429 6.2975 22.4377 5.53889 22.4918C4.75126 22.4828 4.01793 22.2844 3.33889 21.8965C2.1689 21.002 1.70302 19.82 1.94124 18.3506C1.99949 18.2663 2.06851 18.1886 2.1483 18.1177C2.01566 17.9992 1.92938 17.8525 1.88947 17.6777C1.69824 17.5371 1.58608 17.3472 1.553 17.1082C1.50514 17.0799 1.46201 17.0455 1.42359 17.0047C1.34941 16.8048 1.29765 16.5978 1.2683 16.3835C1.03289 16.2319 0.9121 16.0162 0.905946 15.7365C0.934458 15.5766 0.994846 15.4299 1.08712 15.2965C1.12163 15.1929 1.12163 15.0894 1.08712 14.9859C1.00746 14.8189 0.903932 14.6637 0.776534 14.52C0.703535 14.3007 0.712164 14.0764 0.802416 13.8471C0.664287 13.6746 0.552134 13.4848 0.465946 13.2777C0.395689 12.9365 0.473336 12.6345 0.698887 12.3718C0.344101 12.0492 0.275081 11.6783 0.491828 11.2588C0.405804 10.9982 0.440314 10.7567 0.595357 10.5341C0.534819 10.2408 0.543443 9.94753 0.62124 9.65412C0.722481 9.39996 0.808757 9.14114 0.880063 8.87765C1.01232 8.6516 1.21076 8.52219 1.47536 8.48942C1.51849 8.4463 1.56163 8.40313 1.60477 8.36001C1.55859 8.1942 1.51545 8.02162 1.47536 7.84236C1.47794 7.61884 1.57285 7.44626 1.76006 7.32471C1.91862 7.04363 2.08254 6.76757 2.25183 6.49648C2.38279 6.39269 2.52945 6.32364 2.69183 6.28942C2.74442 6.06057 2.81343 5.83622 2.89889 5.61648C2.98365 5.4969 3.0958 5.41925 3.23536 5.38354C3.4546 5.08503 3.69616 4.80895 3.96006 4.5553C4.08085 4.49491 4.20163 4.43452 4.32242 4.37412C4.65522 4.13632 4.94855 3.85161 5.20242 3.52001C5.46445 3.35643 5.73192 3.33055 6.00477 3.44236C6.13475 3.29519 6.2814 3.16578 6.44477 3.05412C6.7595 3.07357 7.07009 3.05631 7.37653 3.00236C7.57122 2.83751 7.79552 2.78575 8.04947 2.84707C8.21621 2.9132 8.38874 2.95634 8.56712 2.97648C8.60077 2.99221 8.6353 3.00947 8.67065 3.02824C8.94252 2.94552 9.21863 2.90238 9.49889 2.89883C9.41539 3.01414 9.38086 3.14355 9.39536 3.28707C9.89634 3.31876 10.3967 3.3619 10.8965 3.41648C10.9483 3.44236 11.0001 3.46824 11.0518 3.49412C11.1915 3.36286 11.3382 3.24208 11.4918 3.13177C11.6234 3.15802 11.7528 3.19253 11.8801 3.2353C11.9059 3.28707 11.9318 3.33883 11.9577 3.3906C11.969 3.31616 11.9949 3.24714 12.0354 3.18354C12.0834 3.23788 12.1179 3.23788 12.1389 3.18354C12.2413 3.25146 12.3276 3.33773 12.3977 3.44236C12.6529 3.51531 12.9117 3.5757 13.1742 3.62354C13.285 3.67392 13.3712 3.75157 13.433 3.85648C13.5681 3.81866 13.7061 3.79278 13.8471 3.77883C13.952 3.64008 14.0901 3.5538 14.2612 3.52001C14.3984 3.31727 14.5537 3.12747 14.7271 2.9506C15.0532 2.79931 15.3897 2.75618 15.7365 2.82118C15.9867 2.6055 16.2369 2.38981 16.4871 2.17412C16.6252 2.12236 16.7632 2.0706 16.9012 2.01883C17.1049 1.58884 17.45 1.39904 17.9365 1.44942C17.9983 1.39276 18.0673 1.34962 18.1436 1.32001Z" fill="#ABABAB"/>
<path fill-rule="evenodd" clip-rule="evenodd" d="M12.1389 3.18355C12.1179 3.23789 12.0835 3.23789 12.0354 3.18355C11.9949 3.24715 11.9691 3.31617 11.9577 3.39061C11.9318 3.33884 11.906 3.28708 11.8801 3.23531C11.7528 3.19254 11.6234 3.15803 11.4918 3.13178C11.3382 3.24209 11.1916 3.36287 11.0518 3.49414C11.0001 3.46825 10.9483 3.44237 10.8966 3.41649C10.3968 3.36191 9.89635 3.31877 9.39537 3.28708C9.38088 3.14356 9.41541 3.01415 9.4989 2.89884C9.21865 2.90239 8.94254 2.94553 8.67067 3.02825C8.63531 3.00948 8.60079 2.99222 8.56714 2.97649C8.68169 2.85431 8.8197 2.7594 8.98126 2.69178C9.34408 2.72112 9.70643 2.71249 10.0683 2.6659C10.2669 2.65901 10.4567 2.69351 10.6377 2.76943C10.7067 2.75218 10.7758 2.73492 10.8448 2.71767C11.0798 2.80466 11.3214 2.86504 11.5695 2.89884C11.7515 3.01926 11.9413 3.11416 12.1389 3.18355Z" fill="#A7A7A7"/>
<path fill-rule="evenodd" clip-rule="evenodd" d="M17.1601 3.80475C17.6153 4.0066 18.0294 4.27405 18.4024 4.6071C18.8459 5.06753 19.2686 5.54202 19.6707 6.03063C19.7229 6.10957 19.7488 6.19586 19.7483 6.28945C19.5391 6.2804 19.3321 6.27175 19.1271 6.26357C19.2371 6.42311 19.3407 6.58705 19.4377 6.75534C19.4205 6.78986 19.4032 6.82434 19.386 6.85887C19.4723 6.91928 19.5585 6.97963 19.6448 7.04004C19.455 7.05728 19.2652 7.07457 19.0754 7.09181C19.0517 7.11324 19.0344 7.13912 19.0236 7.16945C19.1789 7.37651 19.3342 7.58357 19.4895 7.79063C19.4407 7.94075 19.3544 8.06152 19.2307 8.15298C19.0133 8.12001 18.7976 8.08548 18.5836 8.04945C18.5275 8.10976 18.4844 8.17876 18.4542 8.25651C18.6119 8.41414 18.7499 8.58667 18.8683 8.77416C18.7402 8.96269 18.6021 9.14386 18.4542 9.31769C18.4714 9.33493 18.4887 9.35222 18.506 9.36945C18.4024 9.38669 18.2989 9.40398 18.1954 9.42122C18.1461 9.52242 18.077 9.60871 17.9883 9.68004C18.1071 9.85071 18.2452 10.006 18.4024 10.1459C16.5793 12.0171 14.3879 13.2595 11.8283 13.873C11.5515 14.236 11.2237 14.5466 10.8448 14.8047C9.91613 15.0906 8.96708 15.2631 7.99773 15.3224C7.60717 15.5263 7.21029 15.7161 6.80715 15.8918C6.51493 16.0042 6.23887 15.9697 5.97891 15.7883C6.14414 15.5448 6.33391 15.3204 6.54832 15.1153C6.22101 15.1926 5.89314 15.2875 5.56479 15.4C5.42984 15.3671 5.30908 15.3067 5.20244 15.2189C5.4095 14.9773 5.61656 14.7357 5.82362 14.4942C5.5709 14.5578 5.31208 14.6181 5.04715 14.6753C4.91838 14.6363 4.81485 14.5586 4.73656 14.4424C4.87973 14.2601 5.03503 14.0875 5.20244 13.9247C4.99411 13.9355 4.78705 13.9527 4.58126 13.9765C4.48029 13.8868 4.42853 13.7746 4.42597 13.64C4.33663 13.6563 4.25036 13.6649 4.16715 13.6659C4.2654 13.5423 4.35168 13.4129 4.42597 13.2777C4.39449 13.1314 4.34272 12.9934 4.27068 12.8636C4.06381 12.8229 3.85675 12.7798 3.6495 12.7342C3.58883 12.7125 3.53706 12.678 3.49421 12.6306C3.63225 12.4581 3.77028 12.2855 3.90832 12.113C3.78687 12.1171 3.67471 12.1602 3.57185 12.2424C3.38205 12.1216 3.22675 11.9663 3.10597 11.7765C3.05392 11.6712 3.02803 11.5591 3.02832 11.44C3.1236 10.3511 3.34791 9.28994 3.70126 8.25651C3.74132 8.19383 3.78446 8.19383 3.83068 8.25651C3.99479 7.99722 4.1587 7.7384 4.32244 7.48004C4.31161 7.44971 4.29435 7.42383 4.27068 7.4024C4.70519 6.97684 5.11931 6.52819 5.51303 6.05651C5.58162 6.06417 5.64203 6.05558 5.69421 6.03063C5.7805 5.77181 5.86674 5.51298 5.95303 5.25416C6.00919 5.21311 6.0696 5.17858 6.13421 5.15063C6.25787 5.14248 6.38728 5.15974 6.52244 5.2024C6.69119 5.24904 6.84649 5.35257 6.98832 5.51298C7.09185 5.30593 7.19538 5.09887 7.29891 4.89181C7.41507 5.0209 7.53584 5.0209 7.66126 4.89181C7.83732 5.05411 7.97532 5.24391 8.07538 5.46122C8.21344 5.28869 8.35144 5.11612 8.4895 4.94357C9.02708 5.27425 9.60513 5.42089 10.2236 5.38357C10.2581 5.34905 10.2926 5.31457 10.3271 5.28004C10.5008 5.25649 10.6733 5.23061 10.8448 5.2024C10.8364 5.30732 10.8451 5.41085 10.8707 5.51298C11.2126 5.38223 11.5663 5.29593 11.9319 5.25416C11.912 5.36623 11.9465 5.45252 12.0354 5.51298C12.1681 5.32575 12.3406 5.18769 12.553 5.09887C12.5876 5.23692 12.622 5.37493 12.6566 5.51298C12.9828 5.42012 13.3107 5.33388 13.6401 5.25416C13.6822 5.37146 13.7081 5.49228 13.7177 5.61651C13.9179 5.5457 14.099 5.44217 14.2613 5.30593C14.3932 4.96668 14.6347 4.75962 14.986 4.68475C14.9775 4.80675 14.9861 4.92754 15.0119 5.0471C15.1879 4.99329 15.369 4.95878 15.5554 4.94357C15.5169 4.75626 15.4996 4.56646 15.5036 4.37416C15.6244 4.37416 15.7452 4.37416 15.866 4.37416C15.866 4.54671 15.866 4.71926 15.866 4.89181C16.0419 4.90839 16.2145 4.89113 16.3836 4.84004C16.4181 4.77102 16.4526 4.702 16.4871 4.63298C16.4391 4.56736 16.4305 4.49834 16.4613 4.42593C16.4777 4.51914 16.5122 4.5364 16.5648 4.47769C16.6378 4.36637 16.681 4.24559 16.6942 4.11534C16.8676 4.12388 17.0401 4.11525 17.2119 4.08945C17.165 4.00148 17.1477 3.90658 17.1601 3.80475Z" fill="#B0B0B0"/>
<path fill-rule="evenodd" clip-rule="evenodd" d="M36.2094 7.48004C36.5737 7.69751 36.9015 7.96497 37.1929 8.28239C37.2708 8.2342 37.3571 8.19967 37.4517 8.17887C37.6968 8.34974 37.8434 8.58268 37.8917 8.87769C38.8705 9.62315 39.6729 10.5204 40.2988 11.5695C40.1705 11.8606 40.0152 12.1367 39.8329 12.3977C40.6902 13.8018 41.3804 15.2856 41.9035 16.8495C41.5466 17.1358 41.1497 17.3601 40.7129 17.5224C40.6699 17.0056 40.644 16.488 40.6353 15.9695C40.6094 15.9953 40.5835 16.0212 40.5576 16.0471C40.5508 16.2153 40.568 16.3706 40.6094 16.513C40.4856 16.5807 40.4856 16.6325 40.6094 16.6683C40.5242 16.7488 40.5069 16.835 40.5576 16.9271C40.5231 16.9789 40.4886 17.0306 40.4541 17.0824C40.4779 17.2554 40.4951 17.4279 40.5059 17.6C40.4074 17.6674 40.3039 17.7019 40.1953 17.7036C40.4734 16.7392 40.5769 15.7729 40.5059 14.8047C40.3428 14.0473 40.015 13.3744 39.5223 12.7859C39.4025 12.8165 39.2904 12.8769 39.1859 12.9671C39.16 12.9499 39.1341 12.9326 39.1082 12.9153C38.8721 12.4106 38.6218 11.9103 38.3576 11.4142C38.1467 11.2268 37.931 11.0456 37.7106 10.8706C37.6093 10.8821 37.5144 10.9252 37.4259 11C37.2274 10.8361 37.029 10.6722 36.8306 10.5083C36.6715 10.2217 36.5421 9.91976 36.4423 9.60239C36.03 9.25914 35.6331 8.89679 35.2517 8.51534C35.2361 8.19507 35.2879 7.88448 35.407 7.58357C35.5969 7.66986 35.7866 7.7561 35.9764 7.84239C36.0547 7.72013 36.1323 7.59936 36.2094 7.48004Z" fill="#8F8F8E"/>
<path opacity="0.998" fill-rule="evenodd" clip-rule="evenodd" d="M40.5059 8.61884C40.7209 8.80452 40.9366 8.99428 41.1529 9.18825C41.2047 9.29178 41.2565 9.39531 41.3082 9.49884C41.5042 9.70113 41.7112 9.89095 41.9294 10.0682C42.1566 10.3647 42.3637 10.6752 42.5506 11C42.6443 11.1962 42.7047 11.4033 42.7318 11.6212C43.0855 11.9146 43.1372 12.2598 42.887 12.6565C42.9518 12.8333 43.0639 12.9714 43.2235 13.0706C43.3379 13.2421 43.3638 13.4233 43.3012 13.6141C43.4338 14.0548 43.4683 14.4948 43.4047 14.9341C43.3156 14.4618 43.1517 14.0131 42.9129 13.5882C42.5648 12.1323 41.8918 10.8554 40.8941 9.75766C40.8186 9.50132 40.7496 9.2425 40.687 8.98119C40.5922 8.8863 40.4972 8.79137 40.4023 8.69648C40.4498 8.68209 40.4842 8.65621 40.5059 8.61884Z" fill="#969696"/>
<path fill-rule="evenodd" clip-rule="evenodd" d="M25.5977 15.0377C26.0807 14.9734 26.4689 15.1287 26.7624 15.5035C26.956 16.0913 26.7575 16.4795 26.1671 16.6682C25.3485 16.747 24.9776 16.376 25.0541 15.5553C25.1788 15.3183 25.36 15.1457 25.5977 15.0377Z" fill="#333333"/>
<path fill-rule="evenodd" clip-rule="evenodd" d="M30.8777 23.4236C31.0126 23.7971 31.1765 24.1594 31.3694 24.5106C31.4705 24.9035 31.3411 25.1882 30.9812 25.3647C30.5481 25.4417 30.2548 25.2778 30.1012 24.873C29.6897 23.9665 29.2584 23.0693 28.8071 22.1812C28.319 21.1534 27.8186 20.1354 27.3059 19.1271C27.0501 18.5118 26.7654 17.9079 26.4518 17.3153C26.41 17.2158 26.3841 17.1123 26.3741 17.0047C26.5309 16.3601 26.9019 16.2048 27.4871 16.5389C28.6197 18.8385 29.7499 21.1334 30.8777 23.4236Z" fill="#FDFDFD"/>
<path fill-rule="evenodd" clip-rule="evenodd" d="M12.967 17.3153C13.7079 17.3433 14.0617 17.7229 14.0282 18.4541C13.782 19.0043 13.3593 19.22 12.76 19.1012C12.5073 18.9348 12.3088 18.7191 12.1647 18.4541C12.163 17.8787 12.4304 17.4991 12.967 17.3153Z" fill="#333333"/>
<path fill-rule="evenodd" clip-rule="evenodd" d="M27.3059 19.1271C27.8187 20.1354 28.3191 21.1534 28.8071 22.1812C28.61 22.2311 28.4288 22.3173 28.2636 22.4401C28.1864 22.7313 28.1174 23.0246 28.0565 23.3201C27.798 23.5054 27.5133 23.6434 27.2024 23.7342C27.0866 24.0385 26.9658 24.3405 26.84 24.6401C26.5997 24.7055 26.3668 24.7487 26.1412 24.7695C25.9488 24.7287 25.759 24.677 25.5718 24.6142C25.4634 24.8834 25.3167 25.125 25.1318 25.3389C24.4332 25.0628 23.9759 24.5625 23.76 23.8377C23.6825 23.2245 23.8033 22.6551 24.1224 22.1295C24.2024 21.9822 24.3145 21.8787 24.4589 21.8189C25.1698 21.7095 25.4803 21.2954 25.3906 20.5765C25.4728 20.4332 25.5677 20.2952 25.6753 20.1624C26.0706 19.7153 26.4847 19.284 26.9177 18.8683C26.9026 19.1087 26.9026 19.3503 26.9177 19.593C27.0386 19.4292 27.168 19.2739 27.3059 19.1271Z" fill="#AFAFAF"/>
<path fill-rule="evenodd" clip-rule="evenodd" d="M25.3907 20.5765C25.4804 21.2953 25.1698 21.7094 24.4589 21.8188C23.6533 21.8304 22.851 21.7959 22.0518 21.7153C21.4164 21.7381 20.7866 21.8158 20.1624 21.9482C19.9636 21.9936 19.7738 22.0626 19.593 22.1553C19.0666 22.4789 18.5317 22.7895 17.9883 23.0871C17.7332 23.1605 17.4744 23.1777 17.2118 23.1388C16.4708 22.727 16.2551 22.1317 16.5648 21.3529C17.1427 20.4818 17.9106 19.8347 18.8683 19.4118C20.6198 18.8543 22.3798 18.837 24.1483 19.36C24.7286 19.604 25.1428 20.0094 25.3907 20.5765Z" fill="#333333"/>
<path fill-rule="evenodd" clip-rule="evenodd" d="M12.7083 19.2824C13.0952 19.2183 13.3799 19.3563 13.5624 19.6965C13.7919 21.0943 14.0248 22.4919 14.2612 23.8895C14.1174 24.5224 13.755 24.6863 13.1742 24.3812C13.0466 24.2234 12.969 24.0422 12.9412 23.8377C12.7423 22.5234 12.5267 21.212 12.2942 19.9036C12.3046 19.6055 12.4427 19.3984 12.7083 19.2824Z" fill="#FDFDFD"/>
<path fill-rule="evenodd" clip-rule="evenodd" d="M42.4213 26.0118C42.6149 26.3071 42.6839 26.6263 42.6283 26.9694C42.913 27.2455 42.982 27.5647 42.8354 27.9271C42.8222 28.6537 42.8136 29.3956 42.8095 30.153C42.7885 30.7252 42.7367 31.2946 42.6542 31.8612C42.4777 32.4425 42.2707 33.0119 42.033 33.5694C40.8072 36.4175 38.8487 38.6175 36.1577 40.1694C35.9349 40.222 35.7105 40.2651 35.4848 40.2988C35.3086 40.2714 35.1102 40.2541 34.8895 40.2471C34.4646 40.4232 34.0332 40.5785 33.5954 40.713C33.5274 40.6574 33.4498 40.6229 33.3624 40.6094C33.1778 40.6491 32.9966 40.7009 32.8189 40.7647C32.7218 40.8227 32.6787 40.9089 32.6895 41.0236C32.2037 41.0462 31.7465 41.167 31.3177 41.3859C31.258 41.3216 31.1889 41.2698 31.1107 41.2306C30.8395 41.3126 30.5634 41.3816 30.2824 41.4377C30.1312 41.3727 29.9931 41.2864 29.8683 41.1788C29.7615 41.2353 29.6493 41.244 29.5318 41.2047C29.369 41.085 29.2137 40.9556 29.066 40.8165C28.7083 40.8898 28.3459 40.933 27.9789 40.9459C27.953 40.9718 27.9271 40.9977 27.9013 41.0236C27.5943 40.9098 27.2752 40.8149 26.9436 40.7388C26.8695 40.7148 26.8092 40.6716 26.7624 40.6094C26.7452 40.3678 26.7279 40.1263 26.7107 39.8847C26.3735 40.3154 26.3132 40.2808 26.5295 39.7812C26.3397 39.669 26.1499 39.5569 25.9601 39.4447C26.1009 39.4517 26.2389 39.469 26.3742 39.4965C26.4346 39.4361 26.495 39.3757 26.5554 39.3153C26.6019 39.1063 26.6882 38.9165 26.8142 38.7459C26.8692 38.7768 26.9295 38.794 26.9954 38.7977C27.134 38.7627 27.272 38.7282 27.4095 38.6941C27.4014 38.7652 27.41 38.8343 27.4354 38.9012C27.5361 38.8306 27.6482 38.7875 27.7718 38.7718C27.8402 38.6518 27.9264 38.5483 28.0307 38.4612C28.369 38.3507 28.7141 38.2731 29.066 38.2283C29.0578 38.2993 29.0665 38.3684 29.0918 38.4353C29.146 38.353 29.2064 38.2754 29.273 38.2024C29.6448 38.1839 29.99 38.0804 30.3083 37.8918C30.2824 37.8831 30.2566 37.8745 30.2307 37.8659C29.5552 38.1084 28.8736 38.1688 28.186 38.0471C28.5208 37.9763 28.8487 37.8814 29.1695 37.7624C29.2108 37.8441 29.2367 37.9303 29.2471 38.0212C29.3674 37.8619 29.5141 37.7325 29.6871 37.633C30.0483 37.5736 30.4106 37.5219 30.7742 37.4777C31.0503 37.2878 31.3264 37.0981 31.6024 36.9083C31.7733 36.8566 31.9458 36.8394 32.1201 36.8565C32.0364 36.8883 31.9674 36.9401 31.913 37.0118C32.0674 37.0376 32.2227 37.0462 32.3789 37.0377C32.3701 36.9692 32.3873 36.9088 32.4307 36.8565C32.623 36.7455 32.8214 36.7023 33.026 36.7271C33.0432 36.8306 33.0605 36.9341 33.0777 37.0377C33.3788 36.9258 33.6808 36.8136 33.9836 36.7012C34.7527 36.1561 35.4687 35.5435 36.1318 34.8635C36.0244 35.1644 35.9037 35.4577 35.7695 35.7435C37.0864 34.5044 38.0095 33.0205 38.5389 31.2918C38.5384 30.764 38.5384 30.2377 38.5389 29.713C38.6493 29.4983 38.7614 29.2826 38.8754 29.0659C38.9465 28.6084 38.9637 28.1598 38.9271 27.72C38.959 27.6364 39.0107 27.5674 39.0824 27.513C39.0805 28.1168 39.0805 28.7207 39.0824 29.3247C39.1815 29.2084 39.2592 29.0789 39.3154 28.9365C39.2573 28.5156 39.2487 28.0929 39.2895 27.6683C39.3585 27.5993 39.4276 27.5302 39.4966 27.4612C39.4702 27.1045 39.4097 26.7508 39.3154 26.4C39.3901 26.2732 39.4851 26.1611 39.6001 26.0635C39.5786 25.495 39.5786 24.9256 39.6001 24.3553C40.3427 23.3153 40.8086 22.1765 40.9977 20.9388C41.0445 21.001 41.1048 21.0442 41.1789 21.0683C41.15 21.452 41.1327 21.8489 41.1271 22.2588C41.1181 22.8583 41.1613 23.4536 41.2566 24.0447C41.4118 24.2345 41.5671 24.4243 41.7224 24.6141C41.7847 24.9151 41.871 25.2084 41.9813 25.4941C42.1582 25.6449 42.3049 25.8175 42.4213 26.0118Z" fill="#8E8E8E"/>
<path opacity="0.999" fill-rule="evenodd" clip-rule="evenodd" d="M4.78821 33.3106C4.79595 33.2562 4.78732 33.2044 4.76233 33.1553C4.50952 32.9392 4.39737 32.663 4.42586 32.3271C4.1201 32.2376 3.93029 32.0306 3.85644 31.7059C3.62902 31.6391 3.4047 31.5615 3.1835 31.473C2.93213 31.1872 2.64743 30.9371 2.32939 30.7224C2.24852 30.5952 2.19676 30.4571 2.17409 30.3083C1.77051 30.0112 1.62384 29.623 1.73409 29.1436C1.37894 28.9873 1.17189 28.7198 1.11292 28.3412C1.11292 28.2894 1.11292 28.2377 1.11292 28.1859C1.18401 28.194 1.25303 28.1854 1.31997 28.16C1.75978 27.6554 2.31194 27.3534 2.97644 27.2542C3.4678 27.3511 3.95094 27.4805 4.42586 27.6424C5.03943 28.0154 5.41042 28.5589 5.5388 29.273C6.08176 29.7637 6.36646 30.3762 6.39292 31.1106C6.31998 32.1021 5.81962 32.7751 4.89174 33.1294C4.86147 33.1968 4.82696 33.2573 4.78821 33.3106Z" fill="#A0A0A0"/>
<path fill-rule="evenodd" clip-rule="evenodd" d="M36.7788 29.3765C36.7845 29.4084 36.8018 29.4343 36.8306 29.4541C36.6283 29.9955 36.4298 30.539 36.2353 31.0847C35.8332 32.0447 35.2637 32.8901 34.527 33.6212C34.64 33.2502 34.7953 32.8878 34.9929 32.5341C35.0955 32.2791 35.1646 32.0202 35.2 31.7577C34.9292 32.2011 34.6186 32.6152 34.2682 33C33.968 33.344 33.6315 33.6373 33.2588 33.88C33.3012 33.7951 33.3444 33.7088 33.3882 33.6212C33.8196 33.2589 34.2164 32.862 34.5788 32.4306C35.3739 31.2549 36.0124 29.9953 36.4941 28.6518C36.4134 29.2912 36.3271 29.9297 36.2353 30.5671C36.419 30.1655 36.6001 29.7687 36.7788 29.3765Z" fill="#969594"/>
<path opacity="0.997" fill-rule="evenodd" clip-rule="evenodd" d="M43.1977 34.0353C43.2717 34.1515 43.3235 34.2809 43.353 34.4236C43.2773 34.6943 43.1393 34.9272 42.9389 35.1224C43.0607 35.7564 42.9141 36.3258 42.4989 36.8306C42.5317 37.1619 42.4109 37.4207 42.1365 37.6071C42.0635 37.8777 41.96 38.1366 41.8259 38.3836C41.7123 38.5094 41.5743 38.5957 41.4118 38.6424C41.3094 39.1934 40.9901 39.5471 40.4542 39.7036C40.3742 40.0682 40.1499 40.2839 39.7812 40.3506C39.6029 40.5952 39.3613 40.7333 39.0565 40.7648C38.8192 41.099 38.4914 41.2543 38.073 41.2306C38.0112 41.3356 37.9249 41.4132 37.8142 41.4636C37.5711 41.5109 37.3381 41.485 37.1153 41.3859C36.9169 41.5153 36.753 41.6793 36.6236 41.8777C36.4332 41.9973 36.2348 42.0232 36.0283 41.9553C35.8369 42.1512 35.6125 42.2029 35.3553 42.1106C35.1937 42.2303 35.0126 42.2993 34.8118 42.3177C34.5065 42.2186 34.1959 42.1323 33.8801 42.0589C33.6301 42.2528 33.354 42.3909 33.0518 42.473C32.8438 42.4733 32.6885 42.3871 32.5859 42.2142C32.8674 42.208 33.1434 42.1648 33.4142 42.0848C33.8485 41.917 34.2885 41.7703 34.7342 41.6448C34.8635 41.744 35.0015 41.8303 35.1483 41.9036C35.3853 41.867 35.6183 41.8066 35.8471 41.7224C37.4823 41.0388 38.9921 40.1502 40.3765 39.0565C40.7093 38.5465 41.0026 38.0116 41.2565 37.4518C42.0447 36.3954 42.6918 35.2566 43.1977 34.0353Z" fill="#969696"/>
<path fill-rule="evenodd" clip-rule="evenodd" d="M23.3201 41.7482C23.2759 41.9393 23.1638 42.0773 22.9836 42.1623C22.947 42.2442 22.9039 42.3218 22.8542 42.3953C22.405 42.6111 21.9392 42.7837 21.4566 42.9129C21.1993 42.948 20.9664 42.8876 20.7577 42.7318C20.658 42.8162 20.5631 42.9111 20.473 43.0165C20.3688 43.0815 20.2567 43.1247 20.1366 43.1459C19.8611 43.0844 19.585 43.0844 19.3083 43.1459C19.1743 43.1523 19.0535 43.1178 18.946 43.0423C18.6633 43.3007 18.3613 43.3179 18.0401 43.0941C17.8097 43.3251 17.5509 43.3596 17.2636 43.1976C16.9719 43.2848 16.6785 43.3193 16.3836 43.3012C16.216 43.2798 16.0607 43.228 15.9177 43.1459C15.6515 43.2471 15.384 43.2816 15.1154 43.2494C14.9365 43.2302 14.7812 43.1611 14.6495 43.0423C14.5132 43.1283 14.3666 43.1542 14.2095 43.12C13.8244 43.0089 13.4448 42.8881 13.0707 42.7576C12.9242 42.6113 12.7516 42.5078 12.553 42.4471C12.3781 42.2809 12.2573 42.0825 12.1907 41.8518C12.1969 41.7955 12.2314 41.761 12.2942 41.7482C12.7714 41.8521 13.2545 41.9125 13.7436 41.9294C14.0493 42.0593 14.3685 42.137 14.7013 42.1623C14.98 42.0985 15.256 42.0985 15.5295 42.1623C15.8401 42.1278 16.1507 42.0933 16.4613 42.0588C16.8483 42.0687 17.2452 42.0687 17.6519 42.0588C18.2332 41.9888 18.8026 41.9198 19.3601 41.8518C19.4205 41.8604 19.4809 41.869 19.5413 41.8776C19.6367 41.9989 19.7402 42.1111 19.8519 42.2141C20.1107 42.1796 20.3695 42.1451 20.6283 42.1106C20.6687 42.1742 20.6946 42.2432 20.706 42.3176C21.1463 42.234 21.5863 42.1909 22.026 42.1882C22.4498 42.0104 22.8812 41.8637 23.3201 41.7482Z" fill="#979796"/>
</g>
<defs>
<clipPath id="clip0_107_2060">
<rect width="44" height="44" fill="white"/>
</clipPath>
</defs>
</svg>
