<svg width="24" height="24" viewBox="0 0 24 24" fill="none" xmlns="http://www.w3.org/2000/svg">
<g clip-path="url(#clip0_77_2758)">
<path d="M0 4.8C0 3.48 1.2 2.4 2.66667 2.4H21.3333C22.0406 2.4 22.7189 2.65286 23.219 3.10294C23.719 3.55303 24 4.16348 24 4.8V21.6C24 22.2365 23.719 22.847 23.219 23.2971C22.7189 23.7471 22.0406 24 21.3333 24H2.66667C1.95942 24 1.28115 23.7471 0.781049 23.2971C0.280952 22.847 0 22.2365 0 21.6V4.8ZM2.66667 7.2V21.6H21.3333V7.2H2.66667ZM5.33333 0H8V2.4H5.33333V0ZM16 0H18.6667V2.4H16V0ZM5.33333 10.8H8V13.2H5.33333V10.8ZM5.33333 15.6H8V18H5.33333V15.6ZM10.6667 10.8H13.3333V13.2H10.6667V10.8ZM10.6667 15.6H13.3333V18H10.6667V15.6ZM16 10.8H18.6667V13.2H16V10.8ZM16 15.6H18.6667V18H16V15.6Z" fill="current"/>
</g>
<defs>
<clipPath id="clip0_77_2758">
<rect width="24" height="24" fill="white"/>
</clipPath>
</defs>
</svg>
