/<svg width="13" height="13" viewBox="0 0 13 13" fill="none" xmlns="http://www.w3.org/2000/svg">
<path fill-rule="evenodd" clip-rule="evenodd" d="M1.68203 0.284874C1.49789 0.113292 1.25434 0.0198812 1.00269 0.0243213C0.75104 0.0287613 0.510938 0.130705 0.332967 0.308676C0.154996 0.486647 0.0530516 0.72675 0.0486116 0.978399C0.0441715 1.23005 0.137582 1.4736 0.309164 1.65774L5.12714 6.47571L0.309164 11.2937C0.213728 11.3826 0.137182 11.4899 0.0840911 11.609C0.0310002 11.7282 0.00245238 11.8568 0.000151172 11.9872C-0.00215004 12.1176 0.0218422 12.2472 0.0706967 12.3681C0.119551 12.4891 0.192267 12.599 0.284506 12.6912C0.376746 12.7834 0.486619 12.8562 0.607571 12.905C0.728523 12.9539 0.858076 12.9779 0.988501 12.9756C1.11893 12.9733 1.24755 12.9447 1.36671 12.8916C1.48586 12.8385 1.5931 12.762 1.68203 12.6665L6.5 7.84857L11.318 12.6665C11.4069 12.762 11.5141 12.8385 11.6333 12.8916C11.7524 12.9447 11.8811 12.9733 12.0115 12.9756C12.1419 12.9779 12.2715 12.9539 12.3924 12.905C12.5134 12.8562 12.6233 12.7834 12.7155 12.6912C12.8077 12.599 12.8804 12.4891 12.9293 12.3681C12.9782 12.2472 13.0021 12.1176 12.9998 11.9872C12.9975 11.8568 12.969 11.7282 12.9159 11.609C12.8628 11.4899 12.7863 11.3826 12.6908 11.2937L7.87286 6.47571L12.6908 1.65774C12.8624 1.4736 12.9558 1.23005 12.9514 0.978399C12.9469 0.72675 12.845 0.486647 12.667 0.308676C12.4891 0.130705 12.249 0.0287613 11.9973 0.0243213C11.7457 0.0198812 11.5021 0.113292 11.318 0.284874L6.5 5.10285L1.68203 0.284874Z" fill="current"/>
</svg>
