<svg width="24" height="24" viewBox="0 0 24 24" fill="none" xmlns="http://www.w3.org/2000/svg">
<path d="M9 7.06973e-07C8.06902 -0.000556977 7.16081 0.328838 6.40053 0.942789C5.64025 1.55674 5.06533 2.42502 4.755 3.42797H0V6.85594H4.755C5.0649 7.85954 5.63961 8.72859 6.3999 9.3433C7.16019 9.95801 8.06863 10.2881 9 10.2881C9.93137 10.2881 10.8398 9.95801 11.6001 9.3433C12.3604 8.72859 12.9351 7.85954 13.245 6.85594H24V3.42797H13.245C12.9347 2.42502 12.3598 1.55674 11.5995 0.942789C10.8392 0.328838 9.93098 -0.000556977 9 7.06973e-07ZM7.5 5.14196C7.5 4.68738 7.65804 4.25142 7.93934 3.92999C8.22064 3.60855 8.60218 3.42797 9 3.42797C9.39782 3.42797 9.77936 3.60855 10.0607 3.92999C10.342 4.25142 10.5 4.68738 10.5 5.14196C10.5 5.59654 10.342 6.03249 10.0607 6.35393C9.77936 6.67536 9.39782 6.85594 9 6.85594C8.60218 6.85594 8.22064 6.67536 7.93934 6.35393C7.65804 6.03249 7.5 5.59654 7.5 5.14196ZM15 13.7119C14.069 13.7113 13.1608 14.0407 12.4005 14.6547C11.6402 15.2686 11.0653 16.1369 10.755 17.1399H0V20.5678H10.755C11.0649 21.5714 11.6396 22.4405 12.3999 23.0552C13.1602 23.6699 14.0686 24 15 24C15.9314 24 16.8398 23.6699 17.6001 23.0552C18.3604 22.4405 18.9351 21.5714 19.245 20.5678H24V17.1399H19.245C18.9347 16.1369 18.3598 15.2686 17.5995 14.6547C16.8392 14.0407 15.931 13.7113 15 13.7119ZM13.5 18.8538C13.5 18.3993 13.658 17.9633 13.9393 17.6419C14.2206 17.3204 14.6022 17.1399 15 17.1399C15.3978 17.1399 15.7794 17.3204 16.0607 17.6419C16.342 17.9633 16.5 18.3993 16.5 18.8538C16.5 19.3084 16.342 19.7444 16.0607 20.0658C15.7794 20.3872 15.3978 20.5678 15 20.5678C14.6022 20.5678 14.2206 20.3872 13.9393 20.0658C13.658 19.7444 13.5 19.3084 13.5 18.8538Z" fill="current"/>
</svg>
