<svg width="22" height="20" viewBox="0 0 22 20" fill="none" xmlns="http://www.w3.org/2000/svg">
<path fill-rule="evenodd" clip-rule="evenodd" d="M4.92903 15.657C4.74156 15.8445 4.63624 16.0988 4.63624 16.364C4.63624 16.6292 4.74156 16.8835 4.92903 17.071C8.83403 20.976 15.166 20.976 19.071 17.071C22.976 13.166 22.976 6.83399 19.071 2.92899C15.166 -0.976006 8.83403 -0.976006 4.92903 2.92899C3.29477 4.55796 2.27681 6.70382 2.04903 8.99999H1.00003C0.802281 9.00004 0.608982 9.05871 0.444573 9.16859C0.280163 9.27848 0.152023 9.43464 0.0763531 9.61734C0.000683047 9.80004 -0.0191199 10.0011 0.0194476 10.195C0.0580152 10.389 0.153222 10.5671 0.293031 10.707L2.29303 12.707L2.29503 12.709C2.38786 12.8018 2.49812 12.8754 2.61947 12.9255C2.74081 12.9757 2.87087 13.0013 3.00215 13.001C3.13344 13.0007 3.26338 12.9745 3.38452 12.9239C3.50565 12.8733 3.61559 12.7992 3.70803 12.706L5.70803 10.707C5.8479 10.5671 5.94313 10.3888 5.98166 10.1948C6.0202 10.0007 6.00031 9.79962 5.92452 9.61688C5.84872 9.43414 5.72043 9.27798 5.55587 9.16818C5.3913 9.05837 5.19787 8.99984 5.00003 8.99999H4.06203C4.28812 7.20635 5.11506 5.54216 6.40807 4.27868C7.70108 3.01519 9.38392 2.2269 11.1823 2.0423C12.9807 1.85769 14.7886 2.28765 16.3113 3.2621C17.8341 4.23654 18.9819 5.69802 19.5676 7.40833C20.1534 9.11863 20.1426 10.9769 19.537 12.6803C18.9314 14.3837 17.7668 15.8318 16.2328 16.7885C14.6989 17.7452 12.8861 18.1541 11.09 17.9486C9.29386 17.7432 7.62029 16.9354 6.34203 15.657C6.15454 15.4698 5.90045 15.3647 5.63553 15.3647C5.37061 15.3647 5.11652 15.4698 4.92903 15.657ZM10 5.99999C10 5.73478 10.1054 5.48042 10.2929 5.29289C10.4805 5.10535 10.7348 4.99999 11 4.99999C11.2652 4.99999 11.5196 5.10535 11.7071 5.29289C11.8947 5.48042 12 5.73478 12 5.99999V9.99999H16C16.2652 9.99999 16.5196 10.1054 16.7071 10.2929C16.8947 10.4804 17 10.7348 17 11C17 11.2652 16.8947 11.5196 16.7071 11.7071C16.5196 11.8946 16.2652 12 16 12H11C10.7348 12 10.4805 11.8946 10.2929 11.7071C10.1054 11.5196 10 11.2652 10 11V5.99999Z" fill="current"/>
</svg>
