<svg width="24" height="24" viewBox="0 0 24 24" fill="none" xmlns="http://www.w3.org/2000/svg">
<g clip-path="url(#clip0_77_6753)">
<path d="M21.75 0H2.25C1.00734 0 0 1.15125 0 2.57143V21.4286C0 22.8488 1.00734 24 2.25 24H21.75C22.9927 24 24 22.8488 24 21.4286V2.57143C24 1.15125 22.9927 0 21.75 0ZM21.4688 21.4286H2.53125C2.45666 21.4286 2.38512 21.3947 2.33238 21.3344C2.27963 21.2741 2.25 21.1924 2.25 21.1071V2.89286C2.25 2.80761 2.27963 2.72585 2.33238 2.66557C2.38512 2.60529 2.45666 2.57143 2.53125 2.57143H21.4688C21.5433 2.57143 21.6149 2.60529 21.6676 2.66557C21.7204 2.72585 21.75 2.80761 21.75 2.89286V21.1071C21.75 21.1924 21.7204 21.2741 21.6676 21.3344C21.6149 21.3947 21.5433 21.4286 21.4688 21.4286ZM19.5 16.5V17.7857C19.5 18.1407 19.2481 18.4286 18.9375 18.4286H9.5625C9.25186 18.4286 9 18.1407 9 17.7857V16.5C9 16.145 9.25186 15.8571 9.5625 15.8571H18.9375C19.2481 15.8571 19.5 16.145 19.5 16.5ZM19.5 11.3571V12.6429C19.5 12.9979 19.2481 13.2857 18.9375 13.2857H9.5625C9.25186 13.2857 9 12.9979 9 12.6429V11.3571C9 11.0021 9.25186 10.7143 9.5625 10.7143H18.9375C19.2481 10.7143 19.5 11.0021 19.5 11.3571ZM19.5 6.21429V7.5C19.5 7.85502 19.2481 8.14286 18.9375 8.14286H9.5625C9.25186 8.14286 9 7.85502 9 7.5V6.21429C9 5.85927 9.25186 5.57143 9.5625 5.57143H18.9375C19.2481 5.57143 19.5 5.85927 19.5 6.21429ZM7.6875 6.85714C7.6875 7.92225 6.93197 8.78571 6 8.78571C5.06803 8.78571 4.3125 7.92225 4.3125 6.85714C4.3125 5.79204 5.06803 4.92857 6 4.92857C6.93197 4.92857 7.6875 5.79204 7.6875 6.85714ZM7.6875 12C7.6875 13.0651 6.93197 13.9286 6 13.9286C5.06803 13.9286 4.3125 13.0651 4.3125 12C4.3125 10.9349 5.06803 10.0714 6 10.0714C6.93197 10.0714 7.6875 10.9349 7.6875 12ZM7.6875 17.1429C7.6875 18.208 6.93197 19.0714 6 19.0714C5.06803 19.0714 4.3125 18.208 4.3125 17.1429C4.3125 16.0777 5.06803 15.2143 6 15.2143C6.93197 15.2143 7.6875 16.0777 7.6875 17.1429Z" fill="current"/>
</g>
<defs>
<clipPath id="clip0_77_6753">
<rect width="24" height="24" fill="white"/>
</clipPath>
</defs>
</svg>
