<svg width="24" height="24" viewBox="0 0 24 24" fill="none" xmlns="http://www.w3.org/2000/svg">
<path d="M23.6763 16.2126C22.6346 14.5539 22.0813 12.1731 22.0813 9.33229C22.0813 6.85721 21.0192 4.48351 19.1287 2.73336C17.2381 0.983221 14.674 0 12.0003 0C9.32666 0 6.76251 0.983221 4.87195 2.73336C2.98139 4.48351 1.91929 6.85721 1.91929 9.33229C1.91929 12.1742 1.36843 14.5539 0.326729 16.2126C0.114165 16.551 0.00148923 16.9351 1.46614e-05 17.3265C-0.00145991 17.7178 0.108319 18.1027 0.318328 18.4424C0.527009 18.7823 0.829897 19.0644 1.19572 19.2597C1.56155 19.455 1.97705 19.5564 2.39934 19.5534H6.74138C6.86046 20.7684 7.46602 21.8983 8.4391 22.721C9.41218 23.5438 10.6824 24 12.0003 24C13.3182 24 14.5884 23.5438 15.5615 22.721C16.5346 21.8983 17.1402 20.7684 17.2592 19.5534H21.6013C22.023 19.5558 22.4377 19.4541 22.8028 19.2589C23.168 19.0636 23.4703 18.7818 23.6787 18.4424C23.8896 18.1032 24.0004 17.7186 24 17.3272C23.9996 16.9358 23.8879 16.5514 23.6763 16.2126ZM12.0003 21.3309C11.447 21.3311 10.9106 21.1542 10.482 20.8303C10.0533 20.5063 9.75874 20.0553 9.64807 19.5534H14.3525C14.2419 20.0553 13.9473 20.5063 13.5187 20.8303C13.09 21.1542 12.5536 21.3311 12.0003 21.3309ZM3.19862 16.887C4.26073 14.8872 4.79958 12.3475 4.79958 9.33229C4.79958 7.56438 5.55823 5.86888 6.90862 4.61877C8.25902 3.36867 10.0906 2.66637 12.0003 2.66637C13.9101 2.66637 15.7416 3.36867 17.092 4.61877C18.4424 5.86888 19.201 7.56438 19.201 9.33229C19.201 12.3464 19.7387 14.8872 20.8008 16.887H3.19862Z" fill="current"/>
</svg>
