<svg width="40" height="36" viewBox="0 0 40 36" fill="current" xmlns="http://www.w3.org/2000/svg">
<path d="M33.9603 0.192107C33.7475 0.305612 33.492 0.52389 33.3898 0.689781C33.211 0.969177 33.1939 1.08268 33.1939 2.36616V3.74568L31.7974 3.77187C30.2646 3.79806 30.1624 3.83299 29.7537 4.40051C29.5067 4.74102 29.5067 5.56175 29.7537 5.90227C30.1624 6.46979 30.2646 6.50471 31.7974 6.53091L33.1939 6.5571V7.93662C33.1939 9.22009 33.211 9.3336 33.3898 9.61299C33.6623 10.0408 34.2839 10.3377 34.7353 10.2591C35.1866 10.1805 35.7145 9.70031 35.8338 9.27248C35.8763 9.08913 35.9189 8.4081 35.9189 7.75326V6.5571L37.2729 6.53091C38.7801 6.50471 38.8994 6.46106 39.3081 5.84988C39.6913 5.27362 39.504 4.46163 38.8738 3.98142C38.6524 3.81553 38.4906 3.79806 37.2729 3.77187L35.9189 3.74568V2.54951C35.9189 1.89468 35.8763 1.21365 35.8338 1.04776C35.689 0.506428 35.0248 2.28882e-05 34.4713 2.28882e-05C34.3946 2.28882e-05 34.1647 0.0873337 33.9603 0.192107Z" fill="#4D82BE"/>
<path d="M13.9403 1.08273C13.7274 1.13512 13.3783 1.29228 13.1739 1.41451C12.4671 1.84234 12.135 2.32255 11.1046 4.43548C10.5682 5.5356 10.0657 6.4611 9.9891 6.49603C9.91246 6.52222 8.76286 6.54841 7.44295 6.54841C6.08046 6.54841 4.82016 6.59207 4.53063 6.64446C2.71682 6.98497 1.09036 8.55657 0.622001 10.4338C0.511299 10.8791 0.494268 12.2848 0.494268 20.981C0.494268 32.1306 0.460205 31.502 1.07332 32.6894C1.66941 33.8594 2.66573 34.7238 3.94306 35.169L4.62431 35.4048H19.9097C32.4701 35.4048 35.2803 35.3873 35.6635 35.2825C37.4602 34.8373 38.959 33.2919 39.3677 31.4845C39.4784 30.9781 39.4955 29.6335 39.4784 20.719L39.4529 10.5211L39.257 9.97975C39.1463 9.68289 38.9079 9.19394 38.7205 8.90582C38.414 8.41688 38.3714 8.38195 38.0648 8.38195H37.7327L37.6816 9.03679C37.588 10.2853 36.9238 11.2894 35.8338 11.822C35.3399 12.0578 35.1951 12.0927 34.5139 12.0927C33.8156 12.0927 33.6879 12.0665 33.1769 11.8046C32.104 11.2632 31.4653 10.2941 31.3546 9.00186L31.295 8.39941L30.6478 8.36449C29.5493 8.29464 28.6381 7.67473 28.0761 6.61826C27.8036 6.0944 27.7866 6.02455 27.7866 5.18636C27.7866 4.39183 27.8121 4.25213 28.0335 3.76319L28.289 3.23059L28.1017 2.82895C27.8036 2.21778 27.1394 1.54548 26.5263 1.25735L25.9983 1.00415L20.1652 0.986687C15.7201 0.969223 14.2384 0.995419 13.9403 1.08273ZM20.9316 11.2632C22.9923 11.5252 24.6614 12.3633 26.1261 13.8738C27.3353 15.1136 28.0846 16.563 28.4423 18.3354C28.6637 19.4356 28.6211 21.173 28.3486 22.2644C27.9654 23.74 27.2671 25.006 26.1686 26.176C25.0531 27.3809 23.7247 28.1841 22.1237 28.6207C20.9912 28.9263 19.1263 28.9438 18.0022 28.6556C16.3758 28.2365 14.9537 27.3983 13.8211 26.176C12.7226 25.006 12.0328 23.7662 11.6411 22.2644C11.4623 21.6183 11.4453 21.3215 11.4453 19.9943C11.4453 18.5886 11.4708 18.4053 11.6752 17.6981C12.1606 16.0915 12.8248 14.9216 13.8977 13.8302C15.3028 12.3983 17.0229 11.5252 18.9304 11.272C19.7735 11.1672 20.1141 11.1672 20.9316 11.2632Z" fill="#4D82BE"/>
<path d="M19.1348 14.0572C17.2699 14.3628 15.5923 15.6026 14.7748 17.279C14.2554 18.3355 14.0851 19.1474 14.1362 20.3349C14.2383 22.5788 15.4476 24.4822 17.3976 25.4513C19.1178 26.3157 20.872 26.3157 22.5921 25.4513C24.5336 24.4822 25.7599 22.5613 25.8535 20.3349C25.9132 18.8244 25.53 17.5409 24.6614 16.3535C23.4351 14.6858 21.1359 13.7342 19.1348 14.0572Z" fill="#4D82BE"/>
</svg>
