<svg xmlns="http://www.w3.org/2000/svg" width="20" height="20" viewBox="0 0 20 20" fill="none">
<path fill-rule="evenodd" clip-rule="evenodd" d="M19.3139 0.8539C20.0144 1.31205 20.2108 2.25015 19.7526 2.95071L9.45037 18.7071C9.33034 18.8906 9.17187 19.046 8.98592 19.1623C8.79998 19.2787 8.59098 19.3532 8.37339 19.3809C8.1558 19.4086 7.93479 19.3886 7.72565 19.3225C7.51651 19.2564 7.32422 19.1457 7.16207 18.9979L0.495918 12.9378C0.198577 12.6675 0.020806 12.2901 0.00171286 11.8887C-0.0173803 11.4873 0.123768 11.0947 0.394107 10.7974C0.664446 10.5 1.04183 10.3223 1.44324 10.3032C1.84465 10.2841 2.23721 10.4252 2.53455 10.6956L7.88686 15.5606L17.217 1.29265C17.437 0.956472 17.7814 0.721396 18.1746 0.639118C18.5678 0.556839 18.9776 0.634096 19.3139 0.8539Z" fill="#4D82BE"/>
</svg>