<svg xmlns="http://www.w3.org/2000/svg" width="22" height="22" viewBox="0 0 22 22" fill="none">
  <g clip-path="url(#clip0_335_2515)">
    <path opacity="0.959" d="M10.9785 22.0566C12.3439 22.063 13.7075 22.0415 15.0696 21.992L15.094 21.9911L15.1178 21.9855C15.2734 21.9489 15.4263 21.9031 15.5764 21.848L15.5835 21.8454L15.5904 21.8423C16.6591 21.3749 17.3077 20.5538 17.5193 19.4026L17.5221 19.3873L17.523 19.3718C17.738 15.6435 17.9559 11.916 18.1769 8.18957C18.4242 8.14018 18.6426 8.04156 18.8228 7.88604C19.054 7.68653 19.2016 7.41154 19.2786 7.08232L19.2843 7.05791L19.285 7.03285C19.3139 6.06826 19.3139 5.10362 19.285 4.13902L19.2843 4.11546L19.2792 4.09245C19.0931 3.2514 18.5779 2.68703 17.7575 2.42584L17.7277 2.41635L17.6964 2.4145C16.7314 2.35731 15.765 2.33442 14.7972 2.34582C14.7954 2.17941 14.7871 2.01319 14.7725 1.84717L14.7726 1.84716L14.7715 1.83796C14.71 1.3486 14.5423 0.932315 14.2562 0.604734C13.97 0.277098 13.5805 0.0555543 13.1047 -0.0698676L13.0753 -0.0776197L13.0449 -0.0780949C11.6683 -0.0996055 10.2915 -0.106776 8.91472 -0.0996064L8.87476 -0.0993983L8.83685 -0.0867449C8.21588 0.120559 7.74446 0.451981 7.45531 0.922883C7.20868 1.32455 7.10903 1.8043 7.13814 2.34795C6.26787 2.34394 5.3977 2.35167 4.52761 2.37116L4.50805 2.37159L4.4888 2.37507C4.00447 2.46249 3.59861 2.65188 3.2875 2.9547C2.97635 3.25755 2.7765 3.65777 2.67705 4.13884L2.67265 4.16014L2.67199 4.18188C2.64319 5.13224 2.64319 6.0826 2.67199 7.03296L2.67275 7.05797L2.67845 7.08233C2.75545 7.41154 2.903 7.68653 3.13424 7.88604C3.3145 8.04156 3.53281 8.14017 3.78012 8.18956C4.0011 11.916 4.21906 15.6435 4.43401 19.3718L4.4348 19.3855L4.43708 19.399C4.47684 19.6346 4.53814 19.8645 4.62098 20.0886L4.62378 20.0962L4.62707 20.1036C5.05982 21.0758 5.80048 21.707 6.83172 21.9837L6.85909 21.991L6.88742 21.992C8.2495 22.0415 9.61318 22.063 10.9785 22.0566ZM10.9785 22.0566C10.9789 22.0566 10.9793 22.0566 10.9797 22.0566L10.9785 21.8066L10.9774 22.0566C10.9777 22.0566 10.9781 22.0566 10.9785 22.0566ZM6.05003 18.9505C5.84599 15.3757 5.64349 11.801 5.4425 8.22634C5.71456 8.22448 5.98463 8.19985 6.25256 8.15242L6.322 8.14013L6.37479 8.09336C6.60252 7.89157 6.76652 7.64834 6.75476 7.36623C6.743 7.08387 6.55908 6.85556 6.3151 6.67431L6.25616 6.63053L6.1829 6.62557C5.5625 6.58359 4.94306 6.55052 4.32462 6.52642C4.30406 5.7923 4.30603 5.05815 4.33053 4.32404C4.39012 4.17347 4.48626 4.07266 4.62588 4.00968C8.86327 4.00268 13.1006 4.0098 17.338 4.03104C17.4693 4.081 17.5628 4.16489 17.6267 4.29116C17.6493 5.04773 17.6452 5.80401 17.6144 6.56003C14.5425 6.55374 11.4706 6.56109 8.39869 6.58204L8.37783 6.58218L8.35729 6.58577C8.09473 6.63173 7.86047 6.74133 7.72574 6.95806C7.59182 7.1735 7.5947 7.43328 7.66497 7.69239L7.67239 7.71977L7.68577 7.74479C7.79621 7.95144 7.9645 8.10061 8.18325 8.18313L8.22498 8.19887L8.26959 8.19921C11.0179 8.22003 13.7663 8.22742 16.5148 8.22133L15.9072 18.9901C15.8573 19.3597 15.7333 19.6501 15.5452 19.874C15.3611 20.0933 15.1034 20.2631 14.7589 20.3765C13.5004 20.4243 12.2407 20.4453 10.9797 20.4394L10.9774 20.4395C9.71634 20.4453 8.4566 20.4243 7.19805 20.3765C6.84407 20.2604 6.5826 20.0861 6.39888 19.8616C6.21077 19.6317 6.09072 19.3326 6.05003 18.9505ZM8.87377 1.78809C8.96022 1.65166 9.07193 1.56446 9.21357 1.51699C10.4358 1.49829 11.656 1.51874 12.8742 1.57833C12.9567 1.63739 13.0264 1.7085 13.0841 1.79258C13.1183 1.97664 13.1368 2.16226 13.1397 2.34961H13.131H13.1216H13.1122H13.1028H13.0934H13.084H13.0746H13.0652H13.0558H13.0464H13.037H13.0276H13.0182H13.0088H12.9994H12.99H12.9806H12.9712H12.9618H12.9524H12.943H12.9336H12.9242H12.9148H12.9054H12.896H12.8866H12.8772H12.8678H12.8584H12.849H12.8396H12.8302H12.8208H12.8114H12.802H12.7926H12.7832H12.7738H12.7644H12.755H12.7456H12.7362H12.7268H12.7174H12.708H12.6986H12.6892H12.6798H12.6704H12.661H12.6516H12.6422H12.6328H12.6234H12.614H12.6046H12.5952H12.5858H12.5764H12.567H12.5576H12.5482H12.5388H12.5294H12.52H12.5106H12.5012H12.4918H12.4824H12.473H12.4636H12.4542H12.4448H12.4354H12.426H12.4166H12.4072H12.3978H12.3884H12.379H12.3696H12.3602H12.3508H12.3414H12.332H12.3226H12.3132H12.3038H12.2944H12.285H12.2756H12.2662H12.2568H12.2474H12.238H12.2286H12.2192H12.2098H12.2004H12.191H12.1816H12.1722H12.1628H12.1534H12.144H12.1346H12.1252H12.1159H12.1065H12.0971H12.0877H12.0783H12.0689H12.0595H12.0501H12.0407H12.0313H12.0219H12.0125H12.0031H11.9937H11.9843H11.9749H11.9655H11.9561H11.9467H11.9373H11.9279H11.9185H11.9091H11.8997H11.8903H11.8809H11.8715H11.8621H11.8527H11.8433H11.8339H11.8245H11.8151H11.8057H11.7963H11.7869H11.7775H11.7681H11.7587H11.7493H11.7399H11.7305H11.7211H11.7117H11.7023H11.6929H11.6835H11.6741H11.6647H11.6553H11.6459H11.6365H11.6271H11.6177H11.6083H11.5989H11.5895H11.5801H11.5707H11.5613H11.5519H11.5425H11.5331H11.5237H11.5143H11.5049H11.4955H11.4861H11.4767H11.4673H11.4579H11.4485H11.4391H11.4297H11.4203H11.4109H11.4015H11.3921H11.3827H11.3733H11.3639H11.3545H11.3451H11.3357H11.3263H11.3169H11.3075H11.2981H11.2887H11.2793H11.2699H11.2605H11.2511H11.2417H11.2323H11.2229H11.2135H11.2041H11.1947H11.1853H11.1759H11.1665H11.1571H11.1477H11.1383H11.1289H11.1195H11.1101H11.1007H11.0913H11.0819H11.0725H11.0631H11.0537H11.0443H11.0349H11.0255H11.0161H11.0067H10.9973H10.9879H10.9785H10.9691H10.9597H10.9503H10.9409H10.9315H10.9221H10.9127H10.9033H10.8939H10.8845H10.8751H10.8657H10.8563H10.8469H10.8375H10.8281H10.8187H10.8093H10.7999H10.7905H10.7811H10.7717H10.7623H10.7529H10.7435H10.7341H10.7247H10.7153H10.7059H10.6965H10.6871H10.6777H10.6683H10.6589H10.6495H10.6401H10.6307H10.6213H10.6119H10.6025H10.5931H10.5837H10.5743H10.5649H10.5555H10.5461H10.5367H10.5273H10.5179H10.5085H10.4991H10.4897H10.4803H10.4709H10.4615H10.4521H10.4427H10.4333H10.4239H10.4146H10.4052H10.3958H10.3864H10.377H10.3676H10.3582H10.3488H10.3394H10.33H10.3206H10.3112H10.3018H10.2924H10.283H10.2736H10.2642H10.2548H10.2454H10.236H10.2266H10.2172H10.2078H10.1984H10.189H10.1796H10.1702H10.1608H10.1514H10.142H10.1326H10.1232H10.1138H10.1044H10.095H10.0856H10.0762H10.0668H10.0574H10.048H10.0386H10.0292H10.0198H10.0104H10.001H9.99158H9.98218H9.97278H9.96338H9.95398H9.94458H9.93518H9.92578H9.91638H9.90698H9.89758H9.88818H9.87878H9.86938H9.85998H9.85058H9.84118H9.83179H9.82239H9.81299H9.80359H9.79419H9.78479H9.77539H9.76599H9.75659H9.74719H9.73779H9.72839H9.71899H9.70959H9.70019H9.69079H9.68139H9.67199H9.6626H9.6532H9.6438H9.6344H9.625H9.6156H9.6062H9.5968H9.5874H9.578H9.5686H9.5592H9.5498H9.5404H9.531H9.5216H9.5122H9.50281H9.49341H9.48401H9.47461H9.46521H9.45581H9.44641H9.43701H9.42761H9.41821H9.40881H9.39941H9.39001H9.38061H9.37121H9.36181H9.35242H9.34302H9.33362H9.32422H9.31482H9.30542H9.29602H9.28662H9.27722H9.26782H9.25842H9.24902H9.23962H9.23022H9.22082H9.21142H9.20202H9.19263H9.18323H9.17383H9.16443H9.15503H9.14563H9.13623H9.12683H9.11743H9.10803H9.09863H9.08923H9.07983H9.07043H9.06103H9.05163H9.04224H9.03284H9.02344H9.01404H9.00464H8.99524H8.98584H8.97644H8.96704H8.95764H8.94824H8.93884H8.92944H8.92004H8.91064H8.90124H8.89185H8.88245H8.87305H8.86365H8.85425H8.84485H8.83545H8.82605H8.81729C8.82022 2.16074 8.83905 1.97361 8.87377 1.78809Z" fill="#EC2929" stroke="#EC2929" stroke-width="0.5"/>
    <path opacity="0.956" d="M8.66664 9.86928L8.63964 9.86837L8.61307 9.87325C8.30267 9.93022 8.08297 10.1225 7.97274 10.4186L7.95534 10.4654L7.95721 10.5152C8.05088 13.0109 8.17991 15.5054 8.34429 17.9989L8.34418 17.9989L8.34491 18.0065C8.36009 18.1636 8.40914 18.3101 8.50144 18.435C8.59392 18.5602 8.71947 18.6496 8.86553 18.7084L8.87815 18.7135L8.89124 18.7172C9.11032 18.7789 9.33049 18.7823 9.52765 18.6865C9.72522 18.5906 9.85785 18.4154 9.94278 18.2049L9.96306 18.1546L9.9607 18.1005C9.85546 15.6823 9.72675 13.2645 9.57456 10.8472C9.58515 10.5796 9.52863 10.3306 9.35956 10.1452C9.187 9.95589 8.93888 9.87848 8.66664 9.86928ZM8.95898 18.4766C8.73873 18.3878 8.617 18.223 8.59375 17.9824L9.32422 10.8496C9.47667 13.2697 9.60558 15.6903 9.71094 18.1113C9.57159 18.4567 9.32091 18.5784 8.95898 18.4766Z" fill="#EC2929" stroke="#EC2929" stroke-width="0.5"/>
    <path opacity="0.956" d="M13.139 9.86944L13.0968 9.86738L13.0564 9.87926C12.8383 9.94329 12.6533 10.0585 12.5308 10.2396C12.4119 10.4154 12.3704 10.6257 12.3822 10.8497C12.2491 13.1634 12.1134 15.477 11.9752 17.7904C11.9418 18.1265 12.062 18.415 12.3249 18.6279L12.3571 18.6539L12.3959 18.6682C12.6614 18.7659 12.9315 18.7922 13.1661 18.672C13.4021 18.5511 13.5356 18.3164 13.6053 18.0445L13.6113 18.0211L13.6127 17.997C13.7502 15.6444 13.8861 13.2917 14.0203 10.9389C14.0599 10.6556 14.027 10.385 13.8598 10.1789C13.6897 9.96912 13.4275 9.88352 13.139 9.86944Z" fill="#EC2929" stroke="#EC2929" stroke-width="0.5"/>
  </g>
  <defs>
    <clipPath id="clip0_335_2515">
      <rect width="22" height="22" fill="white"/>
    </clipPath>
  </defs>
</svg>